<svg xmlns="http://www.w3.org/2000/svg" width="88" height="94" viewBox="0 0 88 94">
    <path fill="#FFF" fill-rule="evenodd" d="M9 0C4.066 0 0 4.066 0 9v6a3 3 0 0 0 3 3h9v22H7c-3.824 0-7 3.176-7 7v40c0 3.824 3.176 7 7 7h74c3.824 0 7-3.176 7-7V47c0-3.824-3.176-7-7-7h-5V9c0-4.934-4.066-9-9-9H9zm0 6h.344c.062.012.125.023.187.031C10.941 6.281 12 7.473 12 9v3H6V9c0-1.715 1.285-3 3-3zm8.469 0h49.53c1.716 0 3 1.285 3 3v41.938L44 70.282 18 50.938V9c0-1.043-.198-2.063-.53-3zm26.53 2c-10.472 0-19 8.527-19 19v12a3 3 0 0 0 3 3h1v3a3 3 0 0 0 3 3h24a3 3 0 0 0 3-3v-3h1a3 3 0 0 0 3-3V27c0-10.473-8.527-19-19-19zm0 6c7.255 0 13 5.746 13 13v9h-1a3 3 0 0 0-3 3v3h-2v-1a3 3 0 0 0-3.03-3.063c-.801.008-1.567.336-2.125.91A3.025 3.025 0 0 0 45 41v1h-2v-1a3 3 0 0 0-3.032-3.063c-.8.008-1.566.336-2.125.91A3.025 3.025 0 0 0 37 41v1h-2v-3a3 3 0 0 0-3-3h-1v-9c0-7.254 5.746-13 13-13zm-6 9a3 3 0 1 0 .002 6.002A3 3 0 0 0 38 23zm12 0a3 3 0 1 0 .002 6.002A3 3 0 0 0 50 23zm-6 6l-3 4h6l-3-4zM11.376 46H12v.469L11.375 46zM76 46h.625l-.625.469V46zM6 49.469l20.188 15.03L6 83.876V49.469zm76 0v34.406L61.812 64.5 82 49.469zM31.062 68.125l11.156 8.281a3 3 0 0 0 3.562 0l11.156-8.281L77.656 88H10.342l20.719-19.875z"/>
</svg>
