<svg xmlns="http://www.w3.org/2000/svg" width="100" height="100" viewBox="0 0 100 100">
    <path fill="#FFF" fill-rule="evenodd" d="M82.352 85.293V16.176a2.94 2.94 0 0 1 2.941-2.941H97.06a2.94 2.94 0 0 1 2.942 2.941v69.117c0 .457-.106.907-.309 1.317l-5.883 11.766c-1.086 2.168-4.18 2.168-5.261 0L82.665 86.61a2.966 2.966 0 0 1-.313-1.317zm5.883-4.41v3.719l2.941 5.879 2.941-5.879v-3.719h-5.882zm0-5.883h5.882V30.883h-5.882V75zm0-50h5.882v-5.882h-5.882V25zM55.883 13.234h5.875a5.882 5.882 0 0 1 5.89 5.891v74.984c0 3.254-2.64 5.89-5.89 5.89H5.89A5.88 5.88 0 0 1 0 94.11V19.125a5.882 5.882 0 0 1 5.89-5.89h5.876v-1.47a5.873 5.873 0 0 1 5.879-5.882h6.832a12.94 12.94 0 0 1 1.113-1.766C27.492 1.582 30.258 0 33.824 0c3.567 0 6.332 1.582 8.235 4.117.449.602.816 1.196 1.109 1.766h6.836a5.873 5.873 0 0 1 5.879 5.883v1.468zm-44.117 5.883H5.89c-.008 0-.012 24.996-.008 74.992 0 .008 18.625.012 55.875.008 0 0 .004-24.996.008-74.992 0-.008-1.961-.012-5.883-.008v1.473a5.88 5.88 0 0 1-5.88 5.879H17.646a5.882 5.882 0 0 1-5.879-5.88v-1.472zm5.882-7.351v8.824H50v-8.824h-8.824a2.94 2.94 0 0 1-2.851-2.23c-.098-.388-.414-1.145-.973-1.888-.856-1.14-1.945-1.765-3.527-1.765s-2.676.625-3.532 1.765c-.554.743-.87 1.5-.968 1.887a2.941 2.941 0 0 1-2.856 2.23h-8.82zM41.101 63.16a2.942 2.942 0 0 1 4.16 4.16c-6.316 6.316-16.558 6.316-22.874 0a2.942 2.942 0 0 1 0-4.16 2.938 2.938 0 0 1 4.156 0c4.023 4.02 10.539 4.02 14.559 0zM25 54.41A4.408 4.408 0 0 1 20.59 50 4.408 4.408 0 0 1 25 45.59 4.408 4.408 0 0 1 29.41 50 4.408 4.408 0 0 1 25 54.41zm17.648 0a4.411 4.411 0 1 1 4.41-4.41 4.41 4.41 0 0 1-4.41 4.41z"/>
</svg>
