<svg height='100px' width='100px'  fill="#000000" xmlns="http://www.w3.org/2000/svg" data-name="Layer 1" viewBox="0 0 100 100" x="0px" y="0px"><title>19</title><g data-name="Group"><path data-name="Compound Path" d="M91.3,82.1V54.5a2.2,2.2,0,0,0-1.2-1.9L71.7,44.2V17.9a1.8,1.8,0,0,0-1.2-1.8L50.8,7a1.5,1.5,0,0,0-1.6,0L29.5,16.1a1.8,1.8,0,0,0-1.2,1.8V44.2L9.9,52.6a2.2,2.2,0,0,0-1.2,1.9V82.1a2,2,0,0,0,1.2,1.8L29.6,93l.8.2.9-.2L50,84.4,68.7,93l.9.2.8-.2,19.7-9.1A2,2,0,0,0,91.3,82.1ZM30.2,47.7l14.9,6.9L30.4,61.3,15.5,54.5ZM48,28.2V51.5L32.3,44.3V21Zm4,0L67.7,21V44.3L52,51.5ZM32.4,64.8,48,57.7V80.9L32.4,88.1ZM52,57.7l15.6,7.1V88.1L52,80.9Zm17.6,3.6L54.9,54.6l14.9-6.9,14.7,6.8ZM50,11l14.9,6.9L50,24.8,35.1,17.9ZM12.7,57.6l15.7,7.2V88.1L12.7,80.8ZM71.6,88.1V64.8l15.7-7.2V80.8Z"></path></g></svg>