<?xml version="1.0" encoding="UTF-8"?>
<svg width="724px" height="464px" viewBox="0 0 724 464" version="1.1" xmlns="http://www.w3.org/2000/svg" xmlns:xlink="http://www.w3.org/1999/xlink">
    <!-- Generator: Sketch 58 (84663) - https://sketch.com -->
    <title>construction_banner</title>
    <desc>Created with Sketch.</desc>
    <g id="Rivarly" stroke="none" stroke-width="1" fill="none" fill-rule="evenodd">
        <g id="MVP_Desktop_Rivalry_emtpyPage" transform="translate(-314.000000, -401.000000)">
            <g id="construction_banner" transform="translate(316.000000, 387.000000)">
                <g id="background" transform="translate(0.000000, 276.754053)" stroke="#5A626A" stroke-width="4">
                    <path d="M30.4578902,195 C-65.8249687,175.709984 83.6000448,0 297.334601,0 C511.069158,0 811.739099,8.25078261 691.649768,79 C571.560437,149.749217 126.740749,214.290016 30.4578902,195 Z" id="Path-3" fill-opacity="0" fill="#FFFFFF"></path>
                    <path d="M100.36093,30.2459469 L105.86093,45.2459469 L111.36093,30.2459469 M105.36093,45.2459469 L97.36093,40.2459469" id="Combined-Shape" stroke-linecap="round" stroke-linejoin="round"></path>
                    <path d="M665.86093,21.2459469 L671.36093,6.24594691 L665.86093,21.2459469 Z M665.36093,21.2459469 L661.36093,14.2387934" id="Combined-Shape-Copy" stroke-linecap="round" stroke-linejoin="round"></path>
                </g>
                <g id="Group" transform="translate(93.360930, 338.000000)">
                    <path d="M58.5038414,9.15309868 L49.2898,19.9233854 L32.9458,39.3293854 L25.9458,47.6731854 L20.2583,41.9543854 C19.0317,40.7277854 17.0474,40.7277854 15.8208,41.9543854 C14.5942,43.1809854 14.5942,45.1652854 15.8208,46.3918854 L21.6958,52.2668854 L6.7578,67.1728854 C4.9922,68.9306854 4,71.3212854 4,73.8134854 C4,76.3056854 4.99219,78.6962854 6.7578,80.4540854 C8.5156,82.2196854 10.9062,83.2118854 13.3984,83.2118854 C15.8906,83.2118854 18.2812,82.2196954 20.039,80.4540854 L34.945,65.5160854 L40.82,71.3910854 C41.40594,71.9809254 42.2067,72.3168654 43.0388,72.3168654 C43.8709,72.3168654 44.6716,71.9809254 45.2576,71.3910854 C45.84744,70.8051454 46.18338,70.0043854 46.18338,69.1722854 C46.18338,68.3401854 45.84744,67.5394854 45.2576,66.9534854 L39.5388,61.2659854 L49.2888,53.0784854 L65.6318,39.3293854 L81.6566881,25.5027126 C82.3637181,24.9167726 82.7738881,24.0457126 82.7816881,23.1277126 L73.0674235,14.129157 C73.0674235,13.301037 72.7393035,12.504157 72.1533635,11.918257 C71.5674235,11.332317 70.7705635,11.004197 69.9424635,11.004197 C62.7073155,9.29877812 58.8944414,8.68174534 58.5038414,9.15309868 Z M16.6374489,78.4992877 C15.4186489,79.7101877 12.0872523,81.4209469 8.54716454,77.7784485 C5.00707678,74.1359501 7.31413624,70.5310258 8.52503624,69.3123258 L23.8273096,54.8791568 L31.7824782,63.1126285 L16.6374489,78.4992877 Z M79.5330456,23.700536 L37.3481832,58.3753541 L28.7201073,49.5370849 L60.0087708,11.4866959 L74.8999234,14.1946353 L79.5330456,23.700536 Z" id="Fill-1" fill="#5A626A" transform="translate(43.390844, 46.105943) rotate(100.000000) translate(-43.390844, -46.105943) "></path>
                    <path d="M59.1798349,102.183601 L79.5118707,63.1717367 M50.9870858,88.8884791 L93.14208,75.4350969" id="Combined-Shape" stroke="#5A626A" stroke-width="4" stroke-linecap="round" stroke-linejoin="round"></path>
                </g>
                <g id="bus" transform="translate(487.360930, 86.000000) rotate(10.000000) translate(-487.360930, -86.000000) translate(415.360930, 12.000000)">
                    <path d="M2.93256779,77 C2.23734294,77.1323673 1.67485621,77.7627057 1.61796844,78.4623663 C0,96.2382854 0.00632625659,110.880505 1.61796844,128.737106 C1.68749092,129.272885 1.44099505,129.796061 1.31459936,130.300326 C0.587775574,130.439002 0.0126363335,131.12606 0,131.863545 L0,136.704481 C0,137.549128 0.771059039,138.318127 1.61796844,138.318127 L17.9497419,138.318127 C18.7334534,143.78306 23.4293156,148 29.1237555,148 C34.8181954,148 39.514187,143.78306 40.2977691,138.318127 L105.320685,138.318127 C106.104396,143.78306 110.800258,148 116.494698,148 C122.189138,148 126.88513,143.78306 127.668712,138.318127 L135.809035,138.318127 C140.049892,137.776039 143.924117,134.18316 144,130.249899 C143.873588,125.074938 143.993674,123.675585 144,120.568026 C144,118.481582 143.06462,116.685272 141.825774,115.273332 C139.120693,112.455746 136.004809,110.86098 132.269729,109.625573 C128.818926,99.6537276 121.196676,84.3623384 121.196676,84.3623384 C117.872237,79.76716 112.089294,77.0631742 106.786726,77 C71.3176218,77.0189926 34.8243437,77 2.9325597,77 L2.93256779,77 Z M4.57352076,80 C26.3579613,80 79.6241491,80.0189586 106.905841,80 C111.440342,80.4802421 115.63228,81.9650974 118.422793,85.6112364 C118.422793,85.6112364 126.57207,101.78754 129.736805,111.240973 C129.895342,111.740157 130.301239,112.144565 130.802242,112.302542 C134.302884,113.446256 136.972931,114.855325 139.630152,117.256536 C140.518025,118.267555 141,119.2975 141,120.441326 C141,125.824962 140.847795,125.155263 141,130.147109 C140.353123,132.914713 138.475908,134.229037 136.027959,135 L127.859687,135 C127.054273,129.540497 122.342304,125.294218 116.647307,125.294218 C110.952311,125.294218 106.240196,129.540497 105.434928,135 L40.1887593,135 C39.3833455,129.540497 34.6713765,125.294218 28.9763802,125.294218 C23.2813839,125.294218 18.5692688,129.540497 17.7640011,135 L3,135 L3,132.674656 C3.99567459,131.423516 4.59181625,129.951214 4.62352366,128.478847 C3.45026805,111.304465 3.3932012,94.0281718 4.57278855,80 L4.57352076,80 Z M9.53209673,88 C8.92591624,88.118752 8.41444539,88.606256 8.26922071,89.2 C6.57692643,95.90624 6.57692643,104.09376 8.26922071,110.8 C8.44603143,111.481248 9.12165596,112 9.83518697,112 L24.3835187,112 C25.2296497,112 26,111.237504 26,110.4 L26,89.6 C26,88.762496 25.2296497,88 24.3835187,88 L9.53209673,88 Z M29.3126872,88 C28.574415,88.137504 27.9875836,88.856256 28,89.6 L28,110.4 C28,111.237504 28.77002,112 29.6155689,112 L47.3846307,112 C48.2301796,112 49,111.237504 49,110.4 L49,89.6 C49,88.762496 48.2301796,88 47.3846307,88 L29.3118795,88 L29.3126872,88 Z M51.3126872,88 C50.574415,88.137504 49.9875836,88.856256 50,89.6 L50,110.4 C50,111.237504 50.77002,112 51.6155689,112 L69.3846307,112 C70.2301796,112 71,111.237504 71,110.4 L71,89.6 C71,88.762496 70.2301796,88 69.3846307,88 L51.3118795,88 L51.3126872,88 Z M74.3205032,88 C73.5778351,88.1400504 72.9875097,88.8721126 73,89.6296296 L73,130.37037 C73,131.223384 73.7746049,132 74.6251883,132 L97.3750126,132 C98.225596,132 99,131.223384 99,130.37037 L99,89.6296296 C99,88.7766163 98.225596,88 97.3750126,88 L74.3196907,88 L74.3205032,88 Z M101.320576,88.0009069 C100.577867,88.1384045 99.987509,88.8571231 100,89.6008325 L100,110.399866 C100,111.237331 100.774647,112 101.625277,112 L124.376349,112 C125.442805,112.018543 126.299789,110.768601 125.899858,109.799894 C122.649705,101.800266 119.431241,93.7750385 115.996967,88.7000744 C115.692265,88.2625907 115.165382,87.9938512 114.625808,88 L101.320494,88 L101.320576,88.0009069 Z M10.8653172,91 L22,91 L22,109 L10.8653172,109 C9.71156093,103.336709 9.71156093,96.6632909 10.8653172,91 Z M31,91 L46,91 L46,109 L31,109 L31,91 Z M53,91 L68,91 L68,109 L53,109 L53,91 Z M76,91 L95,91 L95,109 L76,109 L76,91 Z M103,91 L113.532609,91 C116.243165,95.2444 119.13447,101.943182 122,109 L103,109 L103,91 Z M76,113 L95,113 L95,129 L76,129 L76,113 Z M29,129 C33.43744,129 37,132.56256 37,137 C37,141.43744 33.43744,145 29,145 C24.56256,145 21,141.43744 21,137 C21,132.56256 24.56256,129 29,129 Z M116,129 C120.43744,129 124,132.56256 124,137 C124,141.43744 120.43744,145 116,145 C111.56256,145 108,141.43744 108,137 C108,132.56256 111.56256,129 116,129 Z" id="Fill-1" fill="#5A626A" transform="translate(72.000000, 112.500000) scale(-1, 1) translate(-72.000000, -112.500000) "></path>
                    <path d="M57,24 C57,31.6719 60.1055,36.527 63.2188,40.25 C66.3321,43.973 69.2227,46.625 70.0626,50.406 L70.0626,50.4685 L71.6876,57.031 C71.16026,57.11694 70.6876,57.406 70.3751,57.83959 C70.06651,58.27709 91.92989,58.26539 91.61348,57.83179 C91.29317,57.3982 90.8166,57.10913 90.28148,57.03101 L91.93768,50.46851 L91.93768,50.40601 C92.77752,46.62481 95.66818,43.97241 98.78148,40.25001 C101.89478,36.53121 105.00028,31.67191 105.00028,24 C105.00028,10.56201 94.20728,7.10542736e-14 81.00028,7.10542736e-14 C67.793,7.10542736e-14 57,10.562 57,24 Z M81,4 C81.49219,4 81.98438,4.02734 82.4688,4.0625 C87.3477,8.7148 89,13.293 89,18.0005 C89,23.0161 87.4023,28.2115 85.6875,33.4065 C84.0781,38.2893 82.3711,43.1448 82.0625,48.0005 L79.9375,48.0005 C79.62891,43.145 77.9219,38.2896 76.3125,33.4065 C74.5977,28.2112 73,23.0155 73,18.0005 C73,13.2935 74.6523,8.7153 79.5312,4.0625 C80.01558,4.02734 80.50776,4 81,4 Z M72.9375,5.6562 C70.1875,9.6679 69,13.8632 69,18.0002 C69,23.8479 70.7734,29.4222 72.5,34.6562 C74.0898,39.4765 75.5898,43.996 75.9062,48.0002 L73.4687,48.0002 C72.0039,43.6877 68.8632,40.7736 66.2812,37.6882 C63.3945,34.2351 61,30.6452 61,24.0002 C61,15.6174 65.8906,8.6882 72.938,5.6562 L72.9375,5.6562 Z M89.0625,5.6562 C96.1094,8.6874 101.0005,15.6171 101.0005,24.0002 C101.0005,30.6447 98.606,34.2382 95.7193,37.6882 C93.1373,40.7741 89.9966,43.6882 88.5318,48.0002 L86.0943,48.0002 C86.41071,43.9963 87.9107,39.4768 89.5005,34.6562 C91.2271,29.4218 93.0005,23.8472 93.0005,18.0002 C93.0005,13.8635 91.813,9.6682 89.063,5.6562 L89.0625,5.6562 Z M73.5625,50.0002 L88.4375,50.0002 L86.1875,56.0002 L75.8125,56.0002 L73.5625,50.0002 Z" id="Fill-1" fill="#5A626A"></path>
                    <path d="M89.5,57.5 L141,79 M89.5,57.5 L102.897711,77.9480135 M71.5,57.5 L33.2882824,79 M73,57.0002 L66.5114609,77.9480135" id="Combined-Shape" stroke="#5A626A" stroke-width="2" stroke-linecap="round" stroke-linejoin="round"></path>
                </g>
                <g id="construction" transform="translate(218.360930, 113.000000)">
                    <rect id="Rectangle" stroke="#5A626A" stroke-width="4" stroke-linejoin="round" x="0" y="74" width="252" height="70"></rect>
                    <polygon id="Rectangle-Copy" stroke="#5A626A" stroke-width="4" stroke-linejoin="round" points="29.3333333 144 58 144 43.6666667 258 15 258"></polygon>
                    <polygon id="Rectangle-Copy-6" stroke="#5A626A" stroke-width="4" fill="#141F2A" stroke-linejoin="round" points="29.3333333 144 58 144 43.6666667 258 15 258"></polygon>
                    <polygon id="Rectangle-Copy-2" stroke="#5A626A" stroke-width="4" stroke-linejoin="round" transform="translate(207.500000, 201.000000) scale(-1, 1) translate(-207.500000, -201.000000) " points="200.333333 144 229 144 214.666667 258 186 258"></polygon>
                    <polygon id="Rectangle-Copy-7" stroke="#5A626A" stroke-width="4" fill="#141F2A" stroke-linejoin="round" transform="translate(207.500000, 201.000000) scale(-1, 1) translate(-207.500000, -201.000000) " points="200.333333 144 229 144 214.666667 258 186 258"></polygon>
                    <path d="M137.842105,31 C140.603529,31 142.842105,33.2385763 142.842105,36 L142.842,53.523 L149,53.5238095 L149,74 L110,74 L110,53.5238095 L116.157,53.523 L116.157895,36 C116.157895,33.2385763 118.396471,31 121.157895,31 L137.842105,31 Z" id="Combined-Shape" stroke="#5A626A" stroke-width="4" stroke-linejoin="round"></path>
                    <path d="M238.962264,85 C239.514549,85 239.962264,85.4477153 239.962264,86 L239.962,86.03 L240,86.030303 C240.552285,86.030303 241,86.4780183 241,87.030303 L241,118 C241,118.552285 240.552285,119 240,119 L239.924528,119 C239.372244,119 238.924528,118.552285 238.924528,118 L238.924,87.06 L187,87.0606061 C186.447715,87.0606061 186,86.6128908 186,86.0606061 L186,86 C186,85.4477153 186.447715,85 187,85 L238.962264,85 Z" id="Combined-Shape" stroke="#5A626A" stroke-width="2" fill="#5A626A"></path>
                    <path d="M185.163754,114.50366 C186.719918,114.50366 187.962765,114.708636 188.892332,115.118594 C189.821899,115.528551 190.52767,116.293796 191.009668,117.414348 C191.491666,118.534901 191.732661,120.147378 191.732661,122.25183 C191.732661,124.356282 191.491666,125.96876 191.009668,127.089312 C190.52767,128.209864 189.821899,128.975108 188.892332,129.385066 C187.962765,129.795024 186.719918,130 185.163754,130 C183.60759,130 182.364744,129.795024 181.435177,129.385066 C180.50561,128.975108 179.799838,128.209864 179.317841,127.089312 C178.835843,125.96876 178.594848,124.356282 178.594848,122.25183 C178.594848,120.147378 178.835843,118.534901 179.317841,117.414348 C179.799838,116.293796 180.50561,115.528551 181.435177,115.118594 C182.364744,114.708636 183.60759,114.50366 185.163754,114.50366 Z M147.970936,114.50366 C149.113959,114.50366 150.108925,114.585651 150.955864,114.749634 C151.802803,114.913617 152.487917,115.104928 153.011229,115.323572 L153.011229,118.418741 C152.556774,118.323084 151.964615,118.241094 151.234732,118.172767 C150.50485,118.104441 149.713009,118.070278 148.859185,118.070278 C148.184388,118.070278 147.674855,118.16935 147.330571,118.367496 C146.986287,118.565643 146.734963,118.958513 146.576593,119.54612 C146.438018,120.060276 146.360071,120.815058 146.34275,121.810485 L146.339038,122.25183 C146.339038,123.413378 146.404451,124.28111 146.535279,124.855051 C146.666107,125.428993 146.910545,125.835528 147.2686,126.074671 C147.626656,126.313813 148.170616,126.433382 148.900498,126.433382 L150.038928,126.424272 C151.292117,126.403015 152.282877,126.344559 153.011229,126.248902 L153.011229,129.34407 C151.90952,129.781359 150.229439,130 147.970936,130 C146.703971,130 145.667692,129.795024 144.862067,129.385066 C144.056442,128.975108 143.433298,128.203032 142.992614,127.068814 C142.55193,125.934597 142.331592,124.315286 142.331592,122.210835 C142.331592,120.174709 142.562259,118.592978 143.023599,117.465593 C143.48494,116.338208 144.121856,115.562716 144.934366,115.139092 C145.746876,114.715469 146.759056,114.50366 147.970936,114.50366 Z M88.1484417,114.524158 C89.6632915,114.524158 91.2607454,114.722302 92.9408515,115.118594 L92.9408515,118.275256 C91.398459,118.152269 89.9662589,118.090776 88.6442083,118.090776 C87.9831829,118.090776 87.4874213,118.16935 87.1569087,118.326501 C86.826396,118.483651 86.6611421,118.780867 86.6611421,119.218155 L86.6611421,119.423133 C86.6611421,120.120062 87.1087047,120.468521 88.0038432,120.468521 L89.3672011,120.468521 C90.7581086,120.468521 91.8288159,120.851143 92.5793551,121.616398 C93.3298943,122.381653 93.7051582,123.379203 93.7051582,124.609078 L93.7051582,125.285505 C93.7051582,126.54271 93.4848198,127.516346 93.0441362,128.206442 C92.6034526,128.896538 91.9803079,129.367983 91.1746832,129.620791 C90.3690586,129.873598 89.3327792,130 88.065814,130 C86.3030797,130 84.6574267,129.801857 83.1288056,129.405564 L83.1288056,126.248902 C84.5059418,126.371889 86.082739,126.433382 87.8592446,126.433382 C88.561584,126.433382 89.0780023,126.354808 89.408515,126.197657 C89.7390277,126.040507 89.9042815,125.770622 89.9042815,125.387994 L89.9042815,125.14202 C89.9042815,124.85505 89.8009979,124.632992 89.5944274,124.475842 C89.387857,124.318691 89.1330906,124.240117 88.8301207,124.240117 L87.7353029,124.240117 C86.096511,124.240117 84.874321,123.881409 84.0686963,123.163982 C83.2630717,122.446556 82.8602654,121.288441 82.8602654,119.689605 L82.8602654,119.013177 C82.8602654,117.523663 83.3078279,116.403127 84.2029664,115.651537 C85.0981049,114.899947 86.4132502,114.524158 88.1484417,114.524158 Z M41.6393443,114.50366 C42.7823673,114.50366 43.7773332,114.585651 44.6242719,114.749634 C45.4712106,114.913617 46.1563256,115.104928 46.6796373,115.323572 L46.6796373,118.418741 C46.2251824,118.323084 45.6330227,118.241094 44.9031406,118.172767 C44.1732584,118.104441 43.381417,118.070278 42.5275926,118.070278 C41.8527959,118.070278 41.3432632,118.16935 40.9989792,118.367496 C40.6546951,118.565643 40.4033716,118.958513 40.2450009,119.54612 C40.1064266,120.060276 40.0284794,120.815058 40.0111579,121.810485 L40.0074461,122.25183 C40.0074461,123.413378 40.0728591,124.28111 40.203687,124.855051 C40.334515,125.428993 40.578953,125.835528 40.9370083,126.074671 C41.2950637,126.313813 41.8390244,126.433382 42.5689065,126.433382 L43.7073364,126.424272 C44.9605248,126.403015 45.9512853,126.344559 46.6796373,126.248902 L46.6796373,129.34407 C45.5779284,129.781359 43.8978475,130 41.6393443,130 C40.372379,130 39.3360996,129.795024 38.530475,129.385066 C37.7248504,128.975108 37.1017056,128.203032 36.661022,127.068814 C36.2203385,125.934597 36,124.315286 36,122.210835 C36,120.174709 36.2306668,118.592978 36.6920074,117.465593 C37.1533481,116.338208 37.790264,115.562716 38.6027743,115.139092 C39.4152846,114.715469 40.4274645,114.50366 41.6393443,114.50366 Z M56.3367561,114.50366 C57.89292,114.50366 59.1357667,114.708636 60.0653336,115.118594 C60.9949005,115.528551 61.7006721,116.293796 62.1826698,117.414348 C62.6646674,118.534901 62.9056626,120.147378 62.9056626,122.25183 C62.9056626,124.356282 62.6646674,125.96876 62.1826698,127.089312 C61.7006721,128.209864 60.9949005,128.975108 60.0653336,129.385066 C59.1357667,129.795024 57.89292,130 56.3367561,130 C54.7805923,130 53.5377456,129.795024 52.6081787,129.385066 C51.6786118,128.975108 50.9728401,128.209864 50.4908425,127.089312 C50.0088448,125.96876 49.7678496,124.356282 49.7678496,122.25183 C49.7678496,120.147378 50.0088448,118.534901 50.4908425,117.414348 C50.9728401,116.293796 51.6786118,115.528551 52.6081787,115.118594 C53.5377456,114.708636 54.7805923,114.50366 56.3367561,114.50366 Z M130.422867,114.647145 L130.422867,124.834553 C130.422867,125.353834 130.61222,125.746704 130.990933,126.013177 C131.369645,126.27965 131.917048,126.412884 132.633159,126.412884 C133.34927,126.412884 133.896673,126.27965 134.275386,126.013177 C134.654098,125.746704 134.843452,125.353834 134.843452,124.834553 L134.843452,114.647145 L138.850898,114.647145 L138.850898,124.855051 C138.850898,126.82285 138.303494,128.168859 137.208671,128.893119 C136.113848,129.617378 134.588692,129.979502 132.633159,129.979502 C130.677626,129.979502 129.15247,129.617378 128.057647,128.893119 C126.962824,128.168859 126.415421,126.82285 126.415421,124.855051 L126.415421,114.647145 L130.422867,114.647145 Z M174.907584,114.647145 L174.907584,129.877013 L170.900138,129.877013 L170.900138,114.647145 L174.907584,114.647145 Z M69.7740948,114.647145 L75.1655558,123.133236 L75.1655558,114.647145 L79.1730019,114.647145 L79.1730019,129.877013 L75.9918333,129.877013 L70.6003723,121.390922 L70.6003723,129.877013 L66.5929262,129.877013 L66.5929262,114.647145 L69.7740948,114.647145 Z M108.319942,114.647145 L108.319942,118.213763 L104.457095,118.213763 L104.457095,129.877013 L100.449649,129.877013 L100.449649,118.213763 L96.5868012,118.213763 L96.5868012,114.647145 L108.319942,114.647145 Z M118.142317,114.647145 C119.602081,114.647145 120.738201,115.033183 121.550712,115.805271 C122.363222,116.577359 122.769471,117.899454 122.769471,119.771596 C122.769471,120.946809 122.587003,121.845287 122.222062,122.467057 C121.857121,123.088827 121.344146,123.591018 120.68312,123.973646 L123.347865,129.877013 L119.278448,129.877013 L117.130127,124.629575 L115.601513,124.629575 L115.601513,129.877013 L111.594067,129.877013 L111.594067,114.647145 L118.142317,114.647145 Z M167.626013,114.647145 L167.626013,118.213763 L163.763166,118.213763 L163.763166,129.877013 L159.75572,129.877013 L159.75572,118.213763 L155.892872,118.213763 L155.892872,114.647145 L167.626013,114.647145 Z M198.601093,114.647145 L203.992554,123.133236 L203.992554,114.647145 L208,114.647145 L208,129.877013 L204.818831,129.877013 L199.42737,121.390922 L199.42737,129.877013 L195.419924,129.877013 L195.419924,114.647145 L198.601093,114.647145 Z M185.163754,118.070278 C184.447643,118.070278 183.910568,118.176182 183.552513,118.387994 C183.194458,118.599806 182.946577,118.996093 182.808863,119.576867 C182.67115,120.157641 182.602294,121.049286 182.602294,122.25183 C182.602294,123.413378 182.674592,124.287942 182.819192,124.875549 C182.963791,125.463156 183.211672,125.869691 183.562842,126.095168 C183.914011,126.320645 184.447643,126.433382 185.163754,126.433382 C185.879865,126.433382 186.413497,126.320645 186.764667,126.095168 C187.115837,125.869691 187.363718,125.463156 187.508317,124.875549 C187.652916,124.287942 187.725215,123.413378 187.725215,122.25183 C187.725215,121.049286 187.656359,120.157641 187.518645,119.576867 C187.380932,118.996093 187.133051,118.599806 186.774995,118.387994 C186.41694,118.176182 185.879865,118.070278 185.163754,118.070278 Z M56.3367561,118.070278 C55.6206454,118.070278 55.0835703,118.176182 54.7255149,118.387994 C54.3674595,118.599806 54.1195787,118.996093 53.9818651,119.576867 C53.8441515,120.157641 53.7752957,121.049286 53.7752957,122.25183 C53.7752957,123.413378 53.8475943,124.287942 53.9921936,124.875549 C54.1367929,125.463156 54.3846737,125.869691 54.7358434,126.095168 C55.0870131,126.320645 55.6206454,126.433382 56.3367561,126.433382 C57.0528669,126.433382 57.5864992,126.320645 57.9376689,126.095168 C58.2888386,125.869691 58.5367194,125.463156 58.6813187,124.875549 C58.825918,124.287942 58.8982165,123.413378 58.8982165,122.25183 C58.8982165,121.049286 58.8293608,120.157641 58.6916472,119.576867 C58.5539335,118.996093 58.3060528,118.599806 57.9479974,118.387994 C57.589942,118.176182 57.0528669,118.070278 56.3367561,118.070278 Z M117.419324,118.213763 L115.601513,118.213763 L115.601513,121.472914 L117.419324,121.472914 C117.873779,121.472914 118.211172,121.339679 118.431514,121.073206 C118.651856,120.806734 118.762025,120.3797 118.762025,119.792094 C118.762025,119.204487 118.655298,118.794535 118.441842,118.562225 C118.228386,118.329916 117.88755,118.213763 117.419324,118.213763 Z M137.79223,88 C140.271075,88 142.529544,88.102488 144.567706,88.3074671 L144.567706,91.6691069 L139.031646,91.6691069 C138.329307,91.6691069 137.978142,91.9697383 137.978142,92.5710102 L137.978142,93.8418741 L143.534859,94.0468521 L143.534859,97.2035139 L137.978142,97.4084919 L137.978142,98.556369 C137.978142,98.911666 138.057326,99.1781348 138.215697,99.3557833 C138.374068,99.5334318 138.590963,99.6222548 138.86639,99.6222548 L144.567706,99.6222548 L144.567706,102.983895 C143.713881,103.106882 142.684487,103.199121 141.479493,103.260615 C140.274499,103.322109 139.121165,103.352855 138.019456,103.352855 C135.320269,103.352855 133.970696,102.143497 133.970696,99.7247438 L133.970696,91.7715959 C133.970696,90.4187341 134.34596,89.4519307 135.096499,88.8711567 C135.847038,88.2903827 136.745606,88 137.79223,88 Z M88.990212,88 L88.990212,98.1874085 C88.990212,98.7066888 89.1795654,99.0995594 89.5582778,99.3660322 C89.9369902,99.632505 90.4843936,99.7657394 91.2005044,99.7657394 C91.9166152,99.7657394 92.4640186,99.632505 92.842731,99.3660322 C93.2214435,99.0995594 93.4107969,98.7066888 93.4107969,98.1874085 L93.4107969,88 L97.418243,88 L97.418243,98.2079063 C97.418243,100.175705 96.8708396,101.521714 95.7760163,102.245974 C94.6811931,102.970233 93.1560377,103.332357 91.2005044,103.332357 C89.2449711,103.332357 87.7198157,102.970233 86.6249925,102.245974 C85.5301693,101.521714 84.9827659,100.175705 84.9827659,98.2079063 L84.9827659,88 L88.990212,88 Z M124.726716,88 C126.79242,88 128.234949,88.6730045 129.054345,90.0190337 C129.873741,91.3650629 130.283432,93.2337606 130.283432,95.625183 C130.283432,98.2762456 129.828984,100.206436 128.920074,101.415813 C128.011165,102.625189 126.613392,103.229868 124.726716,103.229868 L117.95124,103.229868 L117.95124,88 L124.726716,88 Z M104.472588,88 L109.864049,96.4860908 L109.864049,88 L113.871495,88 L113.871495,103.229868 L110.690326,103.229868 L105.298865,94.7437775 L105.298865,103.229868 L101.291419,103.229868 L101.291419,88 L104.472588,88 Z M154.803219,88 C156.262983,88 157.399103,88.3860381 158.211614,89.1581259 C159.024124,89.9302137 159.430373,91.2523088 159.430373,93.124451 C159.430373,94.2996642 159.247905,95.1981423 158.882964,95.8199122 C158.518023,96.441682 158.005047,96.9438731 157.344022,97.3265007 L160.008767,103.229868 L155.93935,103.229868 L153.791029,97.9824305 L152.262415,97.9824305 L152.262415,103.229868 L148.254969,103.229868 L148.254969,88 L154.803219,88 Z M124.313577,91.5666179 L121.958686,91.5666179 L121.958686,99.6632504 L124.313577,99.6632504 C125.057227,99.6632504 125.570206,99.3557864 125.852519,98.7408492 C126.134832,98.125912 126.275986,97.087367 126.275986,95.625183 C126.275986,94.463635 126.200245,93.592487 126.04876,93.011713 C125.897275,92.430939 125.683822,92.0449009 125.408395,91.8535871 C125.132968,91.6622733 124.768032,91.5666179 124.313577,91.5666179 Z M154.080226,91.5666179 L152.262415,91.5666179 L152.262415,94.8257687 L154.080226,94.8257687 C154.534681,94.8257687 154.872074,94.6925343 155.092416,94.4260615 C155.312758,94.1595887 155.422927,93.7325554 155.422927,93.1449488 C155.422927,92.5573421 155.3162,92.1473901 155.102744,91.9150805 C154.889288,91.6827709 154.548452,91.5666179 154.080226,91.5666179 Z M148.886518,4.57392736 L151.654465,6.17078474 C152.372536,6.58390419 152.618651,7.50120864 152.204674,8.21878422 C152.204509,8.2190701 152.204344,8.21935592 152.203322,8.21914651 L144.409098,21.7088535 C143.993983,22.4253254 143.077119,22.6709983 142.359383,22.2580726 L139.591436,20.6612153 C138.873366,20.2480958 138.627251,19.3307914 139.041227,18.6132158 C139.041392,18.6129299 139.041557,18.6126441 139.04258,18.6128535 L146.836804,5.12314651 C147.251919,4.40667463 148.168783,4.16100168 148.886518,4.57392736 Z M107.871528,5.45961347 L117.89183,17.3922457 C118.425432,18.025934 118.343012,18.9720984 117.708599,19.5048392 C117.708312,19.5050805 117.708025,19.5053218 117.707014,19.5047005 L115.258907,21.5573411 C114.623708,22.08846 113.678186,22.0057376 113.144866,21.3723865 L103.124564,9.43975435 C102.590961,8.80606604 102.673382,7.85990165 103.307794,7.3271608 C103.308081,7.32691945 103.308369,7.32667821 103.30938,7.32729953 L105.757487,5.27465889 C106.392685,4.74353999 107.338207,4.82626241 107.871528,5.45961347 Z M130.5,0 C131.328427,-1.52179594e-16 132,0.671572875 132,1.5 L132,17.5 C132,18.3284271 131.328427,19 130.5,19 L127.5,19 C126.671573,19 126,18.3284271 126,17.5 L126,1.5 C126,0.671572875 126.671573,1.52179594e-16 127.5,0 L130.5,0 Z" id="Combined-Shape" fill="#5A626A"></path>
                </g>
            </g>
        </g>
    </g>
</svg>