<?xml version="1.0" encoding="UTF-8"?>
<svg width="24px" height="24px" viewBox="0 0 24 24" version="1.1" xmlns="http://www.w3.org/2000/svg" xmlns:xlink="http://www.w3.org/1999/xlink">
    <!-- Generator: Sketch 58 (84663) - https://sketch.com -->
    <title>games/all</title>
    <desc>Created with Sketch.</desc>
    <g id="games/all" stroke="none" stroke-width="1" fill="none" fill-rule="evenodd">
        <path d="M22,4 C23.1045695,4 24,4.8954305 24,6 L24,18 C24,19.1045695 23.1045695,20 22,20 L2,20 C0.8954305,20 1.3527075e-16,19.1045695 0,18 L0,6 C-1.3527075e-16,4.8954305 0.8954305,4 2,4 L22,4 Z M7.17855161,7.79347898 L4.59534101,7.79347898 L2.24696774,15.4929237 L4.37117811,15.4929237 L4.6807364,14.2701317 L7.06113295,14.2701317 L7.38136567,15.4929237 L9.52692488,15.4929237 L7.17855161,7.79347898 Z M12.619458,7.79347898 L10.5486197,7.79347898 L10.5486197,13.4929334 C10.5486197,14.1906883 10.7122926,14.6984528 11.0396432,15.0162421 C11.3669939,15.3340315 11.8900354,15.4929237 12.6087836,15.4929237 L12.6087836,15.4929237 L15.4802036,15.4929237 L15.4802036,13.6898236 L13.174528,13.6898236 C12.8044795,13.6898236 12.619458,13.5102062 12.619458,13.1509661 L12.619458,13.1509661 L12.619458,7.79347898 Z M18.7328531,7.79347898 L16.6620148,7.79347898 L16.6620148,13.4929334 C16.6620148,14.1906883 16.8256877,14.6984528 17.1530383,15.0162421 C17.480389,15.3340315 18.0034305,15.4929237 18.7221787,15.4929237 L18.7221787,15.4929237 L21.5935987,15.4929237 L21.5935987,13.6898236 L19.2879231,13.6898236 C18.9178746,13.6898236 18.7328531,13.5102062 18.7328531,13.1509661 L18.7328531,13.1509661 L18.7328531,7.79347898 Z M5.86559746,9.5033153 L6.58078387,12.4670316 L5.16108548,12.4670316 L5.86559746,9.5033153 Z" id="Combined-Shape" fill="#FFFFFF" fill-rule="nonzero"></path>
    </g>
</svg>