<?xml version="1.0" encoding="UTF-8"?>
<svg width="24px" height="24px" viewBox="0 0 24 24" version="1.1" xmlns="http://www.w3.org/2000/svg" xmlns:xlink="http://www.w3.org/1999/xlink">
    <!-- Generator: Sketch 58 (84663) - https://sketch.com -->
    <title>all_platforms</title>
    <desc>Created with Sketch.</desc>
    <g id="all_platforms" stroke="none" stroke-width="1" fill="none" fill-rule="evenodd">
        <path d="M2.91321825,6 L6.11775834,6 L9.03097659,15.3913043 L6.36935446,15.3913043 L5.97209742,13.8998186 L3.01915346,13.8998186 L2.63513833,15.3913043 L0,15.3913043 L2.91321825,6 Z M5.37621187,11.7005091 L4.48900449,8.08555211 L3.61503902,11.7005091 L5.37621187,11.7005091 Z M12.8541026,15.3913043 C11.9624768,15.3913043 11.3136302,15.1974974 10.9075432,14.8098777 C10.5014562,14.422258 10.2984157,13.8029184 10.2984157,12.9518404 L10.2984157,6 L12.8673445,6 L12.8673445,12.5347299 C12.8673445,12.9729087 13.0968685,13.1919949 13.5559234,13.1919949 L16.416174,13.1919949 L16.416174,15.3913043 L12.8541026,15.3913043 Z M20.4379286,15.3913043 C19.5463028,15.3913043 18.8974561,15.1974974 18.4913691,14.8098777 C18.0852821,14.422258 17.8822417,13.8029184 17.8822417,12.9518404 L17.8822417,6 L20.4511705,6 L20.4511705,12.5347299 C20.4511705,12.9729087 20.6806945,13.1919949 21.1397493,13.1919949 L24,13.1919949 L24,15.3913043 L20.4379286,15.3913043 Z" id="Combined-Shape" fill="#FFFFFF" fill-rule="nonzero"></path>
    </g>
</svg>