<?xml version="1.0" encoding="UTF-8"?>
<svg width="24px" height="24px" viewBox="0 0 24 24" version="1.1" xmlns="http://www.w3.org/2000/svg" xmlns:xlink="http://www.w3.org/1999/xlink">
    <!-- Generator: Sketch 58 (84663) - https://sketch.com -->
    <title>icons/backpack</title>
    <desc>Created with Sketch.</desc>
    <g id="icons/backpack" stroke="none" stroke-width="1" fill="none" fill-rule="evenodd">
        <path d="M10.0384476,2 C8.7030846,2.00109113 7.4222501,2.53194621 6.47707025,3.47707025 C5.53306246,4.42107804 5.00108834,5.70194045 5,7.03844764 L5,16.960464 C5.00109113,18.2969154 5.53306246,19.5777499 6.47707025,20.5218414 C7.42216638,21.4669375 8.70302879,21.9978233 10.0384476,22 L14.294129,22 C15.629492,21.9978205 16.9103265,21.4669375 17.8555064,20.5218414 C18.7995142,19.5778336 19.3314883,18.2969712 19.3325766,16.960464 L19.3325766,7.03844764 C19.3314855,5.70199626 18.7995142,4.42116176 17.8555064,3.47707025 C16.9104102,2.53197412 15.6295478,2.00108834 14.294129,2 L10.0384476,2 Z M17.8208366,16.480747 C17.8198872,17.5500083 17.4176907,18.5741697 16.7024844,19.3296305 C15.9872781,20.0852196 15.0169063,20.5101278 14.0058606,20.5121288 L10.3027076,20.5121288 C9.29154043,20.5101252 8.32213997,20.0852196 7.60608374,19.3296305 C6.89087742,18.5740414 6.48867858,17.54988 6.48773155,16.480747 L6.48773155,11.0192538 C6.86904703,11.7337707 7.42301443,12.3290219 8.09363722,12.7428989 C8.76426001,13.1577764 9.52689098,13.3762464 10.302829,13.3772469 L10.9449922,13.3772469 L10.9449922,14.7240851 C10.9449922,14.803251 10.9753459,14.8804133 11.0284649,14.9365315 C11.0815839,14.9926498 11.1536727,15.0247174 11.229557,15.0247174 L13.0792394,15.0247174 C13.1541742,15.0247174 13.227215,14.9926498 13.2803316,14.9365315 C13.3334481,14.8804133 13.3638043,14.803251 13.3638043,14.7240851 L13.3638043,13.3772469 L14.0059674,13.3772469 C14.7818812,13.3762464 15.5445121,13.1577841 16.2151592,12.7428989 C16.885782,12.3290219 17.4397494,11.7337707 17.8210649,11.0192538 L17.8208366,16.480747 Z M12.8882673,14.0555067 L11.4166667,14.0555067 L11.4166667,12 L12.8882673,12 L12.8882673,14.0555067 Z M17.7377483,7.16048163 L17.7377483,8.42357058 C17.7367913,9.39716121 17.3375442,10.3305372 16.6275824,11.0192823 C15.9176207,11.7088223 14.9543646,12.0960748 13.9507328,12.0969866 L13.3132786,12.0969866 L13.3132786,10.9042031 C13.3132786,10.832053 13.2831475,10.7617265 13.230418,10.7105839 C13.1776885,10.6594412 13.1051858,10.6302131 13.0308005,10.6302131 L11.1946817,10.6302131 C11.1193538,10.6302131 11.0477912,10.6594388 10.9950641,10.7105839 C10.9423371,10.7617289 10.9122035,10.832053 10.9122035,10.9042031 L10.9122035,12.0969866 L10.2747493,12.0969866 C9.27099699,12.0960725 8.30870509,11.7088223 7.59789967,11.0192823 C6.88793791,10.3306541 6.48868838,9.39725473 6.48774829,8.42357058 L6.48774829,7.16048163 C6.48869079,6.18597916 6.88793791,5.25257974 7.59789967,4.56406849 C8.30880151,3.87544034 9.27111751,3.48818783 10.2747493,3.48636415 L13.9507473,3.48636415 C14.9544996,3.48819251 15.9177557,3.87544034 16.6275969,4.56406849 C17.3375587,5.25269664 17.7368082,6.18609606 17.7377483,7.16048163 L17.7377483,7.16048163 Z" fill="#FFFFFF"></path>
    </g>
</svg>