<?xml version="1.0" encoding="UTF-8"?>
<svg width="24px" height="24px" viewBox="0 0 24 24" version="1.1" xmlns="http://www.w3.org/2000/svg" xmlns:xlink="http://www.w3.org/1999/xlink">
    <!-- Generator: Sketch 58 (84663) - https://sketch.com -->
    <title>icons/rivarly</title>
    <desc>Created with Sketch.</desc>
    <defs>
        <path d="M14.3701001,0.872269666 L14.561487,0.887967158 L19.1304348,1.42992996 L19.1304348,5.50891312 C19.1304348,6.23973094 18.8337867,6.93519539 18.3151479,7.43711514 L18.1682532,7.56908487 L7.62528943,16.3481691 L9.12586828,17.8606732 L8.12548238,18.8690092 L6.12400309,16.8523371 L4.12323128,18.8690092 L4.62342423,19.3731772 C3.83570877,20.1671527 2.58443755,20.2068515 1.75036651,19.4922736 L1.62226653,19.3731772 L0.621880628,18.3648412 C-0.165834834,17.5708657 -0.205220607,16.3096505 0.503723308,15.468951 L0.621880628,15.339833 L1.12207358,15.8440011 L3.12284538,13.827329 L1.12207358,11.8099438 L2.12245948,10.8016077 L3.62303833,12.3141118 L12.2083869,1.83925449 C12.7405178,1.19032535 13.5422805,0.834691371 14.3701001,0.872269666 Z M3.62303833,15.339833 L2.12245948,16.8523371 L3.12284538,17.8606732 L4.62342423,16.3481691 L3.62303833,15.339833 Z M17.3913043,12.173913 L17.9684219,13.3356662 L19.1304348,13.9126547 L17.9684219,14.4904208 L17.3913043,15.6521739 L16.8141868,14.4904208 L15.6521739,13.9126547 L16.8141868,13.3356662 L17.3913043,12.173913 Z M17.6305634,2.85614785 L13.6290198,2.85614785 L6.04405711,11.1938176 C5.28725881,12.0406345 5.28198273,13.1725577 6.00396562,14.0105897 L6.12400309,14.1403838 L17.6305634,2.85614785 Z M3.04347826,2.60869565 L4.05315217,4.6425 L6.08695652,5.65217391 L4.05315217,6.66184783 L3.04347826,8.69565217 L2.03380435,6.66184783 L1.9095836e-14,5.65217391 L2.03380435,4.6425 L3.04347826,2.60869565 Z M6.95652174,4.4408921e-16 L7.53363926,1.16175313 L8.69565217,1.73874163 L7.53363926,2.31650774 L6.95652174,3.47826087 L6.37940422,2.31650774 L5.2173913,1.73874163 L6.37940422,1.16175313 L6.95652174,4.4408921e-16 Z" id="path-1"></path>
        <rect id="path-3" x="0" y="0" width="54" height="50"></rect>
    </defs>
    <g id="icons/rivarly" stroke="none" stroke-width="1" fill="none" fill-rule="evenodd">
        <g id="🎨-Color" transform="translate(2.000000, 2.000000)">
            <mask id="mask-2" fill="white">
                <use xlink:href="#path-1"></use>
            </mask>
            <use id="Combined-Shape" fill="#FFFFFF" fill-rule="nonzero" xlink:href="#path-1"></use>
            <g id="Colors/White" mask="url(#mask-2)">
                <g transform="translate(-16.000000, -15.000000)">
                    <mask id="mask-4" fill="white">
                        <use xlink:href="#path-3"></use>
                    </mask>
                    <use id="White" stroke="none" fill="#FFFFFF" fill-rule="evenodd" xlink:href="#path-3"></use>
                </g>
            </g>
        </g>
    </g>
</svg>