<?xml version="1.0" encoding="UTF-8"?>
<svg width="52px" height="20px" viewBox="0 0 52 20" version="1.1" xmlns="http://www.w3.org/2000/svg" xmlns:xlink="http://www.w3.org/1999/xlink">
    <!-- Generator: Sketch 58 (84663) - https://sketch.com -->
    <title>Combined Shape</title>
    <desc>Created with Sketch.</desc>
    <g id="Rivarly" stroke="none" stroke-width="1" fill="none" fill-rule="evenodd">
        <g id="MVP_Desktop_Rivalry_emtpyPage" transform="translate(-187.000000, -88.000000)" fill="#33E4D8">
            <path d="M238.428571,88 L238.428571,108 L194.646653,108 L187,97.9454993 L194.646653,88 L238.428571,88 Z M195.571429,95.8571429 C194.387961,95.8571429 193.428571,96.8165327 193.428571,98 C193.428571,99.1834673 194.387961,100.142857 195.571429,100.142857 C196.754896,100.142857 197.714286,99.1834673 197.714286,98 C197.714286,96.8165327 196.754896,95.8571429 195.571429,95.8571429 Z M207.55,94.1414286 L210.63,94.1414286 C212.130007,94.1414286 212.88,94.801422 212.88,96.1214286 C212.88,96.5547641 212.795001,96.9064272 212.625,97.1764286 C212.454999,97.4464299 212.200002,97.6247615 211.86,97.7114286 C212.233335,97.8047624 212.534999,98.006427 212.765,98.3164286 C212.995001,98.6264301 213.11,99.0314261 213.11,99.5314286 C213.11,100.251432 212.918335,100.771427 212.535,101.091429 C212.151665,101.41143 211.566671,101.571429 210.78,101.571429 L207.55,101.571429 L207.55,94.1414286 Z M210.61,97.0614286 C210.750001,97.0614286 210.856666,97.0064291 210.93,96.8964286 C211.003334,96.786428 211.04,96.6447628 211.04,96.4714286 C211.04,96.2647609 210.998334,96.1147624 210.915,96.0214286 C210.831666,95.9280948 210.730001,95.8814286 210.61,95.8814286 L209.49,95.8814286 L209.49,97.0614286 L210.61,97.0614286 Z M210.72,99.8314286 C210.893334,99.8314286 211.028333,99.7730958 211.125,99.6564286 C211.221667,99.5397613 211.27,99.3814296 211.27,99.1814286 C211.27,98.9814276 211.221667,98.8230958 211.125,98.7064286 C211.028333,98.5897613 210.893334,98.5314286 210.72,98.5314286 L209.49,98.5314286 L209.49,99.8314286 L210.72,99.8314286 Z M215.94,101.631429 C214.633327,101.631429 213.98,101.041434 213.98,99.8614286 L213.98,95.9814286 C213.98,95.3214253 214.161665,94.8497633 214.525,94.5664286 C214.888335,94.2830938 215.323331,94.1414286 215.83,94.1414286 C217.030006,94.1414286 218.123328,94.1914281 219.11,94.2914286 L219.11,95.9314286 L216.43,95.9314286 C216.089998,95.9314286 215.92,96.0780938 215.92,96.3714286 L215.92,96.9914286 L218.61,97.0914286 L218.61,98.6314286 L215.92,98.7314286 L215.92,99.2914286 C215.92,99.4647628 215.958333,99.5947615 216.035,99.6814286 C216.111667,99.7680957 216.216666,99.8114286 216.35,99.8114286 L219.11,99.8114286 L219.11,101.451429 C218.696665,101.511429 218.198336,101.556428 217.615,101.586429 C217.031664,101.616429 216.473336,101.631429 215.94,101.631429 Z M221.5,95.8814286 L219.63,95.8814286 L219.63,94.1414286 L225.31,94.1414286 L225.31,95.8814286 L223.44,95.8814286 L223.44,101.571429 L221.5,101.571429 L221.5,95.8814286 Z M227.72,94.1414286 L230.14,94.1414286 L232.34,101.571429 L230.33,101.571429 L230.03,100.391429 L227.8,100.391429 L227.51,101.571429 L225.52,101.571429 L227.72,94.1414286 Z M229.58,98.6514286 L228.25,98.6514286 L228.91,95.7914286 L229.58,98.6514286 Z" id="Combined-Shape"></path>
        </g>
    </g>
</svg>