<?xml version="1.0" encoding="UTF-8"?>
<svg width="22px" height="24px" viewBox="0 0 22 24" version="1.1" xmlns="http://www.w3.org/2000/svg" xmlns:xlink="http://www.w3.org/1999/xlink">
    <!-- Generator: Sketch 58 (84663) - https://sketch.com -->
    <title>Mask</title>
    <desc>Created with Sketch.</desc>
    <defs>
        <path d="M19.4228571,0 C20.8434286,0 22,1.104 22,2.472 L22,2.472 L22,24 L19.2971429,21.72 L17.776,20.376 L16.1668571,18.948 L16.8331429,21.168 L2.57714286,21.168 C1.15657143,21.168 0,20.064 0,18.696 L0,18.696 L0,2.472 C0,1.104 1.15657143,0 2.57714286,0 L2.57714286,0 Z M9.07657143,5.59190028 C9.07657143,5.59190028 7.35428571,5.556 5.544,6.852 C5.544,6.852 3.73371429,9.984 3.73371429,13.848 C3.73371429,13.848 4.78971429,15.588 7.568,15.672 C7.568,15.672 8.03314286,15.132 8.41028571,14.676 C6.81371429,14.22 6.21028571,13.26 6.21028571,13.26 C6.21028571,13.26 6.336,13.344 6.56228571,13.464 C6.57485714,13.476 6.58742857,13.488 6.61257143,13.5 C6.65028571,13.524 6.688,13.536 6.72571429,13.56 C7.04,13.728 7.35428571,13.86 7.64342857,13.968 C8.15885714,14.16 8.77485714,14.352 9.49142857,14.484 C10.4342857,14.652 11.5405714,14.712 12.7474286,14.496 C13.3382857,14.4 13.9417143,14.232 14.5702857,13.98 C15.0102857,13.824 15.5005714,13.596 16.016,13.272 C16.016,13.272 15.3874286,14.256 13.7405714,14.7 C14.1177143,15.156 14.5702857,15.672 14.5702857,15.672 C17.3485714,15.588 18.4171429,13.848 18.4171429,13.848 C18.4171429,9.984 16.6068571,6.852 16.6068571,6.852 C14.9214187,5.64537931 13.3122609,5.59328336 13.0983245,5.59183669 L13.0742857,5.59190028 L12.8982857,5.784 C15.0354286,6.408 16.0285714,7.308 16.0285714,7.308 C14.7211429,6.624 13.4388571,6.288 12.2445714,6.156 C11.3394286,6.06 10.472,6.084 9.70514286,6.18 C9.62971429,6.18 9.56685714,6.192 9.49142857,6.204 C9.05142857,6.24 7.98285714,6.396 6.63771429,6.96 C6.17257143,7.164 5.896,7.308 5.896,7.308 C5.896,7.308 6.93942857,6.36 9.20228571,5.736 L9.20228571,5.736 Z M9.15919064,10.068 C9.74055347,10.068 10.2097235,10.668 10.1995241,11.4 C10.1995241,12.132 9.74055347,12.732 9.15919064,12.732 C8.58802715,12.732 8.11885714,12.132 8.11885714,11.4 C8.11885714,10.668 8.5778278,10.068 9.15919064,10.068 Z M12.8819526,10.068 C13.4633155,10.068 13.9222861,10.668 13.9222861,11.4 C13.9222861,12.132 13.4633155,12.732 12.8819526,12.732 C12.3107892,12.732 11.8416192,12.132 11.8416192,11.4 C11.8416192,10.668 12.3005898,10.068 12.8819526,10.068 Z" id="path-1"></path>
    </defs>
    <g id="Symbols" stroke="none" stroke-width="1" fill="none" fill-rule="evenodd">
        <g id="icons/discord">
            <g id="🎨-Color">
                <mask id="mask-2" fill="white">
                    <use xlink:href="#path-1"></use>
                </mask>
                <use id="Mask" fill="#FFFFFF" fill-rule="nonzero" xlink:href="#path-1"></use>
            </g>
        </g>
    </g>
</svg>