<?xml version="1.0" encoding="UTF-8"?>
<svg width="24px" height="24px" viewBox="0 0 24 24" version="1.1" xmlns="http://www.w3.org/2000/svg" xmlns:xlink="http://www.w3.org/1999/xlink">
    <!-- Generator: Sketch 58 (84663) - https://sketch.com -->
    <title>icons/emote</title>
    <desc>Created with Sketch.</desc>
    <g id="icons/emote" stroke="none" stroke-width="1" fill="none" fill-rule="evenodd">
        <g transform="translate(2.000000, 2.000000)" fill="#FFFFFF" id="Group">
            <g transform="translate(0.242080, 0.077000)">
                <path d="M9.99999996e-05,6.57979167 C9.99999996e-05,6.40319583 0.14414375,6.25914583 0.320745833,6.25914583 L0.596620833,6.25914583 C0.776470833,6.25914583 0.917266667,6.40318958 0.917266667,6.57979167 C0.917266667,6.75639375 0.776479167,6.9004375 0.596620833,6.9004375 L0.320745833,6.9004375 C0.14415,6.9004375 9.99999996e-05,6.75639375 9.99999996e-05,6.57979167 Z" id="Fill-1"></path>
                <path d="M5.38493333,10.9872917 C5.20508333,10.9872917 5.0642875,10.8432479 5.0642875,10.6666458 C5.0642875,10.49005 5.205075,10.346 5.38493333,10.346 L5.66080833,10.346 C5.83740417,10.346 5.98145417,10.4900438 5.98145417,10.6666458 C5.98145417,10.8432417 5.83741042,10.9872917 5.66080833,10.9872917 L5.38493333,10.9872917 Z" id="Fill-2"></path>
                <path d="M18.6255583,6.13791667 C18.6255583,6.31776667 18.4815146,6.4585625 18.3049125,6.4585625 L18.0290375,6.4585625 C17.8524417,6.4585625 17.7083917,6.317775 17.7083917,6.13791667 C17.7083917,5.96132083 17.8524354,5.81727083 18.0290375,5.81727083 L18.3049125,5.81727083 C18.4806938,5.81727083 18.6255583,5.96131458 18.6255583,6.13791667 Z" id="Fill-3"></path>
                <path d="M8.05430833,2.4675 C8.05430833,1.10845833 9.16026667,0 10.5193083,0 C11.87835,0 12.9843083,1.10920833 12.9843083,2.46833333 C12.9843083,3.82745833 11.87835,4.93333333 10.5193083,4.93333333 C9.16026667,4.93251875 8.05430833,3.8265625 8.05430833,2.4675 Z" id="Fill-4"></path>
                <path d="M14.39785,0.839958333 C14.39785,0.6633625 14.5386375,0.5193125 14.7184958,0.5193125 L14.9943708,0.5193125 C15.1709667,0.5193125 15.3150167,0.66335625 15.3150167,0.839958333 C15.3150167,1.01656042 15.1709729,1.16060417 14.9943708,1.16060417 L14.7184958,1.16060417 C14.5386458,1.15978958 14.39785,1.01574792 14.39785,0.839958333 Z" id="Fill-5"></path>
                <path d="M0.137620833,0.839958333 C0.137620833,0.6633625 0.281664583,0.5193125 0.458266667,0.5193125 L0.734141667,0.5193125 C0.9107375,0.5193125 1.0547875,0.66335625 1.0547875,0.839958333 C1.0547875,1.01656042 0.91074375,1.16060417 0.734141667,1.16060417 L0.458266667,1.15978958 C0.282485417,1.15978958 0.137620833,1.01574583 0.137620833,0.83995625 L0.137620833,0.839958333 Z" id="Fill-6"></path>
                <path d="M5.20201667,2.14770833 C5.20201667,1.9711125 5.34280417,1.8270625 5.5226625,1.8270625 L5.7952875,1.8270625 C5.9751375,1.8270625 6.11593333,1.97110625 6.11593333,2.14770833 C6.11593333,2.32430417 5.97514583,2.46835417 5.7952875,2.46835417 L5.5226625,2.46835417 C5.34362708,2.46753958 5.20201667,2.32349792 5.20201667,2.14770833 Z" id="Fill-7"></path>
                <path d="M3.9266,10.416875 L2.89470417,10.9841042 L2.327475,12.016 C2.27295,12.1185396 2.1639,12.1828292 2.04835,12.1828292 C1.92953542,12.1828292 1.820475,12.1185396 1.76595417,12.016 L1.20199583,10.9841042 L0.166829167,10.416875 C0.0642895833,10.36235 -4.12114787e-13,10.2533 -4.12114787e-13,10.13775 C-4.12114787e-13,10.0189354 0.0642895833,9.909875 0.166829167,9.85535417 L1.20199583,9.29139583 L1.76595417,8.25622917 C1.87825833,8.05115 2.21435,8.05115 2.3266625,8.25622917 L2.89389167,9.29139583 L3.9266,9.85616667 C4.02913958,9.91069167 4.09342917,10.0197417 4.09342917,10.1385625 C4.09342917,10.2533083 4.02913958,10.3623542 3.9266,10.416875 Z" id="Fill-8"></path>
                <path d="M17.2820167,11.5708333 C17.5139542,12.3520833 16.9345167,13.1601875 16.0930583,13.1601875 C15.5453708,13.1601875 15.0709333,12.8078125 14.9106,12.2853542 L13.974725,9.22472917 C13.8559104,8.83979167 13.5580583,8.5354375 13.1731208,8.4141875 L13.1731208,11.0550208 L13.9682042,13.3783542 C14.6623708,15.4128542 14.762475,16.8021042 15.0294125,18.2083542 C15.1791521,19.0872708 14.4914958,19.8717706 13.62235,19.8717706 C12.9013292,19.8717706 12.3080583,19.372104 12.1900583,18.6828125 C11.8384958,16.8232708 11.7782667,15.5936458 11.1166625,13.7307292 L10.607225,12.300875 L8.01764167,14.3329375 C7.65224583,14.6185833 7.38614167,15.0222292 7.26405833,15.467375 L6.3566625,18.8169579 C6.18901875,19.4395204 5.62180833,19.8717706 4.97807917,19.8717706 C4.02430833,19.8717706 3.33745417,18.9601871 3.60601667,18.0446667 L4.6314125,14.5413333 C4.99030833,13.310875 5.78539167,12.256125 6.86537083,11.5669583 L7.8622875,10.9321875 L7.8622875,7.85510417 L6.17607917,7.78755833 C5.62757917,7.76477083 5.11162083,7.537725 4.72099583,7.1495375 L1.51307917,3.93912083 C1.27626667,3.70474583 1.14768333,3.39143333 1.1508732,3.0610375 C1.1508732,2.72737083 1.28195625,2.41649583 1.51957917,2.18295417 C1.99076667,1.7215375 2.79805833,1.7247875 3.26355833,2.18946458 L6.05814167,4.98404792 C6.23148125,5.15413333 6.46830833,5.25342292 6.70918333,5.25342292 L11.9110583,5.25342292 C13.3807875,5.25342292 14.146475,6.04931875 15.0075167,6.48715208 C15.612975,6.84929792 16.0589542,7.41977708 16.2575167,8.09929792 L17.2820167,11.5708333 Z" id="Fill-9"></path>
                <path d="M18.7630583,2.93541667 C18.7630583,3.05097708 18.6987687,3.16002083 18.5962292,3.21454167 L17.5643333,3.78177083 L16.9971042,4.81366667 C16.9425792,4.91620625 16.8335292,4.98049583 16.7179792,4.98049583 C16.5991646,4.98049583 16.493375,4.91620625 16.4355833,4.81366667 L15.871625,3.78177083 L14.8397292,3.21454167 C14.7339354,3.16001667 14.6729,3.05096667 14.6729,2.93541667 C14.6729,2.81660208 14.7339354,2.70754167 14.8397292,2.65302083 L15.871625,2.0890625 L16.4363958,1.05472917 C16.5487,0.84965 16.8847917,0.84965 16.9971042,1.05472917 L17.5643333,2.08989583 L18.5962292,2.65385417 C18.6987687,2.70837917 18.7630583,2.81742917 18.7630583,2.9354375 L18.7630583,2.93541667 Z" id="Fill-10"></path>
            </g>
        </g>
    </g>
</svg>