<svg xmlns="http://www.w3.org/2000/svg" xmlns:xlink="http://www.w3.org/1999/xlink" width="30" height="30" viewBox="0 0 30 30">
    <defs>
        <circle id="a" cx="15" cy="15" r="15"/>
    </defs>
    <g fill="none" fill-rule="evenodd">
        <mask id="b" fill="#fff">
            <use xlink:href="#a"/>
        </mask>
        <use fill="#D8D8D8" xlink:href="#a"/>
        <g fill-rule="nonzero" mask="url(#b)">
            <path fill="#4758A9" d="M1.763.141C.823.141.067.898.067 1.837v26.426c0 .94.757 1.696 1.696 1.696H28.19c.94 0 1.696-.757 1.696-1.696V1.837c0-.94-.756-1.696-1.696-1.696H1.763z"/>
            <path fill="#CF142B" d="M.067 5.144V7.74l12.661 7.31-12.66 7.31v2.595l14.908-8.607 14.909 8.607V22.36l-12.661-7.31 12.66-7.31V5.144l-14.908 8.608z"/>
            <path fill="#ED5564" d="M12.412.141v12.345H.067v5.128h12.345v12.345h5.128V17.614h12.345v-5.128H17.54V.14h-2.473z"/>
            <path fill="#F0F0F0" d="M11.914.141v11.267L.067 4.568V5.72l10.855 6.267H8.421L.067 7.164v1.152l6.36 3.671H.066v.997H11.185c.679 0 1.095-.028 1.726-.028V.141h-.997zm5.128 0V12.99c.608 0 1.176-.005 1.725-.005h11.118v-.997h-6.36l6.36-3.671V7.164l-8.354 4.823h-2.5L29.884 5.72V4.57l-11.846 6.84V.14h-.997zM12.91 17.127c-.575 0-1.176-.012-1.726-.012H.067v.997h6.36l-6.36 3.672v1.151l8.354-4.823h2.501L.067 24.38v1.152l11.847-6.84V29.96h.997V17.127zm4.13 0V29.96h.998V18.692l11.846 6.839v-1.152L19.03 18.112h2.501l8.354 4.823v-1.151l-6.36-3.672h6.36v-.997H18.767c-.63 0-1.725.012-1.725.012z"/>
        </g>
    </g>
</svg>
