<?xml version="1.0" encoding="UTF-8"?>
<svg width="24px" height="24px" viewBox="0 0 24 24" version="1.1" xmlns="http://www.w3.org/2000/svg" xmlns:xlink="http://www.w3.org/1999/xlink">
    <!-- Generator: Sketch 58 (84663) - https://sketch.com -->
    <title>icons/feedback</title>
    <desc>Created with Sketch.</desc>
    <g id="icons/feedback" stroke="none" stroke-width="1" fill="none" fill-rule="evenodd">
        <g id="feedback" transform="translate(2.000000, 2.000000)" fill="#FFFFFF">
            <path d="M16.318523,-1.42108547e-14 C17.9575052,-1.42108547e-14 19.2858185,1.32839347 19.2858185,2.9672955 L19.2858185,12.6102048 C19.2858185,14.2484058 17.9574251,15.5766992 16.318523,15.5766992 L10.3845329,15.5766992 L6.47593818,19.7644792 C6.1966527,20.0641128 5.72724482,20.0797544 5.42761126,19.8004669 C5.27740394,19.6604296 5.19212624,19.4640626 5.19212624,19.2583186 L5.1921663,15.5766992 L2.9672955,15.5766992 C1.32831336,15.5766992 -1.38555833e-13,14.2483057 -1.38555833e-13,12.6102048 L-1.38555833e-13,2.9672955 C-1.38555833e-13,1.32831336 1.32839347,-1.42108547e-14 2.9672955,-1.42108547e-14 L16.318523,-1.42108547e-14 Z M14.4167582,4.85972746 C13.3308594,3.78402276 11.5722321,3.78402276 10.4871345,4.85972746 L10.4871345,4.85972746 L9.64284919,5.69604175 L8.79872412,4.85972746 C7.71362645,3.78402276 5.95497914,3.78402276 4.8691004,4.85972746 C3.7816595,5.93781545 3.7816595,7.68704977 4.8691004,8.76431663 L4.8691004,8.76431663 L8.80192854,12.661095 C9.26662993,13.1226721 10.0192287,13.1226721 10.4839301,12.661095 L10.4839301,12.661095 L14.4167582,8.76431663 C15.5041991,7.68702974 15.5041991,5.9377754 14.4167582,4.85972746 Z" id="Combined-Shape"></path>
        </g>
    </g>
</svg>