<svg xmlns="http://www.w3.org/2000/svg" width="24" height="24" viewBox="0 0 24 24">
    <g fill="none" fill-rule="evenodd">
        <path d="M0 0h24v24H0z"/>
        <path fill="#FFF" fill-rule="nonzero" d="M2.705 3.024l17.725-.001c.528 0 .856.575.588 1.03l-7.405 9.879v6.136a.682.682 0 0 1-.377.61L10.51 22.04a.682.682 0 0 1-.986-.61v-7.499l-7.405-9.88a.682.682 0 0 1 .587-1.028zm2.104 1.85l6.128 8.222a.638.638 0 0 1 .084.317v6.006l1.213-.622v-5.384c0-.111.028-.22.083-.317l6.129-8.222H4.809z"/>
    </g>
</svg>
