<svg xmlns="http://www.w3.org/2000/svg" width="24" height="17" viewBox="0 0 24 17">
    <g fill="#FFF" fill-rule="evenodd">
        <path d="M22.86 6.469C22.332 2.78 19.126 0 15.4 0H8.6C4.875 0 1.668 2.78 1.14 6.469l-.852 5.97c-.013.089-.009.267-.009.364a3.946 3.946 0 0 0 3.942 3.941 3.919 3.919 0 0 0 3.526-2.179l1.422-2.844h5.662l1.423 2.844a3.919 3.919 0 0 0 3.525 2.18 3.946 3.946 0 0 0 3.942-3.942c0-.097.005-.276-.008-.363l-.853-5.971zm-.814 6.333a2.27 2.27 0 0 1-2.267 2.268c-.864 0-1.642-.481-2.028-1.254l-1.653-3.307a.837.837 0 0 0-.75-.463H8.652a.837.837 0 0 0-.749.463L6.25 13.816A2.254 2.254 0 0 1 4.22 15.07a2.27 2.27 0 0 1-2.268-2.268l.844-6.096C3.208 3.838 5.702 1.674 8.6 1.674h6.8c2.898 0 5.392 2.164 5.802 5.032l.844 5.911v.185z"/>
        <path d="M10.326 5.86a.837.837 0 0 1-.838.838h-.837v.837a.837.837 0 0 1-1.674 0v-.837H6.14a.837.837 0 0 1 0-1.675h.837v-.837a.837.837 0 0 1 1.674 0v.837h.837c.463 0 .838.375.838.837zM15.349 5.86a.837.837 0 1 1-1.675 0 .837.837 0 0 1 1.675 0zM17.023 7.535a.837.837 0 1 1-1.675 0 .837.837 0 0 1 1.675 0zM18.698 5.86a.837.837 0 1 1-1.675 0 .837.837 0 0 1 1.675 0zM15.349 4.186a.837.837 0 1 1 1.675 0 .837.837 0 0 1-1.675 0z"/>
    </g>
</svg>
