<?xml version="1.0" encoding="UTF-8"?>
<svg width="265px" height="56px" viewBox="0 0 265 56" version="1.1" xmlns="http://www.w3.org/2000/svg" xmlns:xlink="http://www.w3.org/1999/xlink">
    <!-- Generator: Sketch 57.1 (83088) - https://sketch.com -->
    <title>component/label-6</title>
    <desc>Created with Sketch.</desc>
    <g id="component/label-6" stroke="none" stroke-width="1" fill="none" fill-rule="evenodd">
        <g>
            <polygon id="Rectangle" fill="#FFFFFF" points="4.65804825 5.16558327 259.227351 0 265 56 0 56"></polygon>
            <polygon id="Rectangle-Copy-2" fill="#00F570" points="10.5100511 11.5 255.260671 9 260 46.4610027 5 49"></polygon>
        </g>
        <path d="M36.99,25.938 C36.99,24.7499941 37.3169967,23.9010026 37.971,23.391 C38.6250033,22.8809974 39.4079954,22.626 40.32,22.626 C42.8520127,22.626 44.819993,22.721999 46.224,22.914 L46.224,25.848 L41.328,25.848 C41.0399986,25.848 40.8270007,25.9229993 40.689,26.073 C40.5509993,26.2230007 40.482,26.399999 40.482,26.604 L40.482,28.116 L45.324,28.296 L45.324,31.068 L40.482,31.248 L40.482,36 L36.99,36 L36.99,25.938 Z M49.734,22.626 L54.09,22.626 L58.05,36 L54.432,36 L53.892,33.876 L49.878,33.876 L49.356,36 L45.774,36 L49.734,22.626 Z M53.082,30.744 L51.876,25.596 L50.688,30.744 L53.082,30.744 Z M57.6,22.626 L61.218,22.626 L63.756,32.202 L66.294,22.626 L69.876,22.626 L65.916,36 L61.56,36 L57.6,22.626 Z M79.65,36.108 C78.114,36.108 76.6800067,35.9340017 75.348,35.586 L75.348,32.814 C76.548006,32.9220005 77.9219923,32.976 79.47,32.976 C80.0820031,32.976 80.5319986,32.9070007 80.82,32.769 C81.1080014,32.6309993 81.252,32.3940017 81.252,32.058 L81.252,31.842 C81.252,31.5899987 81.1620009,31.3950007 80.982,31.257 C80.8019991,31.1189993 80.5800013,31.05 80.316,31.05 L79.362,31.05 C77.9339929,31.05 76.8690035,30.7350032 76.167,30.105 C75.4649965,29.4749969 75.114,28.458007 75.114,27.054 L75.114,26.46 C75.114,25.1519935 75.5039961,24.1680033 76.284,23.508 C77.0640039,22.8479967 78.2099924,22.518 79.722,22.518 C81.0420066,22.518 82.4339927,22.6919983 83.898,23.04 L83.898,25.812 C82.5539933,25.7039995 81.3060058,25.65 80.154,25.65 C79.5779971,25.65 79.1460014,25.7189993 78.858,25.857 C78.5699986,25.9950007 78.426,26.2559981 78.426,26.64 L78.426,26.82 C78.426,27.4320031 78.8159961,27.738 79.596,27.738 L80.784,27.738 C81.9960061,27.738 82.9289967,28.0739966 83.583,28.746 C84.2370033,29.4180034 84.564,30.2939946 84.564,31.374 L84.564,31.968 C84.564,33.0720055 84.3720019,33.926997 83.988,34.533 C83.6039981,35.139003 83.0610035,35.5529989 82.359,35.775 C81.6569965,35.9970011 80.7540055,36.108 79.65,36.108 Z M88.866,25.758 L85.5,25.758 L85.5,22.626 L95.724,22.626 L95.724,25.758 L92.358,25.758 L92.358,36 L88.866,36 L88.866,25.758 Z M97.002,22.626 L102.708,22.626 C103.980006,22.626 104.969996,22.9649966 105.678,23.643 C106.386004,24.3210034 106.74,25.4819918 106.74,27.126 C106.74,28.1580052 106.581002,28.9469973 106.263,29.493 C105.944998,30.0390027 105.498003,30.4799983 104.922,30.816 L107.244,36 L103.698,36 L101.826,31.392 L100.494,31.392 L100.494,36 L97.002,36 L97.002,22.626 Z M102.078,28.62 C102.474002,28.62 102.767999,28.5030012 102.96,28.269 C103.152001,28.0349988 103.248,27.6600026 103.248,27.144 C103.248,26.6279974 103.155001,26.268001 102.969,26.064 C102.782999,25.859999 102.486002,25.758 102.078,25.758 L100.494,25.758 L100.494,28.62 L102.078,28.62 Z M112.05,36.108 C109.697988,36.108 108.522,35.0460106 108.522,32.922 L108.522,25.938 C108.522,24.7499941 108.848997,23.9010026 109.503,23.391 C110.157003,22.8809974 110.939995,22.626 111.852,22.626 C114.012011,22.626 115.979991,22.7159991 117.756,22.896 L117.756,25.848 L112.932,25.848 C112.319997,25.848 112.014,26.1119974 112.014,26.64 L112.014,27.756 L116.856,27.936 L116.856,30.708 L112.014,30.888 L112.014,31.896 C112.014,32.2080016 112.082999,32.4419992 112.221,32.598 C112.359001,32.7540008 112.547999,32.832 112.788,32.832 L117.756,32.832 L117.756,35.784 C117.011996,35.8920005 116.115005,35.9729997 115.065,36.027 C114.014995,36.0810003 113.010005,36.108 112.05,36.108 Z M122.454,22.626 L126.81,22.626 L130.77,36 L127.152,36 L126.612,33.876 L122.598,33.876 L122.076,36 L118.494,36 L122.454,22.626 Z M125.802,30.744 L124.596,25.596 L123.408,30.744 L125.802,30.744 Z M143.334,36 L142.47,28.782 L140.706,36 L137.43,36 L135.684,28.944 L134.856,36 L131.49,36 L133.074,22.626 L136.35,22.626 L139.104,32.022 L141.858,22.626 L145.098,22.626 L146.7,36 L143.334,36 Z M151.488,36.108 C149.135988,36.108 147.96,35.0460106 147.96,32.922 L147.96,25.938 C147.96,24.7499941 148.286997,23.9010026 148.941,23.391 C149.595003,22.8809974 150.377995,22.626 151.29,22.626 C153.450011,22.626 155.417991,22.7159991 157.194,22.896 L157.194,25.848 L152.37,25.848 C151.757997,25.848 151.452,26.1119974 151.452,26.64 L151.452,27.756 L156.294,27.936 L156.294,30.708 L151.452,30.888 L151.452,31.896 C151.452,32.2080016 151.520999,32.4419992 151.659,32.598 C151.797001,32.7540008 151.985999,32.832 152.226,32.832 L157.194,32.832 L157.194,35.784 C156.449996,35.8920005 155.553005,35.9729997 154.503,36.027 C153.452995,36.0810003 152.448005,36.108 151.488,36.108 Z M158.832,22.626 L164.538,22.626 C165.810006,22.626 166.799996,22.9649966 167.508,23.643 C168.216004,24.3210034 168.57,25.4819918 168.57,27.126 C168.57,28.1580052 168.411002,28.9469973 168.093,29.493 C167.774998,30.0390027 167.328003,30.4799983 166.752,30.816 L169.074,36 L165.528,36 L163.656,31.392 L162.324,31.392 L162.324,36 L158.832,36 L158.832,22.626 Z M163.908,28.62 C164.304002,28.62 164.597999,28.5030012 164.79,28.269 C164.982001,28.0349988 165.078,27.6600026 165.078,27.144 C165.078,26.6279974 164.985001,26.268001 164.799,26.064 C164.612999,25.859999 164.316002,25.758 163.908,25.758 L162.324,25.758 L162.324,28.62 L163.908,28.62 Z" id="FAVSTREAMER" fill="#FFFFFF" fill-rule="nonzero"></path>
    </g>
</svg>