<?xml version="1.0" encoding="UTF-8"?>
<svg width="201px" height="56px" viewBox="0 0 201 56" version="1.1" xmlns="http://www.w3.org/2000/svg" xmlns:xlink="http://www.w3.org/1999/xlink">
    <!-- Generator: Sketch 57.1 (83088) - https://sketch.com -->
    <title>component/label-4</title>
    <desc>Created with Sketch.</desc>
    <g id="component/label-4" stroke="none" stroke-width="1" fill="none" fill-rule="evenodd">
        <g>
            <polygon id="Rectangle" fill="#FFFFFF" points="2.53111843e-14 3.40210571e-13 187.360641 4.17716576e-13 201 28.1161826 181.120879 56 3.66660427 53.4439834"></polygon>
            <polygon id="Rectangle-Copy-2" fill="#EF6CEE" points="8 9.36363636 176.177778 8 184 28 168.355556 48 8 45.5"></polygon>
        </g>
        <path d="M28.99,23.938 C28.99,22.7499941 29.3169967,21.9010026 29.971,21.391 C30.6250033,20.8809974 31.4079954,20.626 32.32,20.626 C34.8520127,20.626 36.819993,20.721999 38.224,20.914 L38.224,23.848 L33.328,23.848 C33.0399986,23.848 32.8270007,23.9229993 32.689,24.073 C32.5509993,24.2230007 32.482,24.399999 32.482,24.604 L32.482,26.116 L37.324,26.296 L37.324,29.068 L32.482,29.248 L32.482,34 L28.99,34 L28.99,23.938 Z M41.734,20.626 L46.09,20.626 L50.05,34 L46.432,34 L45.892,31.876 L41.878,31.876 L41.356,34 L37.774,34 L41.734,20.626 Z M45.082,28.744 L43.876,23.596 L42.688,28.744 L45.082,28.744 Z M49.6,20.626 L53.218,20.626 L55.756,30.202 L58.294,20.626 L61.876,20.626 L57.916,34 L53.56,34 L49.6,20.626 Z M70.93,34 C69.7179939,34 68.8360028,33.7240028 68.284,33.172 C67.7319972,32.6199972 67.456,31.7380061 67.456,30.526 L67.456,20.626 L70.948,20.626 L70.948,29.932 C70.948,30.5560031 71.2599969,30.868 71.884,30.868 L75.772,30.868 L75.772,34 L70.93,34 Z M82.414,34.108 C81.0579932,34.108 79.975004,33.9280018 79.165,33.568 C78.354996,33.2079982 77.7400021,32.5360049 77.32,31.552 C76.8999979,30.5679951 76.69,29.1520092 76.69,27.304 C76.69,25.4559908 76.8999979,24.0400049 77.32,23.056 C77.7400021,22.0719951 78.354996,21.4000018 79.165,21.04 C79.975004,20.6799982 81.0579932,20.5 82.414,20.5 C83.7700068,20.5 84.852996,20.6799982 85.663,21.04 C86.4730041,21.4000018 87.0879979,22.0719951 87.508,23.056 C87.9280021,24.0400049 88.138,25.4559908 88.138,27.304 C88.138,29.1520092 87.9280021,30.5679951 87.508,31.552 C87.0879979,32.5360049 86.4730041,33.2079982 85.663,33.568 C84.852996,33.9280018 83.7700068,34.108 82.414,34.108 Z M82.414,30.976 C83.0380031,30.976 83.5029985,30.877001 83.809,30.679 C84.1150015,30.480999 84.3309994,30.1240026 84.457,29.608 C84.5830006,29.0919974 84.646,28.3240051 84.646,27.304 C84.646,26.2479947 84.5860006,25.4650026 84.466,24.955 C84.3459994,24.4449974 84.1300016,24.0970009 83.818,23.911 C83.5059984,23.7249991 83.0380031,23.632 82.414,23.632 C81.7899969,23.632 81.3220016,23.7249991 81.01,23.911 C80.6979984,24.0970009 80.4820006,24.4449974 80.362,24.955 C80.2419994,25.4650026 80.182,26.2479947 80.182,27.304 C80.182,28.3240051 80.2449994,29.0919974 80.371,29.608 C80.4970006,30.1240026 80.7129985,30.480999 81.019,30.679 C81.3250015,30.877001 81.7899969,30.976 82.414,30.976 Z M92.656,20.626 L97.012,20.626 L100.972,34 L97.354,34 L96.814,31.876 L92.8,31.876 L92.278,34 L88.696,34 L92.656,20.626 Z M96.004,28.744 L94.798,23.596 L93.61,28.744 L96.004,28.744 Z M102.052,20.626 L107.956,20.626 C109.756009,20.626 111.012996,21.2169941 111.727,22.399 C112.441004,23.5810059 112.798,25.2219895 112.798,27.322 C112.798,29.6500116 112.402004,31.3449947 111.61,32.407 C110.817996,33.4690053 109.600008,34 107.956,34 L102.052,34 L102.052,20.626 Z M107.596,30.868 C108.244003,30.868 108.690999,30.5980027 108.937,30.058 C109.183001,29.5179973 109.306,28.6060064 109.306,27.322 C109.306,26.3019949 109.240001,25.5370026 109.108,25.027 C108.975999,24.5169974 108.790001,24.1780008 108.55,24.01 C108.309999,23.8419992 107.992002,23.758 107.596,23.758 L105.544,23.758 L105.544,30.868 L107.596,30.868 Z M119.818,34.108 C118.461993,34.108 117.379004,33.9280018 116.569,33.568 C115.758996,33.2079982 115.144002,32.5360049 114.724,31.552 C114.303998,30.5679951 114.094,29.1520092 114.094,27.304 C114.094,25.4559908 114.303998,24.0400049 114.724,23.056 C115.144002,22.0719951 115.758996,21.4000018 116.569,21.04 C117.379004,20.6799982 118.461993,20.5 119.818,20.5 C121.174007,20.5 122.256996,20.6799982 123.067,21.04 C123.877004,21.4000018 124.491998,22.0719951 124.912,23.056 C125.332002,24.0400049 125.542,25.4559908 125.542,27.304 C125.542,29.1520092 125.332002,30.5679951 124.912,31.552 C124.491998,32.5360049 123.877004,33.2079982 123.067,33.568 C122.256996,33.9280018 121.174007,34.108 119.818,34.108 Z M119.818,30.976 C120.442003,30.976 120.906998,30.877001 121.213,30.679 C121.519002,30.480999 121.734999,30.1240026 121.861,29.608 C121.987001,29.0919974 122.05,28.3240051 122.05,27.304 C122.05,26.2479947 121.990001,25.4650026 121.87,24.955 C121.749999,24.4449974 121.534002,24.0970009 121.222,23.911 C120.909998,23.7249991 120.442003,23.632 119.818,23.632 C119.193997,23.632 118.726002,23.7249991 118.414,23.911 C118.101998,24.0970009 117.886001,24.4449974 117.766,24.955 C117.645999,25.4650026 117.586,26.2479947 117.586,27.304 C117.586,28.3240051 117.648999,29.0919974 117.775,29.608 C117.901001,30.1240026 118.116998,30.480999 118.423,30.679 C118.729002,30.877001 119.193997,30.976 119.818,30.976 Z M132.418,34.09 C130.713991,34.09 129.385005,33.7720032 128.431,33.136 C127.476995,32.4999968 127,31.3180086 127,29.59 L127,20.626 L130.492,20.626 L130.492,29.572 C130.492,30.0280023 130.656998,30.3729988 130.987,30.607 C131.317002,30.8410012 131.793997,30.958 132.418,30.958 C133.042003,30.958 133.518998,30.8410012 133.849,30.607 C134.179002,30.3729988 134.344,30.0280023 134.344,29.572 L134.344,20.626 L137.836,20.626 L137.836,29.59 C137.836,31.3180086 137.359005,32.4999968 136.405,33.136 C135.450995,33.7720032 134.122009,34.09 132.418,34.09 Z M142.3,23.758 L138.934,23.758 L138.934,20.626 L149.158,20.626 L149.158,23.758 L145.792,23.758 L145.792,34 L142.3,34 L142.3,23.758 Z" id="FAVLOADOUT" fill="#FFFFFF" fill-rule="nonzero"></path>
    </g>
</svg>