<?xml version="1.0" encoding="UTF-8"?>
<svg width="163px" height="56px" viewBox="0 0 163 56" version="1.1" xmlns="http://www.w3.org/2000/svg" xmlns:xlink="http://www.w3.org/1999/xlink">
    <!-- Generator: Sketch 57.1 (83088) - https://sketch.com -->
    <title>component/label-1</title>
    <desc>Created with Sketch.</desc>
    <g id="component/label-1" stroke="none" stroke-width="1" fill="none" fill-rule="evenodd">
        <g id="Group-3">
            <polygon id="Rectangle" fill="#FFFFFF" points="2.03028767e-14 4.66666667 157.172834 0 163 56 2.94109567 51.3333333"></polygon>
            <polygon id="Rectangle-Copy-2" fill="#FF6A6A" points="8 11.7272727 143.254673 8 148 49 11.8246783 45.7702743"></polygon>
            <path d="M26.654,23.758 L23.288,23.758 L23.288,20.626 L33.512,20.626 L33.512,23.758 L30.146,23.758 L30.146,34 L26.654,34 L26.654,23.758 Z M40.082,34.108 C38.7259932,34.108 37.6430041,33.9280018 36.833,33.568 C36.022996,33.2079982 35.4080021,32.5360049 34.988,31.552 C34.5679979,30.5679951 34.358,29.1520092 34.358,27.304 C34.358,25.4559908 34.5679979,24.0400049 34.988,23.056 C35.4080021,22.0719951 36.022996,21.4000018 36.833,21.04 C37.6430041,20.6799982 38.7259932,20.5 40.082,20.5 C41.4380068,20.5 42.5209959,20.6799982 43.331,21.04 C44.1410041,21.4000018 44.7559979,22.0719951 45.176,23.056 C45.5960021,24.0400049 45.806,25.4559908 45.806,27.304 C45.806,29.1520092 45.5960021,30.5679951 45.176,31.552 C44.7559979,32.5360049 44.1410041,33.2079982 43.331,33.568 C42.5209959,33.9280018 41.4380068,34.108 40.082,34.108 Z M40.082,30.976 C40.7060031,30.976 41.1709985,30.877001 41.477,30.679 C41.7830015,30.480999 41.9989994,30.1240026 42.125,29.608 C42.2510006,29.0919974 42.314,28.3240051 42.314,27.304 C42.314,26.2479947 42.2540006,25.4650026 42.134,24.955 C42.0139994,24.4449974 41.7980016,24.0970009 41.486,23.911 C41.1739984,23.7249991 40.7060031,23.632 40.082,23.632 C39.4579969,23.632 38.9900016,23.7249991 38.678,23.911 C38.3659984,24.0970009 38.1500006,24.4449974 38.03,24.955 C37.9099994,25.4650026 37.85,26.2479947 37.85,27.304 C37.85,28.3240051 37.9129994,29.0919974 38.039,29.608 C38.1650006,30.1240026 38.3809985,30.480999 38.687,30.679 C38.9930015,30.877001 39.4579969,30.976 40.082,30.976 Z M47.444,20.626 L53.312,20.626 C54.0560037,20.626 54.7219971,20.7399989 55.31,20.968 C55.8980029,21.1960011 56.389998,21.6609965 56.786,22.363 C57.182002,23.0650035 57.38,24.0819933 57.38,25.414 C57.38,27.3460097 57.0110037,28.6479966 56.273,29.32 C55.5349963,29.9920034 54.6140055,30.328 53.51,30.328 C52.9699973,30.328 52.4210028,30.2710006 51.863,30.157 C51.3049972,30.0429994 50.9960003,29.9800001 50.936,29.968 L50.936,34 L47.444,34 L47.444,20.626 Z M52.952,27.196 C53.3000017,27.196 53.5429993,27.0550014 53.681,26.773 C53.8190007,26.4909986 53.888,26.050003 53.888,25.45 C53.888,24.8859972 53.8130008,24.4630014 53.663,24.181 C53.5129993,23.8989986 53.2760016,23.758 52.952,23.758 L50.936,23.758 L50.936,27.196 L52.952,27.196 Z M74.822,34 L73.958,26.782 L72.194,34 L68.918,34 L67.172,26.944 L66.344,34 L62.978,34 L64.562,20.626 L67.838,20.626 L70.592,30.022 L73.346,20.626 L76.586,20.626 L78.188,34 L74.822,34 Z M82.868,20.626 L87.224,20.626 L91.184,34 L87.566,34 L87.026,31.876 L83.012,31.876 L82.49,34 L78.908,34 L82.868,20.626 Z M86.216,28.744 L85.01,23.596 L83.822,28.744 L86.216,28.744 Z M94.028,23.758 L90.662,23.758 L90.662,20.626 L100.886,20.626 L100.886,23.758 L97.52,23.758 L97.52,34 L94.028,34 L94.028,23.758 Z M105.512,34.108 C103.159988,34.108 101.984,33.0460106 101.984,30.922 L101.984,23.938 C101.984,22.7499941 102.310997,21.9010026 102.965,21.391 C103.619003,20.8809974 104.401995,20.626 105.314,20.626 C107.474011,20.626 109.441991,20.7159991 111.218,20.896 L111.218,23.848 L106.394,23.848 C105.781997,23.848 105.476,24.1119974 105.476,24.64 L105.476,25.756 L110.318,25.936 L110.318,28.708 L105.476,28.888 L105.476,29.896 C105.476,30.2080016 105.544999,30.4419992 105.683,30.598 C105.821001,30.7540008 106.009999,30.832 106.25,30.832 L111.218,30.832 L111.218,33.784 C110.473996,33.8920005 109.577005,33.9729997 108.527,34.027 C107.476995,34.0810003 106.472005,34.108 105.512,34.108 Z M117.05,34.108 C115.514,34.108 114.080007,33.9340017 112.748,33.586 L112.748,30.814 C113.948006,30.9220005 115.321992,30.976 116.87,30.976 C117.482003,30.976 117.931999,30.9070007 118.22,30.769 C118.508001,30.6309993 118.652,30.3940017 118.652,30.058 L118.652,29.842 C118.652,29.5899987 118.562001,29.3950007 118.382,29.257 C118.201999,29.1189993 117.980001,29.05 117.716,29.05 L116.762,29.05 C115.333993,29.05 114.269004,28.7350032 113.567,28.105 C112.864996,27.4749969 112.514,26.458007 112.514,25.054 L112.514,24.46 C112.514,23.1519935 112.903996,22.1680033 113.684,21.508 C114.464004,20.8479967 115.609992,20.518 117.122,20.518 C118.442007,20.518 119.833993,20.6919983 121.298,21.04 L121.298,23.812 C119.953993,23.7039995 118.706006,23.65 117.554,23.65 C116.977997,23.65 116.546001,23.7189993 116.258,23.857 C115.969999,23.9950007 115.826,24.2559981 115.826,24.64 L115.826,24.82 C115.826,25.4320031 116.215996,25.738 116.996,25.738 L118.184,25.738 C119.396006,25.738 120.328997,26.0739966 120.983,26.746 C121.637003,27.4180034 121.964,28.2939946 121.964,29.374 L121.964,29.968 C121.964,31.0720055 121.772002,31.926997 121.388,32.533 C121.003998,33.139003 120.461004,33.5529989 119.759,33.775 C119.056996,33.9970011 118.154006,34.108 117.05,34.108 Z" id="TOPMATES" fill="#FFFFFF" fill-rule="nonzero"></path>
        </g>
    </g>
</svg>