<?xml version="1.0" encoding="UTF-8"?>
<svg width="232px" height="51px" viewBox="0 0 232 51" version="1.1" xmlns="http://www.w3.org/2000/svg" xmlns:xlink="http://www.w3.org/1999/xlink">
    <!-- Generator: Sketch 57.1 (83088) - https://sketch.com -->
    <title>component/label-8</title>
    <desc>Created with Sketch.</desc>
    <g id="component/label-8" stroke="none" stroke-width="1" fill="none" fill-rule="evenodd">
        <g id="component/label-5">
            <polygon id="Rectangle" fill="#FFFFFF" points="4.07798941 4.70437048 226.946209 0 232 51 0 51"></polygon>
            <polygon id="Rectangle-Copy-2" fill="#0082F2" points="9.71055345 9.4375 218.948338 7 223 43.5244777 5 46"></polygon>
            <path d="M17.99,20.938 C17.99,19.7499941 18.3169967,18.9010026 18.971,18.391 C19.6250033,17.8809974 20.4079954,17.626 21.32,17.626 C23.8520127,17.626 25.819993,17.721999 27.224,17.914 L27.224,20.848 L22.328,20.848 C22.0399986,20.848 21.8270007,20.9229993 21.689,21.073 C21.5509993,21.2230007 21.482,21.399999 21.482,21.604 L21.482,23.116 L26.324,23.296 L26.324,26.068 L21.482,26.248 L21.482,31 L17.99,31 L17.99,20.938 Z M30.734,17.626 L35.09,17.626 L39.05,31 L35.432,31 L34.892,28.876 L30.878,28.876 L30.356,31 L26.774,31 L30.734,17.626 Z M34.082,25.744 L32.876,20.596 L31.688,25.744 L34.082,25.744 Z M38.6,17.626 L42.218,17.626 L44.756,27.202 L47.294,17.626 L50.876,17.626 L46.916,31 L42.56,31 L38.6,17.626 Z M59.93,31 C58.7179939,31 57.8360028,30.7240028 57.284,30.172 C56.7319972,29.6199972 56.456,28.7380061 56.456,27.526 L56.456,17.626 L59.948,17.626 L59.948,26.932 C59.948,27.5560031 60.2599969,27.868 60.884,27.868 L64.772,27.868 L64.772,31 L59.93,31 Z M69.182,17.626 L73.538,17.626 L77.498,31 L73.88,31 L73.34,28.876 L69.326,28.876 L68.804,31 L65.222,31 L69.182,17.626 Z M72.53,25.744 L71.324,20.596 L70.136,25.744 L72.53,25.744 Z M78.578,17.626 L81.35,17.626 L86.048,25.078 L86.048,17.626 L89.54,17.626 L89.54,31 L86.768,31 L82.07,23.548 L82.07,31 L78.578,31 L78.578,17.626 Z M91.52,17.626 L97.424,17.626 C99.224009,17.626 100.480996,18.2169941 101.195,19.399 C101.909004,20.5810059 102.266,22.2219895 102.266,24.322 C102.266,26.6500116 101.870004,28.3449947 101.078,29.407 C100.285996,30.4690053 99.0680082,31 97.424,31 L91.52,31 L91.52,17.626 Z M97.064,27.868 C97.7120032,27.868 98.1589988,27.5980027 98.405,27.058 C98.6510012,26.5179973 98.774,25.6060064 98.774,24.322 C98.774,23.3019949 98.7080007,22.5370026 98.576,22.027 C98.4439993,21.5169974 98.2580012,21.1780008 98.018,21.01 C97.7779988,20.8419992 97.460002,20.758 97.064,20.758 L95.012,20.758 L95.012,27.868 L97.064,27.868 Z M103.904,17.626 L107.396,17.626 L107.396,31 L103.904,31 L103.904,17.626 Z M109.376,17.626 L112.148,17.626 L116.846,25.078 L116.846,17.626 L120.338,17.626 L120.338,31 L117.566,31 L112.868,23.548 L112.868,31 L109.376,31 L109.376,17.626 Z M125.99,31.09 C124.465992,31.09 123.416003,30.493006 122.84,29.299 C122.263997,28.104994 121.976,26.4520106 121.976,24.34 C121.976,22.8279924 122.113999,21.5830049 122.39,20.605 C122.666001,19.6269951 123.181996,18.8650027 123.938,18.319 C124.694004,17.7729973 125.773993,17.5 127.178,17.5 C128.138005,17.5 128.932997,17.5509995 129.563,17.653 C130.193003,17.7550005 130.945996,17.9259988 131.822,18.166 L131.822,20.884 C130.741995,20.7159992 129.416008,20.632 127.844,20.632 C127.135996,20.632 126.617002,20.736999 126.287,20.947 C125.956998,21.157001 125.738001,21.5139975 125.63,22.018 C125.521999,22.5220025 125.468,23.2959948 125.468,24.34 C125.468,25.3240049 125.521999,26.0679975 125.63,26.572 C125.738001,27.0760025 125.911999,27.4209991 126.152,27.607 C126.392001,27.7930009 126.727998,27.886 127.16,27.886 C127.916004,27.886 128.575997,27.8260006 129.14,27.706 L129.14,25.978 L127.286,25.978 L127.286,23.206 C127.658002,23.1579998 128.149997,23.1160002 128.762,23.08 C129.374003,23.0439998 129.931997,23.026 130.436,23.026 C131.060003,23.026 131.743996,23.0379999 132.488,23.062 L132.488,31 L129.86,31 L129.392,30.118 C129.031998,30.3580012 128.546003,30.579999 127.934,30.784 C127.321997,30.988001 126.674003,31.09 125.99,31.09 Z M138.662,31.108 C137.126,31.108 135.692007,30.9340017 134.36,30.586 L134.36,27.814 C135.560006,27.9220005 136.933992,27.976 138.482,27.976 C139.094003,27.976 139.543999,27.9070007 139.832,27.769 C140.120001,27.6309993 140.264,27.3940017 140.264,27.058 L140.264,26.842 C140.264,26.5899987 140.174001,26.3950007 139.994,26.257 C139.813999,26.1189993 139.592001,26.05 139.328,26.05 L138.374,26.05 C136.945993,26.05 135.881004,25.7350032 135.179,25.105 C134.476996,24.4749969 134.126,23.458007 134.126,22.054 L134.126,21.46 C134.126,20.1519935 134.515996,19.1680033 135.296,18.508 C136.076004,17.8479967 137.221992,17.518 138.734,17.518 C140.054007,17.518 141.445993,17.6919983 142.91,18.04 L142.91,20.812 C141.565993,20.7039995 140.318006,20.65 139.166,20.65 C138.589997,20.65 138.158001,20.7189993 137.87,20.857 C137.581999,20.9950007 137.438,21.2559981 137.438,21.64 L137.438,21.82 C137.438,22.4320031 137.827996,22.738 138.608,22.738 L139.796,22.738 C141.008006,22.738 141.940997,23.0739966 142.595,23.746 C143.249003,24.4180034 143.576,25.2939946 143.576,26.374 L143.576,26.968 C143.576,28.0720055 143.384002,28.926997 143,29.533 C142.615998,30.139003 142.073004,30.5529989 141.371,30.775 C140.668996,30.9970011 139.766006,31.108 138.662,31.108 Z M145.214,17.626 L151.082,17.626 C151.826004,17.626 152.491997,17.7399989 153.08,17.968 C153.668003,18.1960011 154.159998,18.6609965 154.556,19.363 C154.952002,20.0650035 155.15,21.0819933 155.15,22.414 C155.15,24.3460097 154.781004,25.6479966 154.043,26.32 C153.304996,26.9920034 152.384006,27.328 151.28,27.328 C150.739997,27.328 150.191003,27.2710006 149.633,27.157 C149.074997,27.0429994 148.766,26.9800001 148.706,26.968 L148.706,31 L145.214,31 L145.214,17.626 Z M150.722,24.196 C151.070002,24.196 151.312999,24.0550014 151.451,23.773 C151.589001,23.4909986 151.658,23.050003 151.658,22.45 C151.658,21.8859972 151.583001,21.4630014 151.433,21.181 C151.282999,20.8989986 151.046002,20.758 150.722,20.758 L148.706,20.758 L148.706,24.196 L150.722,24.196 Z M161.99,31.108 C160.633993,31.108 159.551004,30.9280018 158.741,30.568 C157.930996,30.2079982 157.316002,29.5360049 156.896,28.552 C156.475998,27.5679951 156.266,26.1520092 156.266,24.304 C156.266,22.4559908 156.475998,21.0400049 156.896,20.056 C157.316002,19.0719951 157.930996,18.4000018 158.741,18.04 C159.551004,17.6799982 160.633993,17.5 161.99,17.5 C163.346007,17.5 164.428996,17.6799982 165.239,18.04 C166.049004,18.4000018 166.663998,19.0719951 167.084,20.056 C167.504002,21.0400049 167.714,22.4559908 167.714,24.304 C167.714,26.1520092 167.504002,27.5679951 167.084,28.552 C166.663998,29.5360049 166.049004,30.2079982 165.239,30.568 C164.428996,30.9280018 163.346007,31.108 161.99,31.108 Z M161.99,27.976 C162.614003,27.976 163.078998,27.877001 163.385,27.679 C163.691002,27.480999 163.906999,27.1240026 164.033,26.608 C164.159001,26.0919974 164.222,25.3240051 164.222,24.304 C164.222,23.2479947 164.162001,22.4650026 164.042,21.955 C163.921999,21.4449974 163.706002,21.0970009 163.394,20.911 C163.081998,20.7249991 162.614003,20.632 161.99,20.632 C161.365997,20.632 160.898002,20.7249991 160.586,20.911 C160.273998,21.0970009 160.058001,21.4449974 159.938,21.955 C159.817999,22.4650026 159.758,23.2479947 159.758,24.304 C159.758,25.3240051 159.820999,26.0919974 159.947,26.608 C160.073001,27.1240026 160.288998,27.480999 160.595,27.679 C160.901002,27.877001 161.365997,27.976 161.99,27.976 Z M171.926,20.758 L168.56,20.758 L168.56,17.626 L178.784,17.626 L178.784,20.758 L175.418,20.758 L175.418,31 L171.926,31 L171.926,20.758 Z" id="FAVLANDINGSPOT" fill="#FFFFFF" fill-rule="nonzero"></path>
        </g>
    </g>
</svg>