<?xml version="1.0" encoding="UTF-8"?>
<svg width="191px" height="58px" viewBox="0 0 191 58" version="1.1" xmlns="http://www.w3.org/2000/svg" xmlns:xlink="http://www.w3.org/1999/xlink">
    <!-- Generator: Sketch 57.1 (83088) - https://sketch.com -->
    <title>component/label-3</title>
    <desc>Created with Sketch.</desc>
    <g id="component/label-3" stroke="none" stroke-width="1" fill="none" fill-rule="evenodd">
        <g>
            <polygon id="Rectangle" fill="#FFFFFF" points="4.78418844 0 166.071958 0 191 58 1.96684944e-13 55"></polygon>
            <polygon id="Rectangle-Copy-2" fill="#6A84FF" points="13.2531784 6.74027752 159.538895 10.0635474 175.542046 48.7402775 8.54204605 48.7402775"></polygon>
        </g>
        <path d="M19.99,24.938 C19.99,23.7499941 20.3169967,22.9010026 20.971,22.391 C21.6250033,21.8809974 22.4079954,21.626 23.32,21.626 C25.8520127,21.626 27.819993,21.721999 29.224,21.914 L29.224,24.848 L24.328,24.848 C24.0399986,24.848 23.8270007,24.9229993 23.689,25.073 C23.5509993,25.2230007 23.482,25.399999 23.482,25.604 L23.482,27.116 L28.324,27.296 L28.324,30.068 L23.482,30.248 L23.482,35 L19.99,35 L19.99,24.938 Z M36.046,35.108 C34.6899932,35.108 33.6070041,34.9280018 32.797,34.568 C31.986996,34.2079982 31.3720021,33.5360049 30.952,32.552 C30.5319979,31.5679951 30.322,30.1520092 30.322,28.304 C30.322,26.4559908 30.5319979,25.0400049 30.952,24.056 C31.3720021,23.0719951 31.986996,22.4000018 32.797,22.04 C33.6070041,21.6799982 34.6899932,21.5 36.046,21.5 C37.4020068,21.5 38.4849959,21.6799982 39.295,22.04 C40.1050041,22.4000018 40.7199979,23.0719951 41.14,24.056 C41.5600021,25.0400049 41.77,26.4559908 41.77,28.304 C41.77,30.1520092 41.5600021,31.5679951 41.14,32.552 C40.7199979,33.5360049 40.1050041,34.2079982 39.295,34.568 C38.4849959,34.9280018 37.4020068,35.108 36.046,35.108 Z M36.046,31.976 C36.6700031,31.976 37.1349985,31.877001 37.441,31.679 C37.7470015,31.480999 37.9629994,31.1240026 38.089,30.608 C38.2150006,30.0919974 38.278,29.3240051 38.278,28.304 C38.278,27.2479947 38.2180006,26.4650026 38.098,25.955 C37.9779994,25.4449974 37.7620016,25.0970009 37.45,24.911 C37.1379984,24.7249991 36.6700031,24.632 36.046,24.632 C35.4219969,24.632 34.9540016,24.7249991 34.642,24.911 C34.3299984,25.0970009 34.1140006,25.4449974 33.994,25.955 C33.8739994,26.4650026 33.814,27.2479947 33.814,28.304 C33.814,29.3240051 33.8769994,30.0919974 34.003,30.608 C34.1290006,31.1240026 34.3449985,31.480999 34.651,31.679 C34.9570015,31.877001 35.4219969,31.976 36.046,31.976 Z M43.408,21.626 L49.114,21.626 C50.3860064,21.626 51.3759965,21.9649966 52.084,22.643 C52.7920035,23.3210034 53.146,24.4819918 53.146,26.126 C53.146,27.1580052 52.9870016,27.9469973 52.669,28.493 C52.3509984,29.0390027 51.9040029,29.4799983 51.328,29.816 L53.65,35 L50.104,35 L48.232,30.392 L46.9,30.392 L46.9,35 L43.408,35 L43.408,21.626 Z M48.484,27.62 C48.880002,27.62 49.173999,27.5030012 49.366,27.269 C49.558001,27.0349988 49.654,26.6600026 49.654,26.144 C49.654,25.6279974 49.5610009,25.268001 49.375,25.064 C49.1889991,24.859999 48.892002,24.758 48.484,24.758 L46.9,24.758 L46.9,27.62 L48.484,27.62 Z M57.592,24.758 L54.226,24.758 L54.226,21.626 L64.45,21.626 L64.45,24.758 L61.084,24.758 L61.084,35 L57.592,35 L57.592,24.758 Z M65.728,21.626 L68.5,21.626 L73.198,29.078 L73.198,21.626 L76.69,21.626 L76.69,35 L73.918,35 L69.22,27.548 L69.22,35 L65.728,35 L65.728,21.626 Z M78.67,21.626 L82.162,21.626 L82.162,35 L78.67,35 L78.67,21.626 Z M86.806,24.758 L83.44,24.758 L83.44,21.626 L93.664,21.626 L93.664,24.758 L90.298,24.758 L90.298,35 L86.806,35 L86.806,24.758 Z M98.29,35.108 C95.9379882,35.108 94.762,34.0460106 94.762,31.922 L94.762,24.938 C94.762,23.7499941 95.0889967,22.9010026 95.743,22.391 C96.3970033,21.8809974 97.1799954,21.626 98.092,21.626 C100.252011,21.626 102.219991,21.7159991 103.996,21.896 L103.996,24.848 L99.172,24.848 C98.5599969,24.848 98.254,25.1119974 98.254,25.64 L98.254,26.756 L103.096,26.936 L103.096,29.708 L98.254,29.888 L98.254,30.896 C98.254,31.2080016 98.3229993,31.4419992 98.461,31.598 C98.5990007,31.7540008 98.7879988,31.832 99.028,31.832 L103.996,31.832 L103.996,34.784 C103.251996,34.8920005 102.355005,34.9729997 101.305,35.027 C100.254995,35.0810003 99.2500048,35.108 98.29,35.108 Z M114.706,35.108 C113.601994,35.108 112.699004,34.9280018 111.997,34.568 C111.294996,34.2079982 110.752002,33.530005 110.368,32.534 C109.983998,31.537995 109.792,30.1160092 109.792,28.268 C109.792,26.4799911 109.992998,25.0910049 110.395,24.101 C110.797002,23.110995 111.351996,22.4300019 112.06,22.058 C112.768004,21.6859981 113.649995,21.5 114.706,21.5 C115.702005,21.5 116.568996,21.5719993 117.307,21.716 C118.045004,21.8600007 118.641998,22.027999 119.098,22.22 L119.098,24.938 C118.701998,24.8539996 118.186003,24.7820003 117.55,24.722 C116.913997,24.6619997 116.224004,24.632 115.48,24.632 C114.891997,24.632 114.448002,24.7189991 114.148,24.893 C113.847999,25.0670009 113.629001,25.4119974 113.491,25.928 C113.352999,26.4440026 113.284,27.2359947 113.284,28.304 C113.284,29.3240051 113.340999,30.0859975 113.455,30.59 C113.569001,31.0940025 113.781998,31.4509989 114.094,31.661 C114.406002,31.8710011 114.879997,31.976 115.516,31.976 C117.088008,31.976 118.281996,31.9220005 119.098,31.814 L119.098,34.532 C118.137995,34.9160019 116.67401,35.108 114.706,35.108 Z M124.21,35 C122.997994,35 122.116003,34.7240028 121.564,34.172 C121.011997,33.6199972 120.736,32.7380061 120.736,31.526 L120.736,21.626 L124.228,21.626 L124.228,30.932 C124.228,31.5560031 124.539997,31.868 125.164,31.868 L129.052,31.868 L129.052,35 L124.21,35 Z M133.462,21.626 L137.818,21.626 L141.778,35 L138.16,35 L137.62,32.876 L133.606,32.876 L133.084,35 L129.502,35 L133.462,21.626 Z M136.81,29.744 L135.604,24.596 L134.416,29.744 L136.81,29.744 Z M142.858,21.626 L145.63,21.626 L150.328,29.078 L150.328,21.626 L153.82,21.626 L153.82,35 L151.048,35 L146.35,27.548 L146.35,35 L142.858,35 L142.858,21.626 Z" id="FORTNITECLAN" fill="#FFFFFF" fill-rule="nonzero"></path>
    </g>
</svg>