<?xml version="1.0" encoding="UTF-8"?>
<svg width="352px" height="56px" viewBox="0 0 352 56" version="1.1" xmlns="http://www.w3.org/2000/svg" xmlns:xlink="http://www.w3.org/1999/xlink">
    <!-- Generator: Sketch 57.1 (83088) - https://sketch.com -->
    <title>component/label-7</title>
    <desc>Created with Sketch.</desc>
    <g id="component/label-7" stroke="none" stroke-width="1" fill="none" fill-rule="evenodd">
        <polygon id="Rectangle" fill="#FFFFFF" points="3.05014399 4.27022492 327.61893 1.71060156e-14 344 56 0 56"></polygon>
        <path d="M40.96,30.202 L37.09,20.626 L40.708,20.626 L42.778,26.638 L44.848,20.626 L48.322,20.626 L44.452,30.202 L44.452,34 L40.96,34 L40.96,30.202 Z M54.514,34.108 C53.1579932,34.108 52.0750041,33.9280018 51.265,33.568 C50.4549959,33.2079982 49.8400021,32.5360049 49.42,31.552 C48.9999979,30.5679951 48.79,29.1520092 48.79,27.304 C48.79,25.4559908 48.9999979,24.0400049 49.42,23.056 C49.8400021,22.0719951 50.4549959,21.4000018 51.265,21.04 C52.0750041,20.6799982 53.1579932,20.5 54.514,20.5 C55.8700068,20.5 56.952996,20.6799982 57.763,21.04 C58.5730041,21.4000018 59.1879979,22.0719951 59.608,23.056 C60.0280021,24.0400049 60.238,25.4559908 60.238,27.304 C60.238,29.1520092 60.0280021,30.5679951 59.608,31.552 C59.1879979,32.5360049 58.5730041,33.2079982 57.763,33.568 C56.952996,33.9280018 55.8700068,34.108 54.514,34.108 Z M54.514,30.976 C55.1380031,30.976 55.6029985,30.877001 55.909,30.679 C56.2150015,30.480999 56.4309994,30.1240026 56.557,29.608 C56.6830006,29.0919974 56.746,28.3240051 56.746,27.304 C56.746,26.2479947 56.6860006,25.4650026 56.566,24.955 C56.4459994,24.4449974 56.2300016,24.0970009 55.918,23.911 C55.6059984,23.7249991 55.1380031,23.632 54.514,23.632 C53.8899969,23.632 53.4220016,23.7249991 53.11,23.911 C52.7979984,24.0970009 52.5820006,24.4449974 52.462,24.955 C52.3419994,25.4650026 52.282,26.2479947 52.282,27.304 C52.282,28.3240051 52.3449994,29.0919974 52.471,29.608 C52.5970006,30.1240026 52.8129985,30.480999 53.119,30.679 C53.4250015,30.877001 53.8899969,30.976 54.514,30.976 Z M67.114,34.09 C65.4099915,34.09 64.0810048,33.7720032 63.127,33.136 C62.1729952,32.4999968 61.696,31.3180086 61.696,29.59 L61.696,20.626 L65.188,20.626 L65.188,29.572 C65.188,30.0280023 65.3529984,30.3729988 65.683,30.607 C66.0130017,30.8410012 66.4899969,30.958 67.114,30.958 C67.7380031,30.958 68.2149984,30.8410012 68.545,30.607 C68.8750017,30.3729988 69.04,30.0280023 69.04,29.572 L69.04,20.626 L72.532,20.626 L72.532,29.59 C72.532,31.3180086 72.0550048,32.4999968 71.101,33.136 C70.1469952,33.7720032 68.8180085,34.09 67.114,34.09 Z M74.332,20.626 L80.038,20.626 C81.3100064,20.626 82.2999965,20.9649966 83.008,21.643 C83.7160035,22.3210034 84.07,23.4819918 84.07,25.126 C84.07,26.1580052 83.9110016,26.9469973 83.593,27.493 C83.2749984,28.0390027 82.8280029,28.4799983 82.252,28.816 L84.574,34 L81.028,34 L79.156,29.392 L77.824,29.392 L77.824,34 L74.332,34 L74.332,20.626 Z M79.408,26.62 C79.804002,26.62 80.097999,26.5030012 80.29,26.269 C80.482001,26.0349988 80.578,25.6600026 80.578,25.144 C80.578,24.6279974 80.4850009,24.268001 80.299,24.064 C80.1129991,23.859999 79.816002,23.758 79.408,23.758 L77.824,23.758 L77.824,26.62 L79.408,26.62 Z M93.412,20.626 L97.768,20.626 L101.728,34 L98.11,34 L97.57,31.876 L93.556,31.876 L93.034,34 L89.452,34 L93.412,20.626 Z M96.76,28.744 L95.554,23.596 L94.366,28.744 L96.76,28.744 Z M107.2,34.108 C106.095994,34.108 105.193004,33.9280018 104.491,33.568 C103.788996,33.2079982 103.246002,32.530005 102.862,31.534 C102.477998,30.537995 102.286,29.1160092 102.286,27.268 C102.286,25.4799911 102.486998,24.0910049 102.889,23.101 C103.291002,22.110995 103.845996,21.4300019 104.554,21.058 C105.262004,20.6859981 106.143995,20.5 107.2,20.5 C108.196005,20.5 109.062996,20.5719993 109.801,20.716 C110.539004,20.8600007 111.135998,21.027999 111.592,21.22 L111.592,23.938 C111.195998,23.8539996 110.680003,23.7820003 110.044,23.722 C109.407997,23.6619997 108.718004,23.632 107.974,23.632 C107.385997,23.632 106.942002,23.7189991 106.642,23.893 C106.341999,24.0670009 106.123001,24.4119974 105.985,24.928 C105.846999,25.4440026 105.778,26.2359947 105.778,27.304 C105.778,28.3240051 105.834999,29.0859975 105.949,29.59 C106.063001,30.0940025 106.275998,30.4509989 106.588,30.661 C106.900002,30.8710011 107.373997,30.976 108.01,30.976 C109.582008,30.976 110.775996,30.9220005 111.592,30.814 L111.592,33.532 C110.631995,33.9160019 109.16801,34.108 107.2,34.108 Z M117.622,34.108 C116.517994,34.108 115.615004,33.9280018 114.913,33.568 C114.210996,33.2079982 113.668002,32.530005 113.284,31.534 C112.899998,30.537995 112.708,29.1160092 112.708,27.268 C112.708,25.4799911 112.908998,24.0910049 113.311,23.101 C113.713002,22.110995 114.267996,21.4300019 114.976,21.058 C115.684004,20.6859981 116.565995,20.5 117.622,20.5 C118.618005,20.5 119.484996,20.5719993 120.223,20.716 C120.961004,20.8600007 121.557998,21.027999 122.014,21.22 L122.014,23.938 C121.617998,23.8539996 121.102003,23.7820003 120.466,23.722 C119.829997,23.6619997 119.140004,23.632 118.396,23.632 C117.807997,23.632 117.364002,23.7189991 117.064,23.893 C116.763999,24.0670009 116.545001,24.4119974 116.407,24.928 C116.268999,25.4440026 116.2,26.2359947 116.2,27.304 C116.2,28.3240051 116.256999,29.0859975 116.371,29.59 C116.485001,30.0940025 116.697998,30.4509989 117.01,30.661 C117.322002,30.8710011 117.795997,30.976 118.432,30.976 C120.004008,30.976 121.197996,30.9220005 122.014,30.814 L122.014,33.532 C121.053995,33.9160019 119.59001,34.108 117.622,34.108 Z M128.854,34.108 C127.497993,34.108 126.415004,33.9280018 125.605,33.568 C124.794996,33.2079982 124.180002,32.5360049 123.76,31.552 C123.339998,30.5679951 123.13,29.1520092 123.13,27.304 C123.13,25.4559908 123.339998,24.0400049 123.76,23.056 C124.180002,22.0719951 124.794996,21.4000018 125.605,21.04 C126.415004,20.6799982 127.497993,20.5 128.854,20.5 C130.210007,20.5 131.292996,20.6799982 132.103,21.04 C132.913004,21.4000018 133.527998,22.0719951 133.948,23.056 C134.368002,24.0400049 134.578,25.4559908 134.578,27.304 C134.578,29.1520092 134.368002,30.5679951 133.948,31.552 C133.527998,32.5360049 132.913004,33.2079982 132.103,33.568 C131.292996,33.9280018 130.210007,34.108 128.854,34.108 Z M128.854,30.976 C129.478003,30.976 129.942998,30.877001 130.249,30.679 C130.555002,30.480999 130.770999,30.1240026 130.897,29.608 C131.023001,29.0919974 131.086,28.3240051 131.086,27.304 C131.086,26.2479947 131.026001,25.4650026 130.906,24.955 C130.785999,24.4449974 130.570002,24.0970009 130.258,23.911 C129.945998,23.7249991 129.478003,23.632 128.854,23.632 C128.229997,23.632 127.762002,23.7249991 127.45,23.911 C127.137998,24.0970009 126.922001,24.4449974 126.802,24.955 C126.681999,25.4650026 126.622,26.2479947 126.622,27.304 C126.622,28.3240051 126.684999,29.0919974 126.811,29.608 C126.937001,30.1240026 127.152998,30.480999 127.459,30.679 C127.765002,30.877001 128.229997,30.976 128.854,30.976 Z M141.454,34.09 C139.749991,34.09 138.421005,33.7720032 137.467,33.136 C136.512995,32.4999968 136.036,31.3180086 136.036,29.59 L136.036,20.626 L139.528,20.626 L139.528,29.572 C139.528,30.0280023 139.692998,30.3729988 140.023,30.607 C140.353002,30.8410012 140.829997,30.958 141.454,30.958 C142.078003,30.958 142.554998,30.8410012 142.885,30.607 C143.215002,30.3729988 143.38,30.0280023 143.38,29.572 L143.38,20.626 L146.872,20.626 L146.872,29.59 C146.872,31.3180086 146.395005,32.4999968 145.441,33.136 C144.486995,33.7720032 143.158009,34.09 141.454,34.09 Z M148.672,20.626 L151.444,20.626 L156.142,28.078 L156.142,20.626 L159.634,20.626 L159.634,34 L156.862,34 L152.164,26.548 L152.164,34 L148.672,34 L148.672,20.626 Z M164.278,23.758 L160.912,23.758 L160.912,20.626 L171.136,20.626 L171.136,23.758 L167.77,23.758 L167.77,34 L164.278,34 L164.278,23.758 Z" id="YOURACCOUNT" fill="#000000" fill-rule="nonzero"></path>
    </g>
</svg>