<?xml version="1.0" encoding="UTF-8"?>
<svg width="148px" height="56px" viewBox="0 0 148 56" version="1.1" xmlns="http://www.w3.org/2000/svg" xmlns:xlink="http://www.w3.org/1999/xlink">
    <!-- Generator: Sketch 57.1 (83088) - https://sketch.com -->
    <title>component/label-2</title>
    <desc>Created with Sketch.</desc>
    <g id="component/label-2" stroke="none" stroke-width="1" fill="none" fill-rule="evenodd">
        <g id="component/label_2">
            <polygon id="Rectangle" fill="#FFFFFF" points="0 0 136.581429 4.63246365 148 56 2.67044269 51.1212121"></polygon>
            <polygon id="Rectangle-Copy-2" fill="#20D7F1" points="12 13 129.920581 15.0154854 135 45 14.8896441 42.3009536"></polygon>
        </g>
        <path d="M31.464,34 C30.2519939,34 29.3700028,33.7240028 28.818,33.172 C28.2659972,32.6199972 27.99,31.7380061 27.99,30.526 L27.99,20.626 L31.482,20.626 L31.482,29.932 C31.482,30.5560031 31.7939969,30.868 32.418,30.868 L36.306,30.868 L36.306,34 L31.464,34 Z M41.184,34.108 C38.8319882,34.108 37.656,33.0460106 37.656,30.922 L37.656,23.938 C37.656,22.7499941 37.9829967,21.9010026 38.637,21.391 C39.2910033,20.8809974 40.0739954,20.626 40.986,20.626 C43.1460108,20.626 45.1139911,20.7159991 46.89,20.896 L46.89,23.848 L42.066,23.848 C41.4539969,23.848 41.148,24.1119974 41.148,24.64 L41.148,25.756 L45.99,25.936 L45.99,28.708 L41.148,28.888 L41.148,29.896 C41.148,30.2080016 41.2169993,30.4419992 41.355,30.598 C41.4930007,30.7540008 41.6819988,30.832 41.922,30.832 L46.89,30.832 L46.89,33.784 C46.1459963,33.8920005 45.2490052,33.9729997 44.199,34.027 C43.1489947,34.0810003 42.1440048,34.108 41.184,34.108 Z M47.628,20.626 L51.246,20.626 L53.784,30.202 L56.322,20.626 L59.904,20.626 L55.944,34 L51.588,34 L47.628,20.626 Z M64.062,34.108 C61.7099882,34.108 60.534,33.0460106 60.534,30.922 L60.534,23.938 C60.534,22.7499941 60.8609967,21.9010026 61.515,21.391 C62.1690033,20.8809974 62.9519954,20.626 63.864,20.626 C66.0240108,20.626 67.9919911,20.7159991 69.768,20.896 L69.768,23.848 L64.944,23.848 C64.3319969,23.848 64.026,24.1119974 64.026,24.64 L64.026,25.756 L68.868,25.936 L68.868,28.708 L64.026,28.888 L64.026,29.896 C64.026,30.2080016 64.0949993,30.4419992 64.233,30.598 C64.3710007,30.7540008 64.5599988,30.832 64.8,30.832 L69.768,30.832 L69.768,33.784 C69.0239963,33.8920005 68.1270052,33.9729997 67.077,34.027 C66.0269948,34.0810003 65.0220048,34.108 64.062,34.108 Z M74.88,34 C73.6679939,34 72.7860028,33.7240028 72.234,33.172 C71.6819972,32.6199972 71.406,31.7380061 71.406,30.526 L71.406,20.626 L74.898,20.626 L74.898,29.932 C74.898,30.5560031 75.2099969,30.868 75.834,30.868 L79.722,30.868 L79.722,34 L74.88,34 Z" id="LEVEL" fill="#FFFFFF" fill-rule="nonzero"></path>
    </g>
</svg>