<?xml version="1.0" encoding="UTF-8"?>
<svg width="24px" height="24px" viewBox="0 0 24 24" version="1.1" xmlns="http://www.w3.org/2000/svg" xmlns:xlink="http://www.w3.org/1999/xlink">
    <!-- Generator: Sketch 58 (84663) - https://sketch.com -->
    <title>icons/glider</title>
    <desc>Created with Sketch.</desc>
    <g id="icons/glider" stroke="none" stroke-width="1" fill="none" fill-rule="evenodd">
        <path d="M12.9922062,5 C12.5205298,5.00200251 12.0517783,5.14848796 11.6719021,5.46880147 C9.14639421,7.26958209 6.51163597,9.14081294 4.23437886,10.7773181 C3.64745202,11.2655946 3,11.9355217 3,12.9325998 L3,14.4941297 C3.00195251,14.8193307 3.38575121,15.0761565 3.68750215,14.9550811 L8.00001563,13.1826256 L8.00001563,14.5019547 C8.00001563,14.7636805 8.23829637,15.0019563 8.50001719,15.0019563 L11.5000266,15.0019563 L11.5000266,15.4941578 C11.6230744,16.3174104 12.2168288,16.9873375 12.9922312,17.0009875 C13.8115588,16.9150497 14.4717358,16.2519602 14.5000359,15.5097828 L14.5000359,15.0019813 L17.5000453,15.0019813 C17.7617711,15.0019813 18.0000469,14.7637005 18.0000469,14.5019797 L17.9922344,13.1748255 L22.3124979,14.9551061 C22.6142488,15.0771765 22.99805,14.8193632 23,14.4941547 L23,12.9482498 C22.8974597,11.9628968 22.344723,11.1865193 21.5702955,10.6533177 C19.0547877,8.840812 16.4805296,6.99605624 14.3202729,5.44530139 C13.9999719,5.2548708 13.4999703,5.00487502 12.9921437,5 L12.9922062,5 Z M13.0000188,5.99907812 C13.2763946,6.02642321 13.5420204,6.09380592 13.734396,6.25687893 C16.1660536,7.9775843 18.5624111,9.75388986 20.9999187,11.4648952 C21.4549952,11.8447714 21.9872218,12.3330729 21.9999219,12.9482998 L21.9999219,13.7442023 L13.1873943,10.121191 C13.068254,10.0733384 12.9315435,10.0733384 12.8123932,10.121191 L3.99986562,13.7442023 L3.99986562,12.9326748 C3.99986562,12.371148 4.33776668,11.9971219 4.85141829,11.5664705 C7.44317638,9.7051397 10.0701846,7.83195885 12.2889415,6.23445386 C12.5252698,6.09187591 12.770393,6.00398314 12.9998937,6.00007813 L13.0000188,5.99907812 Z M13.0000188,11.1210941 L16.9922812,12.7685493 L17.0000938,14.0019531 L14.5000859,14.0019531 L14.5000859,13.5019516 C14.3477405,12.6249988 13.879959,12.0117219 12.9922812,12.0029219 C12.0909034,12.0419845 11.5040016,12.687499 11.5000688,13.5019516 L11.5000688,14.0019531 L9.00006875,14.0019531 L9.00006875,12.7685493 L13.0000188,11.1210941 Z M12.9922062,13.0029 C13.3584074,13.0185501 13.4922078,13.2421833 13.5000047,13.5029266 L13.5000047,15.4941328 C13.4316476,15.7851587 13.252937,15.9140591 12.9922062,16.0019344 C12.7002053,15.9404117 12.585955,15.7773237 12.5000047,15.5097328 L12.5000047,13.5029 C12.5029347,13.1337504 12.7148504,13.0488002 12.9922062,13.0029 L12.9922062,13.0029 Z" fill="#FFFFFF" transform="translate(13.000000, 11.000494) rotate(40.000000) translate(-13.000000, -11.000494) "></path>
    </g>
</svg>