<svg xmlns="http://www.w3.org/2000/svg" width="58" height="54" viewBox="0 0 58 54">
    <g fill="#FFF" fill-rule="evenodd">
        <path d="M34.709 37.056c-.173 0-.346-.053-.494-.16L28.84 32.99l-5.374 3.905c-.295.213-.693.213-.986 0-.295-.213-.417-.592-.304-.937l2.052-6.319-5.374-3.905c-.295-.213-.417-.592-.305-.937.113-.345.434-.58.798-.58h6.642l2.052-6.318c.113-.346.434-.58.799-.58.364 0 .685.234.798.58l2.052 6.318h6.642c.364 0 .685.235.798.58.113.345-.01.724-.305.937l-5.374 3.905 2.052 6.319c.113.345-.01.724-.304.937-.146.108-.319.16-.492.16zm-5.868-5.94c.172 0 .345.053.493.16l3.778 2.745-1.443-4.442c-.113-.345.01-.724.304-.937l3.778-2.744h-4.67c-.364 0-.685-.235-.798-.58l-1.443-4.442-1.443 4.441c-.112.346-.433.58-.798.58h-4.67l3.778 2.745c.295.214.418.592.305.937l-1.443 4.442 3.778-2.745c.148-.107.32-.16.493-.16zM13.998 51.464c-1.203 0-2.416-.22-3.602-.66l-.036-.014c-1.256-.527-2.268-1.134-3.095-1.85l-.1-.096c-.26-.259-.382-.626-.336-1 .036-.297.175-.577.39-.793l.044-.04c.934-.811 2.016-1.453 3.13-1.866 2.376-.875 4.83-.875 7.203 0 1.115.41 2.196 1.055 3.13 1.865l.099.096c.48.48.455 1.282-.055 1.793l-.043.04c-.827.718-1.839 1.322-3.095 1.851l-.036.015c-1.184.438-2.395.659-3.598.659zm-3.006-2.227c.995.364 2.004.549 3.004.549s2.009-.185 3.003-.549c.894-.379 1.638-.793 2.258-1.263-.69-.535-1.457-.966-2.238-1.254-1-.369-2.016-.556-3.023-.556-1.004 0-2.02.187-3.023.556-.781.288-1.548.72-2.239 1.254.621.47 1.364.884 2.258 1.263zM7.778 31.801c-.165 0-.328-.033-.484-.098-1.12-.36-2.181-.945-3.154-1.736l-.022-.016c-.925-.803-1.685-1.697-2.32-2.735l-.122-.202v-.062C1.15 26.039.786 25.01.532 23.74l-.007-.04c-.187-1.252-.165-2.515.062-3.656l.05-.25.116-.117c.256-.499.83-.762 1.412-.616l.086.026c1.165.43 2.23 1.031 3.164 1.793.952.775 1.735 1.676 2.395 2.752l.026.048c.628 1.194 1.016 2.32 1.189 3.447.218 1.105.204 2.313-.043 3.593v.077l-.024.1c-.087.348-.326.633-.66.787-.162.081-.342.117-.52.117zm-2.57-3.126c.691.559 1.432.993 2.206 1.292.132-.906.12-1.754-.033-2.526l-.008-.04c-.141-.938-.47-1.89-1.004-2.91-.556-.905-1.213-1.657-2.006-2.304-.662-.537-1.403-.983-2.206-1.328-.11.817-.1 1.697.03 2.574.232 1.158.565 2.066 1.047 2.852l.122.202v.05c.513.803 1.122 1.503 1.853 2.138zM9.784 42.307c-.548 0-1.114-.043-1.701-.127l-.012-.002c-1.204-.19-2.393-.626-3.438-1.264-1.035-.577-2.02-1.414-2.77-2.353-.758-.93-1.36-1.995-1.789-3.16l-.053-.141v-.132c-.038-.297.034-.604.211-.86.18-.262.449-.446.755-.523l.039-.01c1.148-.23 2.342-.249 3.65-.062l.012.003c1.204.189 2.393.625 3.438 1.263 1.035.577 2.02 1.414 2.77 2.354.756.93 1.36 1.994 1.789 3.159l.053.141v.132c.083.621-.326 1.225-.966 1.386l-.039.01c-.63.124-1.277.186-1.949.186zm-1.457-1.786c.93.132 1.783.144 2.596.034-.345-.803-.791-1.544-1.328-2.208-.626-.784-1.44-1.474-2.296-1.949l-.031-.016c-.86-.528-1.841-.887-2.834-1.045-.93-.132-1.783-.144-2.596-.034.345.803.791 1.544 1.328 2.208.626.784 1.44 1.474 2.297 1.948l.028.017c.863.528 1.844.89 2.836 1.045zM43.64 51.464c-1.203 0-2.416-.22-3.603-.66l-.036-.014c-1.256-.527-2.267-1.134-3.094-1.85l-.043-.04c-.509-.512-.535-1.314-.056-1.794l.099-.096c.935-.81 2.016-1.455 3.13-1.865 2.373-.875 4.83-.875 7.203 0 1.115.41 2.196 1.055 3.13 1.865l.044.04c.216.217.355.497.39.794.048.377-.074.741-.335 1.002l-.098.096c-.827.717-1.839 1.323-3.095 1.85l-.036.015c-1.184.436-2.397.657-3.6.657zm-3.003-2.227c.994.364 2.003.549 3.003.549s2.011-.185 3.003-.549c.894-.379 1.638-.793 2.258-1.263-.69-.535-1.457-.966-2.238-1.254-1-.369-2.016-.556-3.023-.556-1.004 0-2.02.187-3.023.556-.781.288-1.548.717-2.238 1.254.618.47 1.361.884 2.258 1.263zM49.863 31.804c-.458 0-.89-.264-1.122-.732l-.089-.177v-.173c-.213-1.119-.23-2.353-.045-3.571.18-1.194.592-2.335 1.258-3.49.535-.959 1.297-1.86 2.333-2.76l.021-.016c.935-.76 2.002-1.364 3.164-1.793l.086-.026c.602-.151 1.22.144 1.506.714l.088.178v.172c.214 1.12.23 2.352.046 3.572-.17 1.133-.556 2.226-1.15 3.252v.06l-.123.202c-.635 1.038-1.392 1.932-2.32 2.735l-.022.016c-.973.791-2.032 1.374-3.152 1.733-.156.07-.319.104-.48.104zm3.423-9.627c-.882.767-1.525 1.52-1.959 2.303l-.007.012c-.563.973-.908 1.923-1.054 2.906-.132.874-.144 1.75-.036 2.564.771-.297 1.51-.73 2.2-1.29.731-.635 1.338-1.334 1.853-2.137v-.05l.122-.202c.547-.892.897-1.846 1.045-2.833.132-.885.144-1.772.034-2.596-.8.347-1.537.788-2.198 1.323zM47.851 42.307c-.67 0-1.316-.062-1.948-.19l-.039-.009c-.307-.076-.575-.261-.755-.522-.177-.254-.252-.564-.21-.86v-.133l.052-.141c.429-1.165 1.033-2.23 1.793-3.164l.017-.02c.899-1.035 1.8-1.8 2.759-2.332 1.155-.668 2.298-1.08 3.49-1.258 1.251-.187 2.514-.165 3.655.062l.039.01c.577.144.966.671.966 1.311v.348l-.161.16c-.364 1.064-.93 2.074-1.685 3.004l-.017.021c-.837.966-1.807 1.772-2.804 2.328-1.046.635-2.234 1.074-3.438 1.263l-.012.002c-.587.08-1.153.12-1.702.12zm-1.136-1.752c.813.11 1.666.1 2.596-.034.993-.158 1.973-.517 2.833-1.045l.03-.017c.831-.462 1.646-1.138 2.358-1.958.558-.69.992-1.428 1.29-2.2-.815-.106-1.69-.096-2.565.036-.983.148-1.935.493-2.906 1.054l-.011.008c-.784.436-1.537 1.076-2.304 1.958-.535.661-.978 1.397-1.32 2.198zM9.701 20.962c-.343 0-.686-.13-.935-.379l-.04-.043c-.81-.935-1.456-2.016-1.865-3.13-.437-1.187-.66-2.4-.66-3.603 0-1.204.22-2.416.66-3.603.41-1.112 1.054-2.196 1.864-3.13l.096-.101c.28-.28.674-.41 1.055-.348.316.05.587.228.765.49.781.853 1.378 1.83 1.872 3.065l.007.022c.405 1.102.604 2.28.604 3.602 0 1.321-.197 2.5-.604 3.603l-.014.036c-.528 1.256-1.134 2.268-1.85 3.095l-.097.098-.057.057-.07.046c-.218.15-.474.223-.73.223H9.7zM9.675 8.565c-.53.685-.954 1.445-1.24 2.22-.369.999-.556 2.015-.556 3.022 0 1.004.187 2.02.556 3.022.288.782.717 1.549 1.254 2.24.47-.62.885-1.362 1.263-2.259.333-.908.494-1.891.494-3.003 0-1.115-.163-2.1-.496-3.01-.352-.885-.765-1.607-1.275-2.232zM47.97 20.96c-.245 0-.492-.073-.71-.219l-.07-.045-.134-.135c-.793-.85-1.429-1.91-1.884-3.152-.436-1.186-.66-2.399-.66-3.602 0-1.201.221-2.412.658-3.596.388-1.103.992-2.124 1.85-3.118.225-.286.532-.456.868-.477.343-.024.67.103.927.362l.075.076c.793.851 1.428 1.91 1.884 3.152.436 1.187.659 2.4.659 3.603 0 1.203-.22 2.414-.66 3.603-.41 1.114-1.054 2.195-1.864 3.13l-.04.043c-.248.247-.571.374-.9.374zm.011-12.395c-.558.711-.961 1.438-1.23 2.207l-.004.012c-.37 1-.556 2.018-.556 3.023 0 1.004.187 2.02.556 3.022.314.854.724 1.6 1.217 2.218.528-.686.952-1.443 1.237-2.218.37-1 .556-2.018.556-3.022 0-1.005-.187-2.02-.556-3.023-.316-.853-.726-1.599-1.22-2.22zM41.543 10.726h-.125l-.07-.012c-1.105-.184-2.174-.546-3.18-1.078l-.02-.01c-.966-.542-1.819-1.273-2.543-2.172-.719-.781-1.29-1.759-1.697-2.905-.427-1.105-.606-2.203-.549-3.356.017-.632.559-1.14 1.225-1.14h.125l.07.011c1.121.187 2.207.564 3.142 1.091.99.556 1.889 1.29 2.598 2.117l.02.021c.795.995 1.344 1.942 1.68 2.893l.004.015c.353 1.06.54 2.2.54 3.3.005.688-.535 1.225-1.22 1.225zm-2.58-2.567c.674.355 1.381.621 2.107.791-.048-.745-.196-1.5-.433-2.212-.274-.767-.73-1.549-1.398-2.388-.582-.676-1.32-1.275-2.138-1.735-.62-.35-1.328-.619-2.069-.791.024.721.173 1.424.446 2.13l.01.025c.333.944.793 1.738 1.368 2.358l.041.048c.59.734 1.285 1.333 2.066 1.774zM16.16 10.726h-.12c-.687 0-1.224-.539-1.224-1.225 0-1.1.187-2.24.54-3.3l.004-.015c.338-.954.887-1.9 1.683-2.895l.019-.022c.71-.827 1.608-1.56 2.598-2.116.935-.525 2.023-.904 3.145-1.091l.07-.012h.124c.667 0 1.209.51 1.225 1.141.058 1.153-.12 2.25-.549 3.356-.39 1.105-.958 2.11-1.64 2.903l-.002.002c-.805.93-1.656 1.64-2.596 2.17l-.019.009c-1.06.56-2.073.904-3.188 1.081l-.07.014zm.785-3.988c-.238.714-.384 1.47-.434 2.217.716-.163 1.397-.422 2.107-.796.764-.431 1.464-1.021 2.14-1.798.552-.642 1.012-1.464 1.335-2.38l.01-.024c.276-.707.422-1.41.446-2.13-.74.172-1.448.443-2.069.79-.817.46-1.556 1.06-2.138 1.736-.669.836-1.127 1.618-1.397 2.385z"/>
        <path d="M28.846 53.947c-4.245 0-8.416-1.088-12.06-3.145-.27-.153-.433-.44-.426-.752.007-.31.187-.59.463-.729l.11-.055c.017-.007.033-.017.05-.024.904-.381 1.652-.798 2.275-1.27-.69-.535-1.457-.967-2.239-1.254-1-.37-2.016-.556-3.022-.556-.765 0-1.506.1-2.199.3-.304.086-.635-.005-.848-.24-1.347-1.472-2.462-2.97-3.313-4.456-.16-.28-.146-.628.039-.892.182-.266.503-.403.822-.352.827.129 1.656.141 2.426.033-.346-.805-.792-1.546-1.33-2.21-.626-.784-1.441-1.474-2.297-1.949-.005-.002-.01-.005-.015-.01-.55-.32-1.131-.58-1.829-.812-.275-.091-.484-.321-.55-.604-.418-1.788-.629-3.581-.629-5.324 0-.314.175-.601.456-.745.278-.144.616-.12.872.062.6.43 1.208.765 1.815 1 .132-.906.12-1.755-.034-2.527l-.007-.04c-.14-.933-.465-1.882-.997-2.896-.31-.463-.616-.87-.94-1.304-.153-.206-.206-.472-.141-.722.436-1.64 1.095-3.236 2.008-4.882.149-.269.437-.434.739-.432.307.003.587.17.733.441.276.513.585 1 .923 1.453.467-.616.88-1.357 1.256-2.246.333-.909.494-1.891.494-3.004 0-.426 0-.831-.048-1.22-.031-.256.055-.513.24-.697 1.085-1.086 2.3-2.069 3.612-2.925.388-.254.908-.143 1.16.245.254.388.144.908-.244 1.16-1.105.72-2.134 1.536-3.064 2.433.022.343.022.678.022 1.004 0 1.321-.197 2.5-.604 3.603l-.015.036c-.527 1.256-1.134 2.268-1.85 3.095l-.04.043-.056.055c-.038.038-.082.074-.127.105-.515.343-1.232.276-1.666-.16-.02-.02-.038-.041-.055-.063-.213-.259-.417-.532-.611-.812-.446.942-.803 1.872-1.077 2.814.254.343.513.697.772 1.086.017.024.031.048.046.074.628 1.194 1.016 2.32 1.189 3.447.218 1.105.203 2.315-.043 3.595-.003.058-.01.118-.024.175-.087.348-.326.633-.66.787-.32.148-.683.153-1.006.016-.432-.136-.86-.314-1.29-.53.074.983.216 1.978.43 2.973.613.228 1.166.489 1.684.791 1.038.578 2.026 1.417 2.778 2.359.758.93 1.36 1.994 1.789 3.159.03.086.05.177.052.27.087.622-.326 1.226-.966 1.386l-.03.008c-.569.12-1.17.182-1.784.189.551.805 1.184 1.61 1.893 2.411.69-.153 1.41-.232 2.146-.232 1.203 0 2.416.22 3.602.659 1.115.41 2.196 1.055 3.131 1.865l.043.04.055.056c.48.48.456 1.285-.055 1.793l-.043.04c-.487.422-1.036.803-1.661 1.156 3.027 1.426 6.376 2.174 9.778 2.174 3.346 0 6.68-.746 9.739-2.167-.633-.352-1.187-.738-1.676-1.162l-.043-.041c-.51-.51-.535-1.314-.055-1.793l.055-.055c.014-.015.029-.03.043-.041.935-.81 2.016-1.455 3.13-1.865 1.187-.436 2.4-.66 3.603-.66.736 0 1.455.08 2.146.233.71-.8 1.342-1.608 1.893-2.411-.613-.007-1.215-.07-1.783-.19l-.031-.007c-.307-.076-.576-.26-.755-.522-.178-.257-.252-.563-.211-.863.002-.094.019-.185.052-.27.43-1.166 1.031-2.23 1.793-3.165l.017-.022c.899-1.035 1.8-1.797 2.76-2.332.517-.302 1.07-.56 1.684-.79.211-.998.355-1.99.43-2.973-.427.216-.856.393-1.288.53-.611.258-1.29-.003-1.604-.63-.052-.109-.083-.226-.088-.348-.214-1.12-.23-2.354-.046-3.577.18-1.193.592-2.334 1.259-3.49.215-.388.47-.762.786-1.155-.305-.947-.666-1.86-1.098-2.764-.201.28-.42.551-.657.813l-.026.028c-.436.437-1.098.504-1.61.161-.046-.031-.09-.067-.13-.105l-.055-.056c-.008-.007-.015-.014-.02-.021-.793-.851-1.426-1.91-1.884-3.152-.436-1.187-.659-2.4-.659-3.603 0-.326 0-.662.022-1.004-.995-.95-2.117-1.798-3.1-2.512-.374-.274-.457-.799-.184-1.173.273-.373.798-.457 1.172-.184 1.127.82 2.435 1.812 3.576 2.955.182.183.271.441.24.698-.048.39-.048.793-.048 1.22 0 1.004.187 2.02.556 3.023.317.858.726 1.603 1.225 2.226.35-.438.64-.91.87-1.404.132-.288.415-.475.731-.487.314-.012.611.156.765.432.877 1.58 1.55 3.169 2.057 4.858.083.276.016.576-.173.794-.384.439-.666.832-.892 1.234-.002.005-.004.01-.007.012-.563.973-.908 1.923-1.055 2.906-.131.872-.143 1.75-.036 2.564.604-.237 1.213-.57 1.81-.997.257-.182.592-.206.873-.062.28.144.455.431.455.745 0 1.743-.21 3.536-.628 5.324-.067.283-.276.513-.551.604-.698.233-1.28.492-1.83.813-.004.002-.009.004-.014.01-.783.436-1.536 1.076-2.303 1.958-.535.661-.978 1.397-1.32 2.2.769.108 1.598.096 2.425-.033.319-.05.638.086.822.352.182.266.2.614.039.892-.849 1.486-1.964 2.986-3.313 4.456-.216.235-.544.326-.849.24-.695-.2-1.433-.3-2.198-.3-1.004 0-2.02.187-3.022.556-.782.287-1.549.719-2.24 1.253.617.468 1.358.883 2.247 1.259l.134.045c.316.106.54.386.57.72.032.33-.136.65-.426.81-3.723 2.056-7.89 3.142-12.079 3.142z"/>
    </g>
</svg>
