<svg xmlns="http://www.w3.org/2000/svg" xmlns:xlink="http://www.w3.org/1999/xlink" width="21" height="20" viewBox="0 0 21 20">
    <defs>
        <path id="a" d="M13.438.5c-1.523 0-2.984.675-3.938 1.742C8.546 1.175 7.085.5 5.562.5 2.868.5.75 2.517.75 5.083c0 3.15 2.975 5.717 7.481 9.617L9.5 15.792l1.269-1.1c4.506-3.892 7.481-6.459 7.481-9.609C18.25 2.517 16.133.5 13.437.5zm-3.85 12.958l-.088.084-.088-.084C5.247 9.867 2.5 7.492 2.5 5.083c0-1.666 1.313-2.916 3.063-2.916 1.347 0 2.66.825 3.123 1.966h1.636c.456-1.141 1.768-1.966 3.116-1.966 1.75 0 3.062 1.25 3.062 2.916 0 2.409-2.748 4.784-6.912 8.375z"/>
        <path id="c" d="M0 0h44v42H0z"/>
    </defs>
    <g fill="none" fill-rule="evenodd" transform="translate(1 2)">
        <mask id="b" fill="#fff">
            <use xlink:href="#a"/>
        </mask>
        <g mask="url(#b)">
            <use fill="#FFF" transform="translate(-12 -13)" xlink:href="#c"/>
        </g>
    </g>
</svg>
