<?xml version="1.0" encoding="UTF-8"?>
<svg width="24px" height="24px" viewBox="0 0 24 24" version="1.1" xmlns="http://www.w3.org/2000/svg" xmlns:xlink="http://www.w3.org/1999/xlink">
    <!-- Generator: Sketch 58 (84663) - https://sketch.com -->
    <title>ic-gender-2</title>
    <desc>Created with Sketch.</desc>
    <g id="ic-gender-2" stroke="none" stroke-width="1" fill="none" fill-rule="evenodd">
        <path d="M12.25,1 C15.75,1 18.5,4.25 18.5,7.25 C18.5,10.25 16.375,12.75 13.5,13.375 L13.5,13.375 L13.5,16 L14.75,16 C15.4403559,16 16,16.5596441 16,17.25 C16,17.9403559 15.4403559,18.5 14.75,18.5 L14.75,18.5 L13.5,18.5 L13.5,20.75 C13.5,21.4403559 12.9403559,22 12.25,22 C11.5596441,22 11,21.4403559 11,20.75 L11,20.75 L11,18.5 L9.75,18.5 C9.05964406,18.5 8.5,17.9403559 8.5,17.25 C8.5,16.5596441 9.05964406,16 9.75,16 L9.75,16 L11,16 L11,13.375 C8.125,12.75 6,10.25 6,7.25 C6,3.75 8.75,1 12.25,1 Z M12.25,3.5 C10.125,3.5 8.5,5.125 8.5,7.25 C8.5,9.375 10.125,11 12.25,11 C14.375,11 16,9.375 16,7.25 C16,5.125 14.375,3.5 12.25,3.5 Z" id="Fill-1" fill="#FFFFFF"></path>
    </g>
</svg>