<?xml version="1.0" encoding="UTF-8"?>
<svg width="24px" height="24px" viewBox="0 0 24 24" version="1.1" xmlns="http://www.w3.org/2000/svg" xmlns:xlink="http://www.w3.org/1999/xlink">
    <!-- Generator: Sketch 58 (84663) - https://sketch.com -->
    <title>ic-gender-1</title>
    <desc>Created with Sketch.</desc>
    <g id="ic-gender-1" stroke="none" stroke-width="1" fill="none" fill-rule="evenodd">
        <path d="M22,2 L22,7.71428571 C22,8.50326393 21.3604068,9.14285714 20.5714286,9.14285714 C19.7824504,9.14285714 19.1428571,8.50326393 19.1428571,7.71428571 L19.1428571,7.71428571 L19.1428571,6.85714286 L15.0967716,10.8874809 L15.0500642,10.8402706 C15.8298609,11.9848178 16.2857143,13.3677452 16.2857143,14.8571429 C16.2857143,18.8020339 13.0877482,22 9.14285714,22 C5.19796607,22 2,18.8020339 2,14.8571429 C2,10.9122518 5.19796607,7.71428571 9.14285714,7.71428571 C10.6244637,7.71428571 12.000711,8.16538236 13.1417483,8.93772499 L13.0949707,8.89176287 L17.1428571,4.85714286 L16.2857143,4.85714286 C15.4967361,4.85714286 14.8571429,4.21754964 14.8571429,3.42857143 C14.8571429,2.63959321 15.4967361,2 16.2857143,2 L16.2857143,2 L22,2 Z M9.14285714,10.5714286 C6.7759225,10.5714286 4.85714286,12.4902082 4.85714286,14.8571429 C4.85714286,17.2240775 6.7759225,19.1428571 9.14285714,19.1428571 C11.5097918,19.1428571 13.4285714,17.2240775 13.4285714,14.8571429 C13.4285714,12.4902082 11.5097918,10.5714286 9.14285714,10.5714286 Z" id="Fill-1" fill="#FFFFFF"></path>
    </g>
</svg>