<svg xmlns="http://www.w3.org/2000/svg" width="37" height="57" viewBox="0 0 37 57">
    <g fill="#FFF" fill-rule="evenodd">
        <path d="M33.351.076H3.031C1.462.076.19 1.348.19 2.918v51.164c0 1.57 1.273 2.842 2.843 2.842h30.32c1.57 0 2.841-1.272 2.841-2.842V2.918c0-1.57-1.272-2.842-2.842-2.842zM34.3 54.08c0 .252-.1.493-.278.67-.177.179-.419.278-.67.278H3.031c-.523 0-.947-.424-.947-.948V2.918c0-.524.424-.948.948-.948H33.35c.251 0 .493.1.67.278.178.177.278.419.278.67v51.163z"/>
        <path d="M11.559 3.866h-7.58V9.55h7.58V3.866zm-1.895 3.79h-3.79V5.76h3.79v1.895zM23.955 30.473c1.215.841 2.626 1.353 4.097 1.485.82.017 1.609-.308 2.18-.893.649-.59.987-1.447.916-2.323-.118-.813-.502-1.564-1.09-2.137.588-.573.97-1.324 1.09-2.136.071-.877-.267-1.734-.916-2.324-1.564-1.563-3.814-.884-6.28.594 1.479-2.463 2.16-4.713.595-6.279-.59-.651-1.447-.99-2.324-.916-.812.12-1.563.502-2.136 1.09-.573-.588-1.324-.97-2.137-1.09-.876-.074-1.734.265-2.323.916-1.564 1.564-.886 3.814.592 6.278-2.464-1.478-4.714-2.158-6.277-.593-.65.59-.988 1.448-.917 2.324.12.813.502 1.563 1.09 2.137-.588.573-.97 1.324-1.09 2.136-.071.877.268 1.734.917 2.324.57.587 1.362.91 2.179.893.55-.012 1.092-.111 1.61-.294-1.537 1.73-2.318 4-2.172 6.31v2.843H9.664v1.895h7.58v-1.895h-3.79v-2.843c-.132-1.753.412-3.489 1.523-4.85-.518 1.23-.263 2.65.65 3.626.59.651 1.447.99 2.323.916.812-.12 1.563-.502 2.137-1.09.573.588 1.324.97 2.136 1.09.085.007.173.012.258.012.787-.014 1.533-.35 2.066-.928 1.563-1.566.883-3.814-.592-6.278zm4.936-6.987c.244.19.384.483.372.793-.154.557-.495 1.043-.967 1.379h-2.525v1.895h2.525c.472.334.813.822.967 1.378.012.31-.128.604-.372.794-1.173 1.175-4.359-.995-7.222-3.12 2.864-2.124 6.05-4.294 7.222-3.12zM16.967 17.8c.178-.22.438-.355.72-.374.024-.003.047-.003.073 0 .557.154 1.045.497 1.379.969v2.525h1.895v-2.525c.334-.472.822-.813 1.379-.967.31-.012.606.126.793.372 1.173 1.172-.995 4.358-3.12 7.222-2.124-2.864-4.292-6.05-3.119-7.222zm-5.685 11.924c-.244-.19-.384-.483-.372-.794.154-.556.495-1.042.967-1.378h2.525v-1.895h-2.525c-.472-.334-.813-.822-.967-1.379-.012-.31.128-.604.372-.793.242-.23.564-.348.896-.332 1.504 0 4.02 1.739 6.324 3.451-2.861 2.125-6.045 4.295-7.22 3.12zm11.924 5.685c-.187.246-.483.383-.793.372-.557-.154-1.043-.495-1.379-.967V32.29h-1.895v2.525c-.334.472-.822.813-1.379.967-.31.014-.606-.126-.793-.372-1.173-1.173.995-4.359 3.12-7.222 2.124 2.863 4.292 6.05 3.119 7.222zM24.824 53.134h7.58V47.45h-7.58v5.685zm1.895-3.79h3.79v1.895h-3.79v-1.895zM4.927 13.34L6.822 13.34 6.822 11.445 4.927 11.445zM8.717 13.34L10.612 13.34 10.612 11.445 8.717 11.445zM5.875 42.712L7.77 42.712 7.77 40.817 5.875 40.817zM29.561 45.555L31.456 45.555 31.456 43.66 29.561 43.66zM25.771 45.555L27.666 45.555 27.666 43.66 25.771 43.66zM31.456 3.866H26.72V5.76h3.79v6.632h1.895v-7.58c0-.25-.1-.492-.278-.67-.177-.178-.419-.277-.67-.277zM5.875 45.555H3.98v6.632c0 .251.1.493.277.67.177.178.42.278.67.278h4.738V51.24h-3.79v-5.685z"/>
    </g>
</svg>
