<?xml version="1.0" encoding="UTF-8"?>
<svg width="24px" height="24px" viewBox="0 0 24 24" version="1.1" xmlns="http://www.w3.org/2000/svg" xmlns:xlink="http://www.w3.org/1999/xlink">
    <!-- Generator: Sketch 58 (84663) - https://sketch.com -->
    <title>ic-gender-3</title>
    <desc>Created with Sketch.</desc>
    <g id="ic-gender-3" stroke="none" stroke-width="1" fill="none" fill-rule="evenodd">
        <path d="M19.3333333,2 L19.3333333,5.80952381 C19.3333333,6.33550929 18.9069379,6.76190476 18.3809524,6.76190476 C17.8549669,6.76190476 17.4285714,6.33550929 17.4285714,5.80952381 L17.4285714,5.80952381 L17.4285714,5.23809524 L14.7619048,7.9047619 C15.2380952,8.66666667 15.5238095,9.61904762 15.5238095,10.5714286 C15.5238095,12.8571429 13.9047619,14.7619048 11.7142857,15.2380952 L11.7142857,15.2380952 L11.7142857,17.2380952 L12.6666667,17.2380952 C13.1926521,17.2380952 13.6190476,17.6644907 13.6190476,18.1904762 C13.6190476,18.7164617 13.1926521,19.1428571 12.6666667,19.1428571 L12.6666667,19.1428571 L11.7142857,19.1428571 L11.7142857,21.047619 C11.7142857,21.5736045 11.2878902,22 10.7619048,22 C10.2359193,22 9.80952381,21.5736045 9.80952381,21.047619 L9.80952381,21.047619 L9.80952381,19.1428571 L8.85714286,19.1428571 C8.33115738,19.1428571 7.9047619,18.7164617 7.9047619,18.1904762 C7.9047619,17.6644907 8.33115738,17.2380952 8.85714286,17.2380952 L8.85714286,17.2380952 L9.80952381,17.2380952 L9.80952381,15.2380952 C7.61904762,14.7619048 6,12.8571429 6,10.5714286 C6,7.9047619 8.0952381,5.80952381 10.7619048,5.80952381 C11.7142857,5.80952381 12.6666667,6.0952381 13.4285714,6.57142857 L13.4285714,6.57142857 L16.0952381,3.9047619 L15.5238095,3.9047619 C14.997824,3.9047619 14.5714286,3.47836643 14.5714286,2.95238095 C14.5714286,2.42639548 14.997824,2 15.5238095,2 L15.5238095,2 L19.3333333,2 Z M10.7619048,7.71428571 C9.14285714,7.71428571 7.9047619,8.95238095 7.9047619,10.5714286 C7.9047619,12.1904762 9.14285714,13.4285714 10.7619048,13.4285714 C12.3809524,13.4285714 13.6190476,12.1904762 13.6190476,10.5714286 C13.6190476,8.95238095 12.3809524,7.71428571 10.7619048,7.71428571 Z" id="Fill-1" fill="#FFFFFF"></path>
    </g>
</svg>