<?xml version="1.0" encoding="UTF-8"?>
<svg width="18px" height="18px" viewBox="0 0 24 24" version="1.1" xmlns="http://www.w3.org/2000/svg" xmlns:xlink="http://www.w3.org/1999/xlink">
    <!-- Generator: Sketch 58 (84663) - https://sketch.com -->
    <title>hs_special</title>
    <desc>Created with Sketch.</desc>
    <g id="hs_special" stroke="none" stroke-width="1" fill="none" fill-rule="evenodd">
        <path d="M23.1330939,9.38341377 C23.0393868,9.09736076 22.7917898,8.88923497 22.4939189,8.84681186 L15.4549644,7.82095526 L12.2984826,1.44486193 C12.1663043,1.17262168 11.8910944,1 11.5882742,1 C11.2854539,1 11.010234,1.17261915 10.8780657,1.44486193 L7.7215839,7.82095526 L0.682630387,8.84681186 C0.382764611,8.88725523 0.13320053,9.09538607 0.0394908972,9.38341377 C-0.0552035582,9.67045161 0.023708488,9.98609979 0.240717878,10.1962205 L5.33856131,15.1597251 L4.15488062,22.1749428 C4.10950556,22.4659199 4.23083315,22.7579071 4.46757434,22.9315136 C4.70529782,23.1061075 5.01897384,23.1337255 5.2833355,23.0035218 L11.5962992,19.697044 L17.9092629,23.0035218 C18.1746094,23.142604 18.4951817,23.1189304 18.7378268,22.9433517 C18.9804819,22.767773 19.1027918,22.4698794 19.0534749,22.1749378 L17.8540118,15.15972 L22.9518563,10.1962154 C23.1619593,9.98216555 23.2320004,9.66650727 23.133354,9.38340872 L23.1330939,9.38341377 Z" fill="#FFDF5E"></path>
    </g>
</svg>
