<?xml version="1.0" encoding="UTF-8"?>
<svg width="24px" height="24px" viewBox="0 0 24 24" version="1.1" xmlns="http://www.w3.org/2000/svg" xmlns:xlink="http://www.w3.org/1999/xlink">
    <!-- Generator: Sketch 58 (84663) - https://sketch.com -->
    <title>ic_notifications</title>
    <desc>Created with Sketch.</desc>
    <defs>
        <path d="M8,19.5 C9.1,19.5 10,18.6 10,17.5 L6,17.5 C6,18.6 6.89,19.5 8,19.5 L8,19.5 Z M14,13.5 L14,8.5 C14,5.43 12.36,2.86 9.5,2.18 L9.5,1.5 C9.5,0.67 8.83,0 8,0 C7.17,0 6.5,0.67 6.5,1.5 L6.5,2.18 C3.63,2.86 2,5.42 2,8.5 L2,13.5 L0,15.5 L0,16.5 L16,16.5 L16,15.5 L14,13.5 L14,13.5 Z" id="path-1"></path>
        <rect id="path-3" x="0" y="0" width="50" height="50"></rect>
    </defs>
    <g id="ic_notifications" stroke="none" stroke-width="1" fill="none" fill-rule="evenodd">
        <g id="ic_search-copy" transform="translate(4.000000, 2.000000)">
            <mask id="mask-2" fill="white">
                <use xlink:href="#path-1"></use>
            </mask>
            <g id="Mask"></g>
            <g id="Colors/White" mask="url(#mask-2)">
                <g transform="translate(-17.000000, -16.000000)">
                    <mask id="mask-4" fill="white">
                        <use xlink:href="#path-3"></use>
                    </mask>
                    <use id="White" stroke="none" fill="#FFFFFF" fill-rule="evenodd" xlink:href="#path-3"></use>
                </g>
            </g>
        </g>
    </g>
</svg>