<svg xmlns="http://www.w3.org/2000/svg" width="52" height="52" viewBox="0 0 52 52">
    <path fill="#FFF" fill-rule="evenodd" d="M50.931 38.497c-2.963-2.215-5.24-5.148-6.925-8.985l2.09-1.654c1.934-1.528 2.277-4.274.81-6.24-.56-.748-1.278-1.278-2.152-1.56.78-1.403.843-3.15-.03-4.616-.5-.874-1.311-1.592-2.247-1.966.343-.499.561-1.092.655-1.716.187-1.185-.094-2.34-.811-3.307-.593-.78-1.404-1.31-2.309-1.56.094-.25.156-.467.219-.748.25-1.28-.032-2.59-.75-3.682-1.465-2.121-4.336-2.745-6.52-1.404l-2.214 1.342C29.81.561 27.657-.438 25.63.186l-8.704 2.652c-.967.28-1.778.905-2.34 1.747l-1.341-.343c-2.309-.593-4.68.81-5.241 3.12-.219.904-.156 1.809.156 2.62-1.373.437-2.527 1.56-2.902 3.057-.374 1.435.031 2.902.967 3.931-.717.562-1.248 1.373-1.497 2.309-.28 1.123-.125 2.277.468 3.276.062.125.156.25.25.374-.843.593-1.467 1.466-1.716 2.465-.281 1.123-.125 2.277.468 3.275.436.75 1.06 1.31 1.84 1.685-1.092 1.06-2.028 2.309-2.776 3.682l-3.12 5.74c-.312.593-.094 1.341.5 1.653.186.094.373.156.592.156.437 0 .873-.218 1.092-.655l3.12-5.74c.935-1.747 2.277-3.213 3.868-4.337h.031c.063-.03.125-.093.187-.124.094-.063.156-.125.25-.156l.28-.188c.25-.156.5-.28.75-.405 1.715-.874 3.244-2.09 4.523-3.557l1.622.406c.344.093.718.125 1.061.125 1.934 0 3.682-1.31 4.18-3.245.282-1.123.126-2.277-.467-3.276 0-.03-.031-.03-.031-.03.03 0 .03-.032.062-.032.998-.593 1.685-1.529 1.965-2.652.312-1.185.094-2.371-.499-3.307.967-.561 1.747-1.497 2.028-2.683.25-.998.125-1.997-.28-2.901l5.708-3.494 3.62-2.184c1.091-.655 2.495-.343 3.213.686.374.53.499 1.186.374 1.81-.125.623-.499 1.185-1.03 1.56l-.218.155c-.031.032-.062.032-.093.063l-2.84 1.903c-.561.374-.717 1.154-.343 1.716.375.561 1.155.717 1.716.343l2.902-1.934c.81-.5 1.903-.281 2.464.499.312.405.437.936.343 1.435-.093.499-.374.967-.78 1.248l-1.84 1.279-.031.031-1.123.78c-.562.374-.687 1.154-.312 1.716.374.561 1.154.686 1.715.312l1.155-.811c.499-.343 1.092-.437 1.684-.312.593.125 1.123.499 1.404 1.03.53.935.312 2.12-.53 2.776l-1.654 1.341-1.03.843c-.53.437-.623 1.185-.186 1.716.436.53 1.185.624 1.716.187l1.03-.842c.436-.344.997-.5 1.559-.437.562.062 1.06.374 1.404.81.686.906.499 2.154-.375 2.871L29.374 37.997c-.78.624-1.84.812-2.776.5-2.34-.75-4.93.156-6.271 2.215l-5.803 8.954c-.374.561-.218 1.341.375 1.684.218.125.436.187.655.187.405 0 .81-.187 1.03-.561l5.802-8.954c.749-1.123 2.153-1.653 3.432-1.217.749.25 1.497.312 2.246.25 3.182 2.933 4.93 6.052 5.397 9.453.094.624.624 1.06 1.217 1.06h.156c.686-.093 1.154-.717 1.06-1.372-.467-3.65-2.214-6.988-5.272-10.077.094-.062.187-.125.28-.218l11.17-8.86c1.84 3.961 4.274 7.05 7.456 9.39.218.156.468.25.717.25.375 0 .749-.188.999-.5.343-.499.218-1.279-.312-1.684zM17.643 5.208l8.704-2.651c.187-.063.374-.094.562-.094.312 0 .592.062.873.218.406.219.718.562.874.999L22.51 7.392l-.655.406-3.12.936c-.468.156-.967.093-1.435-.125-.125-.062-.156-.125-.25-.218-.28-.219-.53-.53-.53-.905 0-.094-.125-.156-.125-.25 0-.031-.031-.031-.031-.062-.031-.28-.031-.562.062-.811.031-.094.063-.187.125-.281.25-.406.624-.749 1.092-.874zm-7.269 2.777c.218-.842.967-1.404 1.81-1.404.156 0 .405.031.561.063l1.31.311c0 .063-.093.125-.093.188 0 .062-.031.124-.031.187v.156c0 .093 0 .156.03.25 0 .03 0 .093.032.124l.094.375c.343 1.092 1.091 1.996 2.09 2.558.156.062.28.156.437.218.062.031.093.031.156.063.093.03.218.062.312.093.062 0 .093.031.156.031.124.032.218.032.343.063.062 0 .093.031.156.031.156.031.312.094.468.094v.062c.03 0 .03-.062.062-.062.094 0 .218-.032.312-.063.031 0 .094-.031.125-.031.093 0 .187-.031.28-.062.032 0 .094-.032.125-.032l.375-.093 3.276-.999c.03 0 .03 0 .062-.03.094.342.125.686.031 1.029-.25.998-1.279 1.59-2.277 1.341l-8.83-2.246c-.998-.218-1.622-1.217-1.372-2.215zM7.66 13.663c.218-.842.967-1.404 1.81-1.404.155 0 .311.031.467.063l1.217.312 8.83 2.246c.998.312 1.59 1.248 1.278 2.246 0 .468-.405.874-.81 1.154-.438.25-.905.312-1.405.219L9.033 15.94c-1.03-.28-1.622-1.279-1.373-2.277zm-.187 14.632c-.468-.125-.874-.437-1.155-.843-.25-.437-.312-.936-.218-1.404.094-.468.437-.873.842-1.154.281-.187.624-.25.936-.25.156 0 .312.032.468.063l4.18 1.06-.03.032c-.188.187-.406.374-.593.53-.031.031-.094.062-.125.094-.156.124-.343.25-.5.374-.061.062-.155.094-.217.156-.156.094-.312.218-.468.312-.063.031-.125.094-.219.125-.218.125-.468.28-.717.405-.219.094-.406.219-.624.344H9c-.218.124-.405.25-.624.374l-.904-.218zm12.292-5.18c-.25.999-1.28 1.623-2.278 1.373l-2.34-.561-6.676-1.716c-.468-.125-.873-.437-1.154-.874-.25-.436-.312-.936-.218-1.403.218-.843.967-1.404 1.809-1.404.156 0 .312.03.468.062l9.047 2.309c.468.124.874.436 1.155.842.25.406.312.905.187 1.373z"/>
</svg>
