<?xml version="1.0" encoding="UTF-8"?>
<svg width="24px" height="24px" viewBox="0 0 24 24" version="1.1" xmlns="http://www.w3.org/2000/svg" xmlns:xlink="http://www.w3.org/1999/xlink">
    <!-- Generator: Sketch 58 (84663) - https://sketch.com -->
    <title>ic_settings_applications</title>
    <desc>Created with Sketch.</desc>
    <defs>
        <path d="M12,9.77777778 C10.7777778,9.77777778 9.77777778,10.7777778 9.77777778,12 C9.77777778,13.2222222 10.7777778,14.2222222 12,14.2222222 C13.2222222,14.2222222 14.2222222,13.2222222 14.2222222,12 C14.2222222,10.7777778 13.2222222,9.77777778 12,9.77777778 L12,9.77777778 Z M19.7777778,2 L4.22222222,2 C2.98888889,2 2,3 2,4.22222222 L2,19.7777778 C2,21 2.98888889,22 4.22222222,22 L19.7777778,22 C21.0111111,22 22,21 22,19.7777778 L22,4.22222222 C22,3 21.0111111,2 19.7777778,2 L19.7777778,2 Z M17.8333333,12 C17.8333333,12.2555556 17.8111111,12.5111111 17.7777778,12.7555556 L19.4222222,14.0444444 C19.5666667,14.1666667 19.6111111,14.3777778 19.5111111,14.5444444 L17.9555556,17.2333333 C17.8555556,17.4 17.6555556,17.4666667 17.4777778,17.4 L15.5444444,16.6222222 C15.1444444,16.9333333 14.7,17.1888889 14.2333333,17.3888889 L13.9444444,19.4444444 C13.9111111,19.6333333 13.7444444,19.7777778 13.5555556,19.7777778 L10.4444444,19.7777778 C10.2555556,19.7777778 10.0888889,19.6333333 10.0555556,19.4555556 L9.76666667,17.4 C9.28888889,17.2 8.85555556,16.9444444 8.45555556,16.6333333 L6.52222222,17.4111111 C6.34444444,17.4777778 6.14444444,17.4111111 6.04444444,17.2444444 L4.48888889,14.5555556 C4.38888889,14.3888889 4.43333333,14.1777778 4.57777778,14.0555556 L6.22222222,12.7666667 C6.18888889,12.5111111 6.16666667,12.2555556 6.16666667,12 C6.16666667,11.7444444 6.18888889,11.4888889 6.22222222,11.2444444 L4.57777778,9.95555556 C4.43333333,9.83333333 4.38888889,9.62222222 4.48888889,9.45555556 L6.04444444,6.76666667 C6.14444444,6.6 6.34444444,6.53333333 6.52222222,6.6 L8.45555556,7.37777778 C8.85555556,7.06666667 9.3,6.81111111 9.76666667,6.61111111 L10.0555556,4.55555556 C10.0888889,4.36666667 10.2555556,4.22222222 10.4444444,4.22222222 L13.5555556,4.22222222 C13.7444444,4.22222222 13.9111111,4.36666667 13.9444444,4.54444444 L14.2333333,6.6 C14.7111111,6.8 15.1444444,7.05555556 15.5444444,7.36666667 L17.4777778,6.58888889 C17.6555556,6.52222222 17.8555556,6.58888889 17.9555556,6.75555556 L19.5111111,9.44444444 C19.6111111,9.61111111 19.5666667,9.82222222 19.4222222,9.94444444 L17.7777778,11.2333333 C17.8111111,11.4888889 17.8333333,11.7444444 17.8333333,12 L17.8333333,12 Z" id="path-1"></path>
        <rect id="path-3" x="0" y="0" width="50" height="50"></rect>
    </defs>
    <g id="ic_settings_applications" stroke="none" stroke-width="1" fill="none" fill-rule="evenodd">
        <mask id="mask-2" fill="white">
            <use xlink:href="#path-1"></use>
        </mask>
        <g id="Mask"></g>
        <g id="Colors/White" mask="url(#mask-2)">
            <g transform="translate(-13.000000, -13.000000)">
                <mask id="mask-4" fill="white">
                    <use xlink:href="#path-3"></use>
                </mask>
                <use id="White" stroke="none" fill="#FFFFFF" fill-rule="evenodd" xlink:href="#path-3"></use>
            </g>
        </g>
    </g>
</svg>