<svg xmlns="http://www.w3.org/2000/svg" width="70" height="70" viewBox="0 0 70 70">
    <g fill="#FFF" fill-rule="evenodd">
        <path d="M67.742 67.742v-11.29h-11.29v-11.29h-11.29v-11.29h-2.259v-4.517h-4.516V22.06c2.28-.72 4.242-2.15 5.645-4.025v.028c4.98 0 9.033-4.053 9.033-9.032V2.258H46.29V0H23.71v2.258h-6.775v6.774c0 4.98 4.054 9.032 9.033 9.032v-.028c1.403 1.874 3.364 3.305 5.645 4.025v7.294h-4.516v4.516h-2.258v11.29h-11.29v11.29H2.258v11.29H0V70h70v-2.258h-2.258zM50.806 4.516v4.516c0 3.263-2.32 5.996-5.4 6.633.568-1.346.884-2.825.884-4.375V4.516h4.516zM19.193 9.032V4.516h4.516v6.774c0 1.55.316 3.03.884 4.375-3.08-.637-5.4-3.37-5.4-6.633zm6.774 2.258V2.258h18.065v9.032c0 4.98-4.053 9.033-9.032 9.033-4.98 0-9.033-4.054-9.033-9.033zm7.904 11.234c.373.037.748.057 1.129.057s.756-.02 1.129-.057v6.831h-2.258v-6.83zm-4.516 9.089h11.29v2.258h-11.29v-2.258zM4.516 58.71h27.097v-2.258H15.806v-9.033h15.807v-2.258h-4.516V36.13h15.806v9.032h-4.516v2.258h15.807v9.033H38.387v2.258h27.097v9.032H4.516V58.71z"/>
        <path d="M34 49L37 49 37 46 34 46zM34 60L37 60 37 57 34 57zM42 11.5C42 7.914 39.086 5 35.5 5S29 7.914 29 11.5s2.914 6.5 6.5 6.5 6.5-2.914 6.5-6.5zm-10.833 0c0-2.389 1.944-4.333 4.333-4.333 2.389 0 4.333 1.944 4.333 4.333 0 2.389-1.944 4.333-4.333 4.333-2.389 0-4.333-1.944-4.333-4.333zM63 3L66 3 66 0 63 0z"/>
        <path d="M61 5L64 5 64 2 61 2zM63 8L66 8 66 5 63 5zM65 5L68 5 68 2 65 2zM51 25L54 25 54 22 51 22z"/>
        <path d="M49 27L52 27 52 24 49 24z"/>
        <path d="M51 29L54 29 54 26 51 26zM54 27L57 27 57 24 54 24zM2 7L5 7 5 4 2 4z"/>
        <path d="M0 8L3 8 3 5 0 5zM2 11L5 11 5 8 2 8zM5 8L8 8 8 5 5 5zM17 23L20 23 20 20 17 20zM14 25L17 25 17 22 14 22zM17 27L20 27 20 24 17 24zM20 25L23 25 23 22 20 22z"/>
    </g>
</svg>
