<svg xmlns="http://www.w3.org/2000/svg" width="24" height="20" viewBox="0 0 24 20">
    <path fill="#FFF" fill-rule="evenodd" d="M12 3v3h9.995C23.103 6 24 6.897 24 7.999v10.003A2.002 2.002 0 0 1 21.995 20H2.005A2.003 2.003 0 0 1 0 18V8c0-1.104.897-2 2.005-2H10V2.004A.999.999 0 0 1 11 1h4v.005a1 1 0 1 1 2 0v.996a.995.995 0 0 1-.293.706A.989.989 0 0 1 16 3h-4zM2 18.002C2 17.998 21.994 18 21.994 18 22 18 22 7.999 22 7.999 22 8.002 2.005 8 2.005 8 2 8 2 18.002 2 18.002zm3-7.497c0-.279.222-.505.505-.505h.99c.28 0 .505.221.505.505v.99a.502.502 0 0 1-.505.505h-.99A.502.502 0 0 1 5 11.496v-.991zm4 0c0-.279.221-.505.504-.505h.991c.279 0 .505.221.505.505v.99a.502.502 0 0 1-.505.505h-.99A.502.502 0 0 1 9 11.496v-.991zm4 0c0-.279.221-.505.505-.505h.99c.279 0 .505.221.505.505v.99a.502.502 0 0 1-.505.505h-.99a.502.502 0 0 1-.505-.504v-.991zm4 0c0-.279.222-.505.505-.505h.99c.28 0 .505.221.505.505v.99a.502.502 0 0 1-.505.505h-.99a.502.502 0 0 1-.505-.504v-.991zm-12 4c0-.279.222-.504.505-.504h.99c.28 0 .505.22.505.504v.99a.502.502 0 0 1-.505.505h-.99A.502.502 0 0 1 5 15.496v-.991zm4 0c0-.279.228-.504.501-.504h4.997a.5.5 0 0 1 .502.504v.99a.505.505 0 0 1-.502.505H9.501A.5.5 0 0 1 9 15.496v-.991zm8 0c0-.279.222-.504.505-.504h.99c.28 0 .505.22.505.504v.99a.502.502 0 0 1-.505.505h-.99a.502.502 0 0 1-.505-.504v-.991z"/>
</svg>
