<?xml version="1.0" encoding="UTF-8"?>
<svg width="24px" height="24px" viewBox="0 0 24 24" version="1.1" xmlns="http://www.w3.org/2000/svg" xmlns:xlink="http://www.w3.org/1999/xlink">
    <!-- Generator: Sketch 58 (84663) - https://sketch.com -->
    <title>landing</title>
    <desc>Created with Sketch.</desc>
    <g id="landing" stroke="none" stroke-width="1" fill="none" fill-rule="evenodd">
        <g id="noun_landing_2600752">
            <path d="M11.7779525,1 C16.6258817,1 20.5559051,4.93002338 20.5559051,9.77795253 C20.5559051,14.5098702 17.7519694,19.1830962 12.2102225,23.8012189 C11.9598172,24.0098897 11.5960879,24.0098897 11.3456826,23.8012189 C5.80393564,19.1830962 3,14.5098702 3,9.77795253 C3,4.93002338 6.93002338,1 11.7779525,1 Z M11.7779525,2.35045424 C7.67585866,2.35045424 4.35045424,5.67585866 4.35045424,9.77795253 C4.35045424,13.9304352 6.80603007,18.1383946 11.7779475,22.3985328 C16.7498733,18.1383973 19.2054508,13.9304366 19.2054508,9.77795253 C19.2054508,5.67585866 15.8800464,2.35045424 11.7779525,2.35045424 Z M11.7934951,5.56453532 C13.6049287,5.56453532 15.3855804,5.84662046 17.0714601,6.40972571 C17.2905729,6.47256345 17.477539,6.69272376 17.5400127,6.94300966 C17.5710979,7.0371902 17.5710979,7.09972364 17.5714012,7.19375202 C17.5714012,7.38165663 17.5089275,7.5691048 17.4155203,7.72566662 L17.4155203,7.72566662 L16.2597571,9.35594837 C16.1349613,9.54385299 15.9473887,9.63803352 15.7287308,9.63803352 L15.7287308,9.63803352 L15.6353235,9.63803352 L14.3239827,11.39323 C14.4487784,11.4874105 14.5109488,11.6748587 14.4798636,11.8314205 C14.3239827,12.4891628 13.8863636,13.0849801 13.3241004,13.335266 C13.1682195,13.3982559 13.0435754,13.4289901 12.8869363,13.4606372 L12.8869363,13.4606372 L12.8869363,15.0903104 C12.8869363,15.2470243 12.8555478,15.3723955 12.7930741,15.4973103 L12.7930741,15.4973103 L13.136831,18.7256181 C13.1680678,19.0072468 12.9803435,19.226342 12.7309037,19.2579891 L12.7309037,19.2579891 L12.6681267,19.2579891 C12.4493172,19.2579891 12.2309626,19.1008187 12.1997257,18.8506849 L12.1997257,18.8506849 L11.8878122,16.0307464 L11.8878122,16.0307464 L11.7624099,16.0307464 L11.4503448,18.8506849 C11.4189563,19.1009708 11.231232,19.2581413 10.9817921,19.2581413 L10.9817921,19.2581413 L10.9193184,19.2581413 C10.6698786,19.2264942 10.4821543,19.0073989 10.5130879,18.7257702 L10.5130879,18.7257702 L10.8880816,15.4974624 C10.8260628,15.3725477 10.7632859,15.2470243 10.7632859,15.0904625 L10.7632859,15.0904625 L10.7632859,13.4606372 C10.6380352,13.4289901 10.4821543,13.3982559 10.3572069,13.335266 C9.79509538,13.0849801 9.32654275,12.4891628 9.17035853,11.8314205 C9.13927333,11.6747065 9.20174701,11.5497918 9.2642207,11.4556113 L9.2642207,11.4556113 L7.92133973,9.63803352 C7.7025302,9.66922417 7.4527871,9.57504363 7.29690615,9.35594837 C7.0154713,8.94757915 6.70325451,8.54103572 6.42197129,8.10238875 L6.42197129,8.10238875 L6.14114298,7.72566662 C6.04743245,7.56895265 5.98450386,7.38165663 5.98450386,7.19375202 C5.98450386,7.09957149 5.98450386,7.0371902 6.01634724,6.94300966 C6.07897256,6.69272376 6.26609035,6.4727156 6.48474825,6.40972571 C8.17108284,5.84662046 9.95112796,5.56453532 11.7934951,5.56453532 Z M11.8652743,8.90015728 C10.9856112,8.90015728 10.1369232,8.99617375 9.32012582,9.18774135 L9.32012582,9.18774135 L9.88561265,11.3601334 C9.94847842,11.4241961 10.0113442,11.4879486 10.0113442,11.5834997 C10.1054903,11.9984336 10.3883863,12.3814137 10.7346058,12.5421133 C10.9227454,12.6063311 11.0796047,12.6063311 11.2053362,12.5103146 L11.2053362,12.5103146 L11.2369217,12.5103146 C11.3629584,12.4133674 11.4885374,12.349615 11.6455492,12.3178163 C11.1424704,12.1903114 10.7657335,11.7431135 10.7657335,11.1994338 C10.7657335,10.5930875 11.2685072,10.0826025 11.8973175,10.0826025 C12.5250598,10.0826025 12.9968583,10.5929323 12.9968583,11.1994338 C12.9968583,11.7482323 12.6486551,12.2013246 12.1529005,12.3189021 L12.1529005,12.3189021 L12.2638407,12.3488297 C12.3700411,12.3846323 12.4634528,12.4381471 12.5569504,12.5101595 L12.5569504,12.5101595 L12.5885359,12.5101595 C12.7453952,12.606176 12.902407,12.606176 13.0913095,12.5419582 C13.4051807,12.3812585 13.6880767,11.9982785 13.7825279,11.5833446 L13.7825279,11.5833446 L13.8141134,11.4877935 L13.8141134,11.4881037 L13.7825279,11.4881037 L14.4113383,9.18774135 C13.5623451,8.99617375 12.7141149,8.90015728 11.8652743,8.90015728 Z M11.6769821,12.3176612 L11.8973175,12.5742222 L12.1451186,12.3209186 L12.1451186,12.3209186 L12.0237357,12.3419949 L12.0237357,12.3419949 L11.8973175,12.3494599 C11.8025611,12.3494599 11.7398479,12.3176612 11.6769821,12.3176612 L11.6769821,12.3176612 Z M12.1180104,12.3602506 L12.1180104,12.3602506 L12.1224872,12.3591095 C12.1252083,12.3576172 12.1234527,12.356915 12.1216972,12.3565639 L12.1216972,12.3565639 Z M12.1483229,12.3176612 C12.1477125,12.3202982 12.1503065,12.3195226 12.1529005,12.3189021 L12.1529005,12.3189021 L12.1506689,12.3182817 L12.1483229,12.3176612 Z M8.93398682,9.42683443 C8.65291051,9.4873431 8.37228878,9.57803285 8.09121247,9.66828306 L8.09121247,9.66828306 L9.40158871,11.3578375 L9.40158871,11.3578375 L9.49568487,11.357984 Z M14.621888,9.42683443 L14.0602202,11.357984 L14.0602202,11.357984 L14.15368,11.357984 L15.4646926,9.66828306 C15.1834043,9.57817936 14.9031763,9.48748961 14.621888,9.42683443 L14.621888,9.42683443 Z" id="Shape" fill="#FFFFFF" fill-rule="nonzero"></path>
            <rect id="Rectangle" x="0" y="0" width="24" height="24"></rect>
        </g>
    </g>
</svg>