<?xml version="1.0" encoding="UTF-8"?>
<svg width="24px" height="24px" viewBox="0 0 24 24" version="1.1" xmlns="http://www.w3.org/2000/svg" xmlns:xlink="http://www.w3.org/1999/xlink">
    <!-- Generator: Sketch 58 (84663) - https://sketch.com -->
    <title>Fill 1</title>
    <desc>Created with Sketch.</desc>
    <g id="Notification" stroke="none" stroke-width="1" fill="none" fill-rule="evenodd">
        <g id="MOBILE_Notification" transform="translate(-32.000000, -375.000000)" fill="#F9CE55">
            <g id="notfication-copy-2" transform="translate(20.000000, 362.000000)">
                <g id="mobile/elements/list">
                    <g id="notification_star-copy" transform="translate(0.000000, 1.000000)">
                        <g id="Path-2">
                            <path d="M30.1654511,35.0738883 C29.7863661,35.0738883 29.4329578,34.9731932 29.0785385,34.7451457 L23.9234878,31.459743 L18.8690209,34.7451457 C18.18687,35.1745733 17.3023383,35.1489218 16.6201875,34.6691316 C15.9627024,34.1893616 15.6596366,33.3551732 15.8620174,32.5466606 L17.4040342,26.607662 L12.7286528,22.8168119 C12.0968444,22.2856885 11.8441211,21.4525102 12.0968444,20.6686634 C12.3495678,19.8848167 13.0573953,19.3290275 13.8659079,19.278685 L19.9815596,18.8996 L22.129708,13.2636167 C22.4327738,12.5054467 23.1662781,12 23.9994564,12 C24.8336456,12 25.5661389,12.5054467 25.8692048,13.2636167 L28.1190238,19.0001839 L34.1340921,19.3032498 C34.9682814,19.3535973 35.6504322,19.8847156 35.9031556,20.6932282 C36.1558789,21.4770749 35.9031556,22.3359299 35.2713472,22.8413766 L30.5959653,26.7082965 L32.1123054,32.5712228 C32.3146812,33.3797353 32.0116103,34.2139258 31.3541353,34.6936958 C30.9997414,34.9474048 30.5959653,35.0738883 30.1655522,35.0738883 L30.1654511,35.0738883 Z" id="Fill-1"></path>
                        </g>
                    </g>
                </g>
            </g>
        </g>
    </g>
</svg>