<?xml version="1.0" encoding="UTF-8"?>
<svg width="28px" height="24px" viewBox="0 0 28 24" version="1.1" xmlns="http://www.w3.org/2000/svg" xmlns:xlink="http://www.w3.org/1999/xlink">
    <!-- Generator: Sketch 58 (84663) - https://sketch.com -->
    <title>Shape</title>
    <desc>Created with Sketch.</desc>
    <g id="Notification" stroke="none" stroke-width="1" fill="none" fill-rule="evenodd">
        <g id="MOBILE_Notification" transform="translate(-30.000000, -214.000000)" fill="#E9446A" fill-rule="nonzero">
            <g id="notfication" transform="translate(20.000000, 199.000000)">
                <g id="mobile/elements/list">
                    <g id="notification_like" transform="translate(0.000000, 1.000000)">
                        <path d="M35.1793958,16.8328912 C33.7830313,15.4431316 31.934403,14.6835463 29.9614021,14.6835463 C27.9884013,14.6835463 26.1341197,15.4487581 24.7377552,16.8385178 L24.0084798,17.5643437 L23.2678979,16.8272647 C21.8715334,15.437505 20.0115985,14.6666667 18.0385976,14.6666667 C16.0712501,14.6666667 14.2169685,15.4318785 12.8262573,16.8160116 C11.4298928,18.2057712 10.6610443,20.0512821 10.6666667,22.0149506 C10.6666667,23.9786191 11.4411994,25.8185033 12.8375639,27.208263 L23.4544567,37.7749377 C23.6014424,37.9212282 23.7993078,38 23.9915199,38 C24.1837321,38 24.3815975,37.9268548 24.5285832,37.7805643 L35.1680892,27.2307692 C36.5644537,25.8410096 37.3333333,23.9954988 37.3333333,22.0318302 C37.3389554,20.0681617 36.5757603,18.2226509 35.1793958,16.8328912 Z" id="Shape"></path>
                    </g>
                </g>
            </g>
        </g>
    </g>
</svg>