<?xml version="1.0" encoding="UTF-8"?>
<svg width="26px" height="23px" viewBox="0 0 26 23" version="1.1" xmlns="http://www.w3.org/2000/svg" xmlns:xlink="http://www.w3.org/1999/xlink">
    <!-- Generator: Sketch 58 (84663) - https://sketch.com -->
    <title>notification_like</title>
    <desc>Created with Sketch.</desc>
    <g id="Notification" stroke="none" stroke-width="1" fill="none" fill-rule="evenodd">
        <g id="MOBILE_Notification" transform="translate(-31.000000, -122.000000)" fill="#FFFFFF">
            <g id="notfication" transform="translate(0.000000, 100.000000)">
                <g id="mobile/elements/list" transform="translate(31.000000, 9.000000)">
                    <g id="notification_like" transform="translate(0.000000, 13.000000)">
                        <path d="M5.03830682,9.33773864 L0.786965909,9.33773864 C0.389823864,9.33773864 0.0784352273,9.64912727 0.0784352273,10.0462693 L0.0784352273,21.3818716 C0.0784352273,21.7790136 0.389823864,22.0904023 0.786965909,22.0904023 L5.03830682,22.0904023 C5.43544886,22.0904023 5.7468375,21.7790136 5.7468375,21.3818716 L5.74581557,10.0462693 C5.7468375,9.64912727 5.43544625,9.33773864 5.0383042,9.33773864 L5.03830682,9.33773864 Z" id="Fill-1"></path>
                        <path d="M25.5349659,10.6801023 C25.5349659,9.52539773 24.7427205,8.35744205 23.2286409,8.35744205 L16.3647091,8.35744205 C17.3448227,6.60345682 17.6337602,4.13694205 16.951758,2.33170341 C16.4514818,1.00447273 15.4938455,0.229555682 14.2565761,0.1509375 L14.2361558,0.14889625 C13.4306331,0.0998905682 12.7333149,0.703274659 12.6659353,1.50777807 C12.489311,3.29853716 11.7052149,6.46453943 10.5811422,7.58866443 C9.6347183,8.5350883 8.82407284,8.93223034 7.4816308,9.58869739 C7.28764932,9.68364557 7.07528875,9.7877833 6.85067284,9.8990667 C6.85475795,9.94807239 6.8567992,9.99605614 6.8567992,10.0460837 L6.8567992,21.2664247 C7.01912955,21.3215567 7.17942648,21.3766861 7.3366367,21.4307989 C9.55313102,22.1944767 11.4693185,22.8540017 14.3976367,22.8540017 L19.9463867,22.8540017 C21.4604662,22.8540017 22.2527117,21.6850011 22.2527117,20.531342 C22.2527117,20.1883023 22.1832883,19.8452625 22.0454582,19.5308159 C22.5498116,19.4399502 22.9908627,19.1979955 23.3185866,18.8263625 C23.6902195,18.4047045 23.8943968,17.8442102 23.8943968,17.2479614 C23.8943968,16.9069602 23.8249734,16.5629011 23.6881652,16.2494739 C24.9041073,16.0391572 25.5371039,14.9957386 25.5371039,13.9645807 C25.5371039,13.3662932 25.323724,12.7639284 24.9082107,12.3229034 C25.321688,11.880833 25.5350652,11.2784682 25.5350652,10.6801807 L25.5349659,10.6801023 Z" id="Fill-2"></path>
                    </g>
                </g>
            </g>
        </g>
    </g>
</svg>