<svg xmlns="http://www.w3.org/2000/svg" width="24" height="24" viewBox="0 0 24 24">
    <g fill="none" fill-rule="nonzero">
        <rect width="24" height="24" fill="#F15A23" rx="12"/>
        <path fill="#000" d="M19.97 15.46l2.016 3.948c-.524.794 1.4 1.162-3.168 2.877-3.045 1.143-5.392 1.395-7.041.754l-4.338-7.786-.236-4.66 2.838-3.094 5.975.316 3.954 7.645z" opacity=".155"/>
        <path fill="#FFF" d="M11.983 4.33c.03.082-.022.156-.065.218a3.883 3.883 0 0 0-.604 1.506c-.015.09-.032.102-.014.162.029.01.014.006.044.015.593-.054 1.194-.042 1.778.086a5.49 5.49 0 0 1 2.819 1.57 5.813 5.813 0 0 1 1.51 2.894 5.955 5.955 0 0 1-.373 3.534c-1.016 2.243-2.729 4.14-4.825 5.344-.067.032-.165.033-.211-.036-.055-.073-.032-.177.022-.243.283-.407.48-.876.587-1.364.02-.102.05-.204.04-.308-.034-.047-.091-.033-.14-.031a5.416 5.416 0 0 1-2.983-.547 5.654 5.654 0 0 1-2.373-2.265 5.84 5.84 0 0 1-.762-2.98 5.921 5.921 0 0 1 .7-2.74c1.034-2.051 2.658-3.782 4.618-4.9.083-.047.204-.012.232.086zm-.273 5.405a2.185 2.185 0 0 0-1.507.976c-.23.36-.37.788-.366 1.22-.018.58.206 1.161.595 1.579a2.121 2.121 0 0 0 2.76.35c.433-.284.763-.732.91-1.239.278-.88-.055-1.912-.778-2.457a2.126 2.126 0 0 0-1.614-.429z"/>
    </g>
</svg>
