<?xml version="1.0" encoding="UTF-8"?>
<svg width="24px" height="24px" viewBox="0 0 24 24" version="1.1" xmlns="http://www.w3.org/2000/svg" xmlns:xlink="http://www.w3.org/1999/xlink">
    <!-- Generator: Sketch 58 (84663) - https://sketch.com -->
    <title>icons/outfit</title>
    <desc>Created with Sketch.</desc>
    <g id="icons/outfit" stroke="none" stroke-width="1" fill="none" fill-rule="evenodd">
        <path d="M15.2490782,6.41643998 C15.5827435,6.33343199 15.8325758,5.99977504 15.8325758,5.62460994 L15.8325758,2.83337154 C15.8325758,2.37520677 15.4574107,2 14.999246,2 L12.0411332,2 C11.7498011,2 11.4991355,2.16687014 11.3331362,2.4167066 L9.79180926,4.95815437 L8.50031463,2.45816476 C8.37499015,2.16683264 8.08364969,2 7.74998441,2 L4.83332987,2 C4.37516511,2 4,2.37516511 4,2.83332987 L4,5.83290074 C4,6.12423286 4.20833247,6.37489848 4.49966459,6.41639831 C4.95782935,6.4994063 6.04099152,6.79156342 6.04099152,7.79172593 L6.04099152,12.0837914 L6.04099152,12.5004564 L10.4988897,12.5004564 L9.1658952,22 L12.7904635,22 L14.4571232,15.2919031 L16.3321154,22 L20.2489741,22 L18.2071493,8.08318305 L13.7492511,8.16619104 C13.7492511,7.29136134 14.2489157,6.70867626 15.2490782,6.41653164 L15.2490782,6.41643998 Z M6.87432139,11.6662098 L6.87432139,11.2910447 L10.665764,11.2910447 L10.62426,11.6662098 L6.87432139,11.6662098 Z M19.2905198,21.166587 L16.9988626,21.166587 L14.4574149,11.9999584 L12.1657577,21.166587 L10.1239329,21.166587 L11.62376,10.0420499 L17.6239434,9.91672543 L19.2905198,21.166587 Z M17.4993397,9.08330389 L11.748947,9.16631188 L11.790451,8.99948341 L17.4983439,8.91647542 L17.4993397,9.08330389 Z M11.0410332,8.2084742 L10.7497011,10.4586732 L6.87430055,10.4586732 L6.87430055,7.79180926 C6.87430055,6.33348199 5.49897294,5.8338174 4.83247571,5.66702643 L4.83247571,2.8332882 L7.74913025,2.8332882 L9.12445787,5.45869396 C9.24978235,5.70852625 9.49962298,5.83385907 9.74945527,5.87535889 C9.99928757,5.87535889 10.291453,5.75003441 10.4159525,5.50019379 L12.0411124,2.8332882 L15.0406833,2.8332882 L15.0406833,5.62456827 C13.6653557,6.0412332 12.9159004,6.95756273 12.9159004,8.2074742 L11.0410332,8.2084742 Z" fill="#FFFFFF"></path>
    </g>
</svg>