<?xml version="1.0" encoding="UTF-8"?>
<svg width="24px" height="24px" viewBox="0 0 24 24" version="1.1" xmlns="http://www.w3.org/2000/svg" xmlns:xlink="http://www.w3.org/1999/xlink">
    <!-- Generator: Sketch 58 (84663) - https://sketch.com -->
    <title>icons/pickaxe</title>
    <desc>Created with Sketch.</desc>
    <g id="icons/pickaxe" stroke="none" stroke-width="1" fill="none" fill-rule="evenodd">
        <path d="M12.7097081,2.0957284 C12.5311572,1.96809053 12.3016877,1.96809053 12.1231478,2.0957284 C10.4660089,3.21722924 8.91067772,4.61981203 7.48305601,6.09846612 C7.0750356,5.74136794 6.46338129,5.76717784 6.08047322,6.17519275 C5.74918495,6.55738491 5.80010719,7.16977349 6.13138444,7.52615574 C4.1178082,9.87236032 2.40914107,12.3448609 1.08321699,14.4616033 C0.7519287,14.9714315 1.4912374,15.5070879 1.87342956,15.0481636 C3.96447241,12.5749288 5.82513508,10.6624995 7.43137012,9.15887989 C7.50809676,9.10796867 7.60992104,9.10796867 7.66083227,9.15887989 L20.1039668,21.0380092 C20.6396232,21.6245697 21.5574718,21.7263956 22.1691261,21.2165601 C22.8575052,20.6299998 22.8833151,19.6103258 22.2458528,18.9986715 L9.29276156,7.78149388 C9.21603493,7.70476724 9.21603493,7.60294295 9.29276156,7.52622183 C11.6132664,5.61379249 13.2703502,4.6959439 14.2133479,4.28786842 C14.5704461,4.1351329 14.6722722,3.62529187 14.3660834,3.39582972 L12.7097081,2.0957284 Z" fill="#FFFFFF"></path>
    </g>
</svg>