<svg height='100px' width='100px'  fill="#000000" xmlns="http://www.w3.org/2000/svg" data-name="Layer 1" viewBox="0 0 100 100" x="0px" y="0px"><title>setng cog</title><path d="M53.24,100H46.76a5.9,5.9,0,0,1-5-2.77c-0.47-.74-3.34-5.55-4.8-8.4L31.78,86.7c-3.16,1-8.85,2.42-9.34,2.54a5.92,5.92,0,0,1-5.51-1.58l-4.59-4.59a5.91,5.91,0,0,1-1.58-5.51c0.2-.86,1.56-6.29,2.54-9.34l-2.13-5.16c-3-1.52-8-4.55-8.4-4.8a5.9,5.9,0,0,1-2.77-5V46.76a5.9,5.9,0,0,1,2.77-5c0.74-.47,5.55-3.34,8.4-4.8l2.13-5.16c-1-3.16-2.42-8.85-2.54-9.34a5.92,5.92,0,0,1,1.58-5.51l4.59-4.59a5.91,5.91,0,0,1,5.51-1.58c0.86,0.2,6.29,1.56,9.34,2.54l5.16-2.13c1.52-3,4.55-8,4.8-8.4a5.9,5.9,0,0,1,5-2.77h6.48a5.9,5.9,0,0,1,5,2.77c0.47,0.74,3.34,5.55,4.8,8.4l5.16,2.13c3.16-1,8.85-2.42,9.34-2.54a5.92,5.92,0,0,1,5.51,1.58l4.59,4.59a5.91,5.91,0,0,1,1.58,5.51c-0.2.86-1.56,6.29-2.54,9.34l2.13,5.16c3,1.52,8,4.55,8.4,4.8a5.9,5.9,0,0,1,2.77,5v6.48a5.9,5.9,0,0,1-2.77,5c-0.74.47-5.55,3.34-8.4,4.8L86.7,68.22c1,3.16,2.42,8.85,2.54,9.34a5.92,5.92,0,0,1-1.58,5.51l-4.59,4.59a5.92,5.92,0,0,1-5.51,1.58c-0.86-.2-6.29-1.56-9.34-2.54l-5.16,2.13c-1.52,3-4.55,8-4.8,8.4A5.9,5.9,0,0,1,53.24,100ZM31.93,80.76L41,84.53l0.45,1c0.92,2,4.24,7.62,5,8.77a0.38,0.38,0,0,0,.33.18h6.48a0.38,0.38,0,0,0,.33-0.18c0.59-.94,4-6.64,5-8.77l0.45-1,9.1-3.77,1,0.37c2.07,0.76,8.38,2.38,9.71,2.7a0.34,0.34,0,0,0,.35-0.1l4.59-4.59a0.35,0.35,0,0,0,.1-0.35c-0.25-1.07-1.87-7.52-2.7-9.71l-0.37-1L84.57,59l1-.45c2-.92,7.62-4.24,8.77-5a0.38,0.38,0,0,0,.18-0.33V46.74a0.38,0.38,0,0,0-.18-0.33h0c-0.94-.59-6.64-4-8.77-5l-1-.45-3.77-9.1,0.37-1c0.76-2.07,2.38-8.38,2.7-9.71a0.38,0.38,0,0,0-.1-0.35l-4.59-4.59a0.35,0.35,0,0,0-.35-0.1c-1.07.25-7.5,1.87-9.71,2.7l-1,.37L59,15.43l-0.45-1c-0.92-2-4.24-7.62-5-8.77a0.38,0.38,0,0,0-.33-0.18H46.78a0.38,0.38,0,0,0-.33.18c-0.59.94-4,6.64-5,8.77l-0.45,1-9.1,3.77-1-.37c-2.07-.76-8.38-2.38-9.71-2.7a0.34,0.34,0,0,0-.35.1l-4.59,4.59a0.35,0.35,0,0,0-.1.35c0.25,1.07,1.87,7.52,2.7,9.71l0.37,1L15.47,41l-1,.45c-2,.92-7.62,4.24-8.77,5a0.38,0.38,0,0,0-.18.33v6.48a0.38,0.38,0,0,0,.18.33c0.94,0.59,6.64,4,8.77,5l1,0.45,3.77,9.1-0.37,1c-0.76,2.07-2.38,8.38-2.7,9.71a0.38,0.38,0,0,0,.1.35l4.59,4.59a0.35,0.35,0,0,0,.35.1c1.07-.25,7.5-1.87,9.71-2.7ZM50,73.36A23.36,23.36,0,1,1,73.36,50,23.4,23.4,0,0,1,50,73.36Zm0-41.19A17.83,17.83,0,1,0,67.83,50,17.85,17.85,0,0,0,50,32.17Z"></path></svg>