<svg xmlns="http://www.w3.org/2000/svg" width="24" height="24" viewBox="0 0 24 24">
    <defs>
        <linearGradient id="a" x1="50%" x2="50%" y1="0%" y2="100%">
            <stop offset="0%" stop-color="#111D2E"/>
            <stop offset="21.248%" stop-color="#051839"/>
            <stop offset="40.695%" stop-color="#0A1B48"/>
            <stop offset="58.11%" stop-color="#132E62"/>
            <stop offset="73.76%" stop-color="#144B7E"/>
            <stop offset="87.279%" stop-color="#136497"/>
            <stop offset="100%" stop-color="#1387B8"/>
        </linearGradient>
    </defs>
    <g fill="none" fill-rule="nonzero">
        <rect width="24" height="24" fill="url(#a)" rx="12"/>
        <path fill="#000" d="M18.64 5.591l5.354 6.048c.004 1.74-.369 3.486-1.119 5.236-.55 1.285-2.306 3.064-4.125 4.5C16.854 22.872 14.883 24 13.875 24c-1.497 0-3.492-.32-5.986-.961l-2.39-4.286.54-3.403 1.06-1.162L9 13.603l5.685-7.74 3.954-.272z" opacity=".155"/>
        <path fill="#F2F2F2" d="M11.414 9.276l.001.058-2.949 4.198a3.363 3.363 0 0 0-1.975.537L.016 11.456v3.94l5.052 2.127a3.289 3.289 0 0 0 1.974 2.314c1.7.697 3.662-.097 4.37-1.764.183-.436.269-.894.257-1.35l4.219-2.955.103.003c2.525 0 4.577-2.018 4.577-4.495 0-2.477-2.052-4.493-4.577-4.493-2.524 0-4.577 2.016-4.577 4.493zm-.707 8.507c-.548 1.288-2.059 1.9-3.372 1.363a2.541 2.541 0 0 1-1.327-1.24l1.49.604c.968.396 2.08-.054 2.482-1.003a1.85 1.85 0 0 0-1.022-2.436l-1.54-.625a2.611 2.611 0 0 1 1.9.028c.637.26 1.131.748 1.393 1.373.261.624.26 1.313-.004 1.936zm5.284-5.513c-1.68 0-3.05-1.343-3.05-2.994 0-1.65 1.37-2.993 3.05-2.993 1.682 0 3.05 1.343 3.05 2.993 0 1.651-1.368 2.994-3.05 2.994zm-2.285-2.998c0-1.243 1.026-2.25 2.29-2.25 1.265 0 2.291 1.007 2.291 2.25 0 1.242-1.026 2.248-2.29 2.248-1.265 0-2.29-1.006-2.29-2.248z"/>
    </g>
</svg>
