<svg xmlns="http://www.w3.org/2000/svg" width="24" height="24" viewBox="0 0 24 24">
    <g fill="none" fill-rule="nonzero">
        <rect width="24" height="24" fill="#364D69" rx="12"/>
        <path fill="#000" d="M23.994 14.27c-.496 2.237-1.619 4.23-3.369 5.98-1.75 1.75-4.073 2.93-6.969 3.539l-8.993-9.82L7.5 7.056l4.284-2.223 4.716.937 7.494 8.5z" opacity=".155"/>
        <path fill="#FFF" d="M8.044 11.779c.217-.084.428-.103.632-.058.394.088 1.01.516 1.776 1.139.478.388.898.84 1.26 1.353a.48.48 0 0 1 .084.327c-.01.093-.036.192-.08.298-.098.237-.304.418-.618.544a.48.48 0 0 1-.168.034c-1.223.027-1.956-.023-2.198-.15-.729-.383-1.105-1.247-1.143-2.04-.022-.45.04-.847.187-1.189a.48.48 0 0 1 .268-.258zM6.5 11.378v2.653c0 .063-.03.121-.081.158-.187.133-.463.145-.83.035a1.438 1.438 0 0 1-.7-.45.97.97 0 0 1-.23-.627v-1.604c0-.403.208-.778.552-.99l.375-.231a6.555 6.555 0 0 1 1.209-3.02 1.216 1.216 0 0 0-.067-.118c-.039-.062-.015-.172.012-.205.525-.64 1.197-1.242 1.986-1.662 1.026-.546 2.234-.82 3.394-.82h.015c1.16 0 2.368.274 3.394.82.79.42 1.46 1.022 1.986 1.662.028.033.05.143.012.205-.037.058-.06.102-.072.13a6.555 6.555 0 0 1 1.2 3.008l.375.231c.343.212.553.587.553.99v1.604a.97.97 0 0 1-.231.628 1.438 1.438 0 0 1-.701.45c-.366.109-.643.097-.829-.036a.194.194 0 0 1-.08-.158v-.138h-.003l.002-2.514A5.62 5.62 0 0 0 6.5 11.378zm9.4 1.615c.298.03.61.125.703.625.094.5-.104 1.033-.36 1.319-.257.285-.584.493-.899.54-.534.082-.973-.042-1.432-.102-.294-.038-.637-.11-.845-.223-.084-.045-.19-.155-.32-.331a.384.384 0 0 1-.057-.348c.077-.234.3-.454.67-.66.298-.165.74-.38 1.304-.56.36-.114.939-.29 1.237-.26zm-4.858 6.17a.306.306 0 0 1 .075-.09c.037-.024.089-.032.138-.047.11-.035.231-.058.47-.086.23-.026.496-.047.794-.082.608-.072 1.888-.232 2.875-.87.532-.345.897-.645 1.144-.937.252-.298.39-.47.472-.624.176-.333.486-1.014.523-1.137.036-.123.188-.113.261-.053.074.06.394.517.329 1.242-.04.444-.168.876-.434 1.275-.169.253-.381.474-.698.734-.82.671-1.764.82-2.38.884-.615.063-1.515.135-2.246.075a8.26 8.26 0 0 1-1.144-.166.384.384 0 0 1-.18-.119z"/>
    </g>
</svg>
