<svg xmlns="http://www.w3.org/2000/svg" width="24" height="20" viewBox="0 0 24 20">
    <path fill="#FFF" fill-rule="evenodd" d="M18.457 2.805a2.436 2.436 0 0 0-3.407-.54c-.356.26-.616.609-.788.99a2.408 2.408 0 0 0-2.556.19c-.356.259-.616.608-.788.99a2.408 2.408 0 0 0-3.21.921L4.81 1.368A2.355 2.355 0 0 0 3.215.409a2.43 2.43 0 0 0-1.817.455 2.436 2.436 0 0 0-.54 3.407l6.604 9.09-1.812-.288a2.439 2.439 0 0 0-2.687 1.599 2.527 2.527 0 0 0 .13 1.99c.313.607.892 1.052 1.57 1.233l7.076 1.754a7.44 7.44 0 0 0 6.283-1.197l2.35-1.708c1.449-1.052 2.381-2.595 2.677-4.35a6.653 6.653 0 0 0-1.201-4.964l-3.391-4.625zm3.122 9.374a5.16 5.16 0 0 1-2.081 3.404l-2.33 1.693a5.958 5.958 0 0 1-5.054.945L5.04 16.433a.928.928 0 0 1-.626-.507c-.126-.262-.158-.527-.06-.79.065-.176.186-.36.334-.468a.998.998 0 0 1 .735-.18l2.609.413c.456.053.895-.137 1.123-.528.23-.391.216-.895-.043-1.251L2.022 3.36a.974.974 0 0 1 .212-1.34.942.942 0 0 1 .714-.166c.254.04.476.168.628.378l4.865 6.696c.244.336.7.39 1.015.16.315-.228.39-.7.161-1.015l-.67-.923a.957.957 0 0 1 .211-1.34.974.974 0 0 1 1.341.212l1.266 1.742c.244.336.7.39 1.015.16.315-.228.39-.7.161-1.014l-.67-.923a.957.957 0 0 1 .212-1.341.974.974 0 0 1 1.34.212l1.28 1.763c.244.336.7.39 1.015.16.336-.244.39-.7.16-1.014l-.61-.84-.045-.063a.974.974 0 0 1 .212-1.34.974.974 0 0 1 1.34.211l3.386 4.66c.914 1.037 1.235 2.407 1.018 3.784z"/>
</svg>
