<svg xmlns="http://www.w3.org/2000/svg" width="20" height="20" viewBox="0 0 20 20">
    <g fill="none" fill-rule="evenodd">
        <path d="M-2-2h24v24H-2z"/>
        <path fill="#FFF" fill-rule="nonzero" d="M10.571.026C4.805-.364 0 4.21 0 9.87c0 .416.026.806.078 1.195.027.208.286.312.441.157l.961-.961a.296.296 0 0 0 .078-.208V9.87c0-4.779 4.053-8.623 8.91-8.285 4.104.286 7.402 3.61 7.689 7.689.337 4.857-3.507 8.91-8.286 8.91-3.22 0-6-1.845-7.376-4.52l3.169-3.168 3.428 3.428c.104.103.26.103.363 0l4.884-4.883v1.48c0 .156.103.26.26.26h1.038c.157 0 .26-.104.26-.26v-3.87c0-.156-.103-.26-.26-.26h-3.87c-.155 0-.259.104-.259.26v1.04c0 .155.104.259.26.259h1.48L9.3 11.899 5.872 8.47a.251.251 0 0 0-.363 0L.782 13.197c-.078.079-.104.182-.052.287 1.4 3.66 4.985 6.257 9.14 6.257 5.688 0 10.26-4.805 9.844-10.571C19.377 4.313 15.43.364 10.572.027z"/>
    </g>
</svg>
