<svg xmlns="http://www.w3.org/2000/svg" width="167" height="83" viewBox="0 0 167 83"><path fill="#fff" d="M0 0h167v83H0z"/><title>BMWi</title><path d="M60.46 3.84a3.21 3.21 0 0 1-.14 1 2.42 2.42 0 0 1-.39.75 2.08 2.08 0 0 1-.58.51 2.82 2.82 0 0 1-.68.29 2.45 2.45 0 0 1 .81.31 2.56 2.56 0 0 1 .66.56 2.68 2.68 0 0 1 .45.8 2.89 2.89 0 0 1 .17 1 3.14 3.14 0 0 1-.23 1.21 2.46 2.46 0 0 1-.7 1 3.39 3.39 0 0 1-1.2.63 5.83 5.83 0 0 1-1.72.23h-2.28V1h2.14a6.15 6.15 0 0 1 1.68.2 3.17 3.17 0 0 1 1.15.57 2.14 2.14 0 0 1 .65.89 3.23 3.23 0 0 1 .21 1.18zM59 3.89a1.65 1.65 0 0 0-.55-1.27 2.5 2.5 0 0 0-1.72-.5H56V6h.72a2.4 2.4 0 0 0 1.71-.55A2 2 0 0 0 59 3.89zM59.26 9a1.81 1.81 0 0 0-.59-1.43A2.45 2.45 0 0 0 57 7.06h-1V11h.87a2.68 2.68 0 0 0 1.8-.49A1.84 1.84 0 0 0 59.26 9zm8.63 3.11H66.7v-.87a1.58 1.58 0 0 1-.21.28 2.1 2.1 0 0 1-.41.35 2.76 2.76 0 0 1-.6.3 2.29 2.29 0 0 1-.79.13 2.64 2.64 0 0 1-.93-.15 1.68 1.68 0 0 1-.7-.49 2.29 2.29 0 0 1-.44-.88 4.94 4.94 0 0 1-.15-1.33V4.39h1.3v5a2.31 2.31 0 0 0 .23 1.35 1.15 1.15 0 0 0 1 .41 1.57 1.57 0 0 0 1-.28 3.33 3.33 0 0 0 .61-.56V4.39h1.3zm6.22 0v-5a2.34 2.34 0 0 0-.33-1.41 1.19 1.19 0 0 0-1-.43 1.57 1.57 0 0 0-1 .29 3.55 3.55 0 0 0-.61.56v6h-1.3V4.39h1.19v.87a1.58 1.58 0 0 1 .26-.26 2 2 0 0 1 .42-.35 3 3 0 0 1 .61-.3 2.35 2.35 0 0 1 .81-.13 2.71 2.71 0 0 1 .93.15 1.68 1.68 0 0 1 .71.49 2.37 2.37 0 0 1 .45.88A4.71 4.71 0 0 1 75.41 7v5.07zM77 8.37a5.47 5.47 0 0 1 .31-2 3.62 3.62 0 0 1 .79-1.27 2.75 2.75 0 0 1 1.1-.68 3.9 3.9 0 0 1 1.22-.2 3.23 3.23 0 0 1 .64.06 2.15 2.15 0 0 1 .45.14V.73l1.3-.14v11.53h-1.18v-.82a1.85 1.85 0 0 1-.18.27 1.8 1.8 0 0 1-.35.34 2.13 2.13 0 0 1-.56.29 2.34 2.34 0 0 1-.79.12 2.54 2.54 0 0 1-1-.22 2.24 2.24 0 0 1-.86-.69 3.61 3.61 0 0 1-.59-1.22 6.56 6.56 0 0 1-.3-1.82zm3.06 2.79a1.73 1.73 0 0 0 .55-.08 1.69 1.69 0 0 0 .42-.2 1.78 1.78 0 0 0 .3-.25 1.82 1.82 0 0 0 .19-.23V5.63a2 2 0 0 0-.41-.19 1.83 1.83 0 0 0-.59-.08 2.32 2.32 0 0 0-.85.15A1.65 1.65 0 0 0 79 6a2.63 2.63 0 0 0-.46.92 4.88 4.88 0 0 0-.17 1.39 5.57 5.57 0 0 0 .14 1.34 2.51 2.51 0 0 0 .38.87 1.46 1.46 0 0 0 .55.48 1.49 1.49 0 0 0 .63.16zM89.78 7v.86q0 .36-.06.64h-3.99a3.44 3.44 0 0 0 .59 2 1.83 1.83 0 0 0 1.51.64 2.16 2.16 0 0 0 .61-.08 2.28 2.28 0 0 0 .81-.42l.2-.18.48.92-.24.23a2.17 2.17 0 0 1-.43.31 3.12 3.12 0 0 1-.68.27 3.55 3.55 0 0 1-1 .11 3.42 3.42 0 0 1-1.31-.24 2.48 2.48 0 0 1-1-.75 3.62 3.62 0 0 1-.58-1.31 6.82 6.82 0 0 1-.23-1.88 6 6 0 0 1 .23-1.78 3.55 3.55 0 0 1 .64-1.23 2.54 2.54 0 0 1 .93-.72 2.81 2.81 0 0 1 1.14-.23 2.22 2.22 0 0 1 1.74.7A3.06 3.06 0 0 1 89.78 7zm-2.45-1.74a1.31 1.31 0 0 0-1.11.58 3.16 3.16 0 0 0-.48 1.68h2.82a1.76 1.76 0 0 0 0-.23v-.33a2.09 2.09 0 0 0-.32-1.25 1.08 1.08 0 0 0-.91-.45zm7.52.74a3.29 3.29 0 0 0-.47-.39 1.46 1.46 0 0 0-.89-.25 1.16 1.16 0 0 0-.79.24.75.75 0 0 0-.27.58 1 1 0 0 0 .25.72 3.53 3.53 0 0 0 .76.6l.48.29a4.75 4.75 0 0 1 1.24 1 2.1 2.1 0 0 1 .45 1.39 2.09 2.09 0 0 1-.61 1.51 2.49 2.49 0 0 1-1.83.63 3.14 3.14 0 0 1-.82-.1 3.58 3.58 0 0 1-.62-.23 2 2 0 0 1-.44-.28 2.94 2.94 0 0 1-.29-.28l.63-1 .23.23a2.11 2.11 0 0 0 .33.25 2 2 0 0 0 .43.2 1.78 1.78 0 0 0 .56.08 1.34 1.34 0 0 0 .89-.26.79.79 0 0 0 .31-.63 1.4 1.4 0 0 0-.07-.48 1.09 1.09 0 0 0-.22-.36 2 2 0 0 0-.35-.31l-.48-.32-.48-.31a4.66 4.66 0 0 1-1.14-1 2.05 2.05 0 0 1-.41-1.32 1.84 1.84 0 0 1 .64-1.43 2.31 2.31 0 0 1 .72-.42 2.5 2.5 0 0 1 .88-.15 3 3 0 0 1 .77.09 2.31 2.31 0 0 1 .56.23 2.42 2.42 0 0 1 .39.27l.25.23zm6.36 6.17v-5a2.59 2.59 0 0 0-.27-1.37 1 1 0 0 0-.89-.42 1.86 1.86 0 0 0-.57.08 2 2 0 0 0-.44.2 1.9 1.9 0 0 0-.34.27l-.24.26v6h-1.3v-7.8h1.19v.87a2.63 2.63 0 0 1 .24-.31 2.2 2.2 0 0 1 .4-.35 2.3 2.3 0 0 1 .56-.28 2.19 2.19 0 0 1 .72-.11 1.94 1.94 0 0 1 1.87 1 2.4 2.4 0 0 1 .31-.35 2.48 2.48 0 0 1 .45-.34 2.59 2.59 0 0 1 .58-.25 2.46 2.46 0 0 1 .71-.1q2.35 0 2.35 2.74v5.19h-1.3v-5a2.19 2.19 0 0 0-.34-1.37 1.21 1.21 0 0 0-1-.42 1.5 1.5 0 0 0-.91.27 3.49 3.49 0 0 0-.57.51 3.8 3.8 0 0 1 0 .38v5.62zm8.62 0h-1.3V4.39h1.3zm-.64-9.6a.84.84 0 0 1-.64-.26 1 1 0 0 1-.24-.68.93.93 0 0 1 .24-.66.84.84 0 0 1 .64-.26.82.82 0 0 1 .63.26.93.93 0 0 1 .24.66 1 1 0 0 1-.24.68.82.82 0 0 1-.64.21zm6.86 9.6v-5a2.34 2.34 0 0 0-.33-1.41 1.19 1.19 0 0 0-1-.43 1.57 1.57 0 0 0-1 .29 3.55 3.55 0 0 0-.61.56v6h-1.3V4.39H113v.87a1.58 1.58 0 0 1 .21-.28 2 2 0 0 1 .42-.35 3 3 0 0 1 .61-.3 2.35 2.35 0 0 1 .81-.13 2.71 2.71 0 0 1 .93.15 1.68 1.68 0 0 1 .71.49 2.37 2.37 0 0 1 .45.88 4.71 4.71 0 0 1 .21 1.28v5.07zm4.56 0h-1.3V4.39h1.3zM120 2.52a.84.84 0 0 1-.64-.26 1 1 0 0 1-.24-.68.93.93 0 0 1 .24-.66.84.84 0 0 1 .64-.25.82.82 0 0 1 .63.26.93.93 0 0 1 .24.66 1 1 0 0 1-.24.68.82.82 0 0 1-.63.25zm6 3.43a3.28 3.28 0 0 0-.47-.39 1.46 1.46 0 0 0-.89-.25 1.16 1.16 0 0 0-.79.24.75.75 0 0 0-.27.58 1 1 0 0 0 .25.72 3.53 3.53 0 0 0 .76.6l.48.29a4.75 4.75 0 0 1 1.24 1 2.1 2.1 0 0 1 .45 1.39 2.09 2.09 0 0 1-.64 1.55 2.49 2.49 0 0 1-1.83.63 3.14 3.14 0 0 1-.82-.1 3.58 3.58 0 0 1-.62-.23 2 2 0 0 1-.44-.28 2.94 2.94 0 0 1-.29-.28l.63-1 .23.23a2.11 2.11 0 0 0 .33.25 2 2 0 0 0 .43.2 1.78 1.78 0 0 0 .56.08 1.34 1.34 0 0 0 .89-.26.79.79 0 0 0 .31-.63 1.4 1.4 0 0 0-.07-.48 1.09 1.09 0 0 0-.22-.36 2 2 0 0 0-.35-.31l-.48-.32-.48-.31a4.66 4.66 0 0 1-1.14-1 2.05 2.05 0 0 1-.41-1.32 1.84 1.84 0 0 1 .64-1.43 2.31 2.31 0 0 1 .72-.42 2.5 2.5 0 0 1 .88-.15 3 3 0 0 1 .77.09 2.31 2.31 0 0 1 .56.23 2.42 2.42 0 0 1 .39.27l.25.23zm5.6-.5h-1.69v4.29a2.09 2.09 0 0 0 .21 1.12.81.81 0 0 0 .71.3 1.39 1.39 0 0 0 .5-.08 1.67 1.67 0 0 0 .31-.14l.18 1a2.23 2.23 0 0 1-.39.2 2 2 0 0 1-.82.14 1.91 1.91 0 0 1-1.5-.56 2.74 2.74 0 0 1-.5-1.84V5.45h-.93v-.87l.93-.19.14-2.16h1.16v2.16h1.85zM137.87 7v.86q0 .36-.06.64h-3.95a3.44 3.44 0 0 0 .59 2 1.83 1.83 0 0 0 1.51.64 2.16 2.16 0 0 0 .61-.08 2.28 2.28 0 0 0 .81-.42l.2-.18.48.92-.24.23a2.17 2.17 0 0 1-.43.31 3.12 3.12 0 0 1-.68.27 3.55 3.55 0 0 1-1 .11 3.42 3.42 0 0 1-1.31-.24 2.48 2.48 0 0 1-1-.75 3.62 3.62 0 0 1-.64-1.29 6.82 6.82 0 0 1-.23-1.88 6 6 0 0 1 .23-1.78 3.55 3.55 0 0 1 .64-1.23 2.54 2.54 0 0 1 .93-.72 2.81 2.81 0 0 1 1.14-.23 2.22 2.22 0 0 1 1.74.7 3.06 3.06 0 0 1 .66 2.12zm-2.45-1.74a1.31 1.31 0 0 0-1.11.58 3.16 3.16 0 0 0-.48 1.68h2.82a1.76 1.76 0 0 0 0-.23v-.33a2.09 2.09 0 0 0-.32-1.25 1.08 1.08 0 0 0-.91-.45zm7.59.27l-.21-.08a1.57 1.57 0 0 0-.43 0 1.33 1.33 0 0 0-1 .33 1.93 1.93 0 0 0-.49.72v5.67h-1.3V4.39h1.19v1A2.55 2.55 0 0 1 141 5a1.58 1.58 0 0 1 .32-.39 1.43 1.43 0 0 1 .46-.27 1.87 1.87 0 0 1 .64-.1 1.66 1.66 0 0 1 .44 0l.27.08zm2.59 6.59h-1.3V4.39h1.3zm-.6-9.6a.84.84 0 0 1-.64-.26 1 1 0 0 1-.24-.68.93.93 0 0 1 .24-.66.84.84 0 0 1 .64-.25.82.82 0 0 1 .63.26.93.93 0 0 1 .24.66 1 1 0 0 1-.24.68.82.82 0 0 1-.63.25zm8.05 9.6h-1.19v-.87a1.58 1.58 0 0 1-.21.28 2.1 2.1 0 0 1-.41.35 2.76 2.76 0 0 1-.6.3 2.29 2.29 0 0 1-.79.13 2.64 2.64 0 0 1-.93-.15 1.68 1.68 0 0 1-.7-.49 2.29 2.29 0 0 1-.44-.88 4.94 4.94 0 0 1-.15-1.33V4.39h1.3v5a2.31 2.31 0 0 0 .31 1.38 1.15 1.15 0 0 0 1 .41 1.57 1.57 0 0 0 1-.28 3.33 3.33 0 0 0 .61-.56V4.39H153zm6.06 0v-5a2.59 2.59 0 0 0-.27-1.37 1 1 0 0 0-.89-.42 1.86 1.86 0 0 0-.57.08 2 2 0 0 0-.44.2 1.9 1.9 0 0 0-.34.27l-.24.26v6H155V4.39h1.19v.87a2.63 2.63 0 0 1 .24-.31 2.2 2.2 0 0 1 .4-.35 2.3 2.3 0 0 1 .56-.28 2.19 2.19 0 0 1 .72-.11 1.94 1.94 0 0 1 1.87 1 2.4 2.4 0 0 1 .31-.35 2.48 2.48 0 0 1 .45-.34 2.59 2.59 0 0 1 .58-.25 2.46 2.46 0 0 1 .71-.1q2.35 0 2.35 2.74v5.19h-1.3v-5a2.19 2.19 0 0 0-.34-1.37 1.21 1.21 0 0 0-1-.42 1.5 1.5 0 0 0-.91.27 3.49 3.49 0 0 0-.57.51 3.8 3.8 0 0 1 0 .38v5.62zm-101.5 9.57H56v6.67h-1.3v-6.67h-.9v-.87l.93-.18V19.1a3 3 0 0 1 .18-1.1 2.14 2.14 0 0 1 .47-.74 1.71 1.71 0 0 1 .68-.42 2.58 2.58 0 0 1 .82-.13 2 2 0 0 1 .71.11A2.34 2.34 0 0 1 58 17l-.27 1.08a1.61 1.61 0 0 0-.27-.14 1.15 1.15 0 0 0-.43-.07.87.87 0 0 0-.71.29 1.72 1.72 0 0 0-.32 1.09v1.39h1.74zm6.7 6.67h-1.19v-.87a1.58 1.58 0 0 1-.21.28 2.1 2.1 0 0 1-.41.35 2.76 2.76 0 0 1-.6.3 2.29 2.29 0 0 1-.79.13 2.64 2.64 0 0 1-.93-.15 1.68 1.68 0 0 1-.7-.49A2.29 2.29 0 0 1 59 27a4.94 4.94 0 0 1-.15-1.33v-5.04h1.3v5a2.31 2.31 0 0 0 .32 1.37 1.15 1.15 0 0 0 1 .41 1.57 1.57 0 0 0 1-.28 3.33 3.33 0 0 0 .61-.56v-5.94h1.3zm-3.21-10a.81.81 0 0 1-.23.6.78.78 0 0 1-1.1 0 .9.9 0 0 1 0-1.19.78.78 0 0 1 1.1 0 .81.81 0 0 1 .24.64zm2.48 0a.81.81 0 0 1-.23.6.78.78 0 0 1-1.1 0 .9.9 0 0 1 0-1.19.78.78 0 0 1 1.1 0 .81.81 0 0 1 .24.64zm6.12 3.37l-.21-.08a1.57 1.57 0 0 0-.43 0 1.33 1.33 0 0 0-1 .33 1.93 1.93 0 0 0-.49.72v5.67h-1.3v-7.74h1.23v1a2.55 2.55 0 0 1 .21-.44 1.58 1.58 0 0 1 .32-.39 1.43 1.43 0 0 1 .46-.27 1.87 1.87 0 0 1 .64-.1 1.66 1.66 0 0 1 .44 0l.27.08zm15.46-4.53l-2.69 11.16h-1.26l-1.69-7q-.18-.72-.31-1.35a6.7 6.7 0 0 1-.14-1 5 5 0 0 1-.13 1q-.13.61-.31 1.34l-1.72 7h-1.29L73 17.25h1.5L75.86 24q.16.77.28 1.46a8.72 8.72 0 0 1 .14 1.06 7 7 0 0 1 .17-1.08q.15-.71.33-1.47l1.64-6.73h1.34L81.4 24q.18.77.32 1.46a7 7 0 0 1 .16 1.06 8.86 8.86 0 0 1 .14-1.09q.13-.72.29-1.49l1.4-6.7zm2.51 11.11h-1.3v-7.68h1.3zM87 18.76a.84.84 0 0 1-.64-.26 1 1 0 0 1-.24-.68.93.93 0 0 1 .24-.66.84.84 0 0 1 .64-.26.82.82 0 0 1 .63.26.93.93 0 0 1 .24.66 1 1 0 0 1-.24.68.82.82 0 0 1-.63.26zm6 3l-.21-.08a1.57 1.57 0 0 0-.43 0 1.33 1.33 0 0 0-1 .33 1.93 1.93 0 0 0-.49.72v5.67h-1.3v-7.77h1.19v1a2.55 2.55 0 0 1 .21-.44 1.58 1.58 0 0 1 .32-.39 1.43 1.43 0 0 1 .46-.27 1.87 1.87 0 0 1 .64-.1 1.66 1.66 0 0 1 .44 0l.27.08zm4.59-.08H96V26a2.09 2.09 0 0 0 .21 1.12.81.81 0 0 0 .71.3 1.39 1.39 0 0 0 .5-.08 1.67 1.67 0 0 0 .31-.14l.18 1a2.23 2.23 0 0 1-.39.2 2 2 0 0 1-.82.14 1.91 1.91 0 0 1-1.5-.56 2.74 2.74 0 0 1-.5-1.84v-4.45h-.93v-.87l.93-.19.14-2.16H96v2.16h1.85zm4.82.5a3.28 3.28 0 0 0-.47-.39 1.46 1.46 0 0 0-.89-.25 1.16 1.16 0 0 0-.79.24.75.75 0 0 0-.27.58 1 1 0 0 0 .25.72 3.53 3.53 0 0 0 .76.6l.48.29a4.75 4.75 0 0 1 1.24 1 2.28 2.28 0 0 1-.19 2.94 2.49 2.49 0 0 1-1.83.63 3.14 3.14 0 0 1-.82-.1 3.58 3.58 0 0 1-.62-.23 2 2 0 0 1-.44-.28 2.94 2.94 0 0 1-.29-.28l.63-1 .23.23a2.11 2.11 0 0 0 .33.25 2 2 0 0 0 .43.2 1.78 1.78 0 0 0 .56.08 1.34 1.34 0 0 0 .89-.26.79.79 0 0 0 .31-.63 1.4 1.4 0 0 0-.07-.48 1.09 1.09 0 0 0-.22-.36 2 2 0 0 0-.35-.31l-.48-.32-.48-.31a4.66 4.66 0 0 1-1.14-1 2.05 2.05 0 0 1-.41-1.32 1.84 1.84 0 0 1 .73-1.42 2.31 2.31 0 0 1 .72-.42 2.5 2.5 0 0 1 .88-.15 3 3 0 0 1 .77.09 2.31 2.31 0 0 1 .56.23 2.42 2.42 0 0 1 .39.27l.25.23zm6.6-.06l-.15-.14a1.63 1.63 0 0 0-.27-.19 1.85 1.85 0 0 0-.39-.17 1.68 1.68 0 0 0-.52-.07 2 2 0 0 0-.78.15 1.57 1.57 0 0 0-.63.49 2.52 2.52 0 0 0-.42.88 4.87 4.87 0 0 0-.15 1.31 6.35 6.35 0 0 0 .14 1.43 2.7 2.7 0 0 0 .38.93 1.41 1.41 0 0 0 .59.5 1.87 1.87 0 0 0 .76.15 1.64 1.64 0 0 0 .91-.21 3.11 3.11 0 0 0 .44-.34l.53.9a2.37 2.37 0 0 1-.23.23 2 2 0 0 1-.39.27 2.65 2.65 0 0 1-.59.22 3.24 3.24 0 0 1-.8.09 3.44 3.44 0 0 1-1.21-.21 2.39 2.39 0 0 1-1-.69 3.48 3.48 0 0 1-.66-1.26 6.51 6.51 0 0 1-.24-1.92 5.39 5.39 0 0 1 .29-1.88 3.51 3.51 0 0 1 .76-1.25 2.89 2.89 0 0 1 1-.69 3.34 3.34 0 0 1 1.92-.14 2.55 2.55 0 0 1 .56.2 1.86 1.86 0 0 1 .39.26l.25.23zm6.14 6.23v-5a2.34 2.34 0 0 0-.33-1.41 1.19 1.19 0 0 0-1-.43 1.57 1.57 0 0 0-1 .29 3.55 3.55 0 0 0-.61.56v6H111V17l1.3-.14v4.59l.2-.26a1.82 1.82 0 0 1 .38-.32 2.61 2.61 0 0 1 .59-.28 2.47 2.47 0 0 1 .81-.12 2.06 2.06 0 0 1 1.61.66 3.24 3.24 0 0 1 .6 2.19v5.07zm2.8-2a2.25 2.25 0 0 1 .26-1.13 2.11 2.11 0 0 1 .69-.73 3 3 0 0 1 1-.4 6.19 6.19 0 0 1 1.25-.12h.4v-.74a2 2 0 0 0-.35-1.35 1.27 1.27 0 0 0-1-.37 1.75 1.75 0 0 0-1 .25 5.8 5.8 0 0 0-.61.44l-.55-.87a4 4 0 0 1 .33-.29 2.76 2.76 0 0 1 .49-.31 3.39 3.39 0 0 1 .66-.24 3.32 3.32 0 0 1 .84-.1 2.34 2.34 0 0 1 1.8.66 3.07 3.07 0 0 1 .61 2.13V27.71a6.08 6.08 0 0 0 .06.64h-1.03v-.85a2.06 2.06 0 0 1-.19.33 1.59 1.59 0 0 1-.32.34 1.94 1.94 0 0 1-.47.27 1.69 1.69 0 0 1-.64.11 2.06 2.06 0 0 1-.81-.16 2 2 0 0 1-1.1-1.14 2.36 2.36 0 0 1-.27-.85zm2.34 1a1.34 1.34 0 0 0 .48-.08 1.54 1.54 0 0 0 .36-.19 1.27 1.27 0 0 0 .26-.25l.19-.23V25h-.42a3 3 0 0 0-1.42.32 1 1 0 0 0-.48.93 1.28 1.28 0 0 0 .27.89 1 1 0 0 0 .83.3zm7.8-5.75h-1.58v6.67h-1.3v-6.58h-.93v-.87l.93-.18V19.1a3 3 0 0 1 .18-1.08 2.14 2.14 0 0 1 .47-.74 1.71 1.71 0 0 1 .68-.42 2.58 2.58 0 0 1 .82-.13 2 2 0 0 1 .71.11 2.34 2.34 0 0 1 .39.18l-.27 1.08a1.61 1.61 0 0 0-.19-.1 1.15 1.15 0 0 0-.43-.07.87.87 0 0 0-.71.29 1.72 1.72 0 0 0-.24 1.06v1.39h1.74zm4.59 0h-1.69V26a2.09 2.09 0 0 0 .21 1.12.81.81 0 0 0 .71.3 1.39 1.39 0 0 0 .5-.08 1.67 1.67 0 0 0 .31-.14l.18 1a2.23 2.23 0 0 1-.39.2 2 2 0 0 1-.82.14 1.91 1.91 0 0 1-1.5-.56 2.74 2.74 0 0 1-.5-1.84v-4.45h-.93v-.87l.93-.19.14-2.16h1.16v2.16h1.85zm-73 22.91h-1.1v-.87a1.58 1.58 0 0 1-.21.28 2.1 2.1 0 0 1-.41.35 2.76 2.76 0 0 1-.6.3 2.29 2.29 0 0 1-.79.13 2.64 2.64 0 0 1-.93-.15 1.68 1.68 0 0 1-.7-.49 2.29 2.29 0 0 1-.44-.88 4.94 4.94 0 0 1-.15-1.33v-4.98h1.3v5a2.31 2.31 0 0 0 .31 1.38 1.15 1.15 0 0 0 1 .41 1.57 1.57 0 0 0 1-.28 3.33 3.33 0 0 0 .61-.56v-5.95h1.3zm6.22 0v-5a2.34 2.34 0 0 0-.33-1.41 1.19 1.19 0 0 0-1-.43 1.57 1.57 0 0 0-1 .29 3.55 3.55 0 0 0-.61.56v6h-1.3v-7.65H63v.87a1.58 1.58 0 0 1 .21-.28 2 2 0 0 1 .42-.35 3 3 0 0 1 .61-.3 2.35 2.35 0 0 1 .81-.13 2.71 2.71 0 0 1 .93.15 1.68 1.68 0 0 1 .71.49 2.37 2.37 0 0 1 .45.88 4.71 4.71 0 0 1 .16 1.33v5.07zm2.9-3.75a5.47 5.47 0 0 1 .31-2 3.62 3.62 0 0 1 .89-1.15 2.75 2.75 0 0 1 1.1-.68 3.9 3.9 0 0 1 1.22-.2 3.23 3.23 0 0 1 .64.06 2.15 2.15 0 0 1 .45.14v-3.7l1.3-.14V44.6h-1.2v-.82a1.85 1.85 0 0 1-.18.27 1.8 1.8 0 0 1-.35.34 2.13 2.13 0 0 1-.56.29 2.35 2.35 0 0 1-.79.12 2.54 2.54 0 0 1-1-.22 2.24 2.24 0 0 1-.86-.69 3.61 3.61 0 0 1-.59-1.22 6.56 6.56 0 0 1-.29-1.82zm3.06 2.79a1.73 1.73 0 0 0 .55-.08 1.69 1.69 0 0 0 .42-.2 1.78 1.78 0 0 0 .3-.25 1.82 1.82 0 0 0 .19-.23v-4.68a2 2 0 0 0-.41-.19 1.83 1.83 0 0 0-.59-.08 2.32 2.32 0 0 0-.85.15 1.65 1.65 0 0 0-.68.51 2.63 2.63 0 0 0-.46.92 4.88 4.88 0 0 0-.17 1.39 5.57 5.57 0 0 0 .14 1.34 2.51 2.51 0 0 0 .38.87 1.46 1.46 0 0 0 .55.48 1.49 1.49 0 0 0 .72.14zm13.8-9h-4v3.83h3.64v1.11h-3.51v3.9h4.36l-.08 1.16h-5.68V33.49h5.46zM92 44.6v-5a2.34 2.34 0 0 0-.33-1.41 1.19 1.19 0 0 0-1-.43 1.57 1.57 0 0 0-1 .29 3.55 3.55 0 0 0-.61.56v6h-1.3v-7.74h1.19v.87a1.58 1.58 0 0 1 .21-.28 2 2 0 0 1 .42-.35 3 3 0 0 1 .61-.3 2.35 2.35 0 0 1 .81-.13 2.71 2.71 0 0 1 .93.15 1.68 1.68 0 0 1 .71.49 2.37 2.37 0 0 1 .45.88 4.71 4.71 0 0 1 .16 1.33v5.07zm8.21-5.12v.86q0 .36-.06.64h-4.01a3.44 3.44 0 0 0 .59 2 1.83 1.83 0 0 0 1.51.64 2.16 2.16 0 0 0 .61-.08 2.28 2.28 0 0 0 .81-.42l.2-.18.48.92-.24.23a2.17 2.17 0 0 1-.43.31 3.12 3.12 0 0 1-.68.27 3.55 3.55 0 0 1-1 .11 3.42 3.42 0 0 1-1.31-.24 2.48 2.48 0 0 1-1-.75 3.62 3.62 0 0 1-.64-1.29 6.82 6.82 0 0 1-.23-1.88 6 6 0 0 1 .23-1.78 3.55 3.55 0 0 1 .64-1.23 2.54 2.54 0 0 1 .93-.72 2.81 2.81 0 0 1 1.14-.23 2.22 2.22 0 0 1 1.74.7 3.06 3.06 0 0 1 .69 2.12zm-2.45-1.74a1.31 1.31 0 0 0-1.11.58 3.16 3.16 0 0 0-.51 1.68H99a1.76 1.76 0 0 0 0-.23v-.33a2.09 2.09 0 0 0-.32-1.25 1.08 1.08 0 0 0-.95-.45zm7.59.27l-.21-.08a1.57 1.57 0 0 0-.43 0 1.33 1.33 0 0 0-1 .33 1.93 1.93 0 0 0-.49.72v5.62h-1.3v-7.73h1.19v1a2.55 2.55 0 0 1 .21-.44 1.59 1.59 0 0 1 .32-.39 1.43 1.43 0 0 1 .46-.27 1.87 1.87 0 0 1 .64-.1 1.66 1.66 0 0 1 .44 0l.27.08zm6.7-.13h-1a2.62 2.62 0 0 1 .37 1.39 2.89 2.89 0 0 1-.2 1.1 2.32 2.32 0 0 1-.56.83 2.46 2.46 0 0 1-.85.52 3.09 3.09 0 0 1-1.05.18h-.42a1.57 1.57 0 0 0-.4.26.58.58 0 0 0-.21.47.49.49 0 0 0 .19.39 1 1 0 0 0 .6.15h1a4.32 4.32 0 0 1 1 .11 2.3 2.3 0 0 1 .81.36 1.72 1.72 0 0 1 .54.64 2.07 2.07 0 0 1 .19.93 2.46 2.46 0 0 1-.27 1.14 2.62 2.62 0 0 1-.75.89 3.65 3.65 0 0 1-1.18.58 5.33 5.33 0 0 1-1.55.21 2.87 2.87 0 0 1-1.88-.54 1.91 1.91 0 0 1-.64-1.55 1.69 1.69 0 0 1 .15-.75 2.36 2.36 0 0 1 .36-.55 2 2 0 0 1 .43-.37l.35-.22a1.26 1.26 0 0 1-.5-1.08 1.11 1.11 0 0 1 .12-.53 1.44 1.44 0 0 1 .3-.44 1.66 1.66 0 0 1 .31-.23l.23-.12a2.18 2.18 0 0 1-1-.86 2.83 2.83 0 0 1-.36-1.51 2.88 2.88 0 0 1 .21-1.14 2.3 2.3 0 0 1 .56-.81 2.33 2.33 0 0 1 .83-.48 3.17 3.17 0 0 1 1-.16 2.75 2.75 0 0 1 1 .19h2.35zm-3.59 6.47a3.26 3.26 0 0 1-.6 0 1.88 1.88 0 0 0-.28.19 1.36 1.36 0 0 0-.25.27 1.46 1.46 0 0 0-.19.38 1.61 1.61 0 0 0-.07.51q0 1.24 1.37 1.24a2.73 2.73 0 0 0 1.74-.46 1.34 1.34 0 0 0 .56-1.06.88.88 0 0 0-.35-.8 1.71 1.71 0 0 0-1-.23zm1.72-5.09a1.54 1.54 0 0 0-.39-1.19 1.34 1.34 0 0 0-.93-.35 1.41 1.41 0 0 0-1 .35 2 2 0 0 0 0 2.38 1.44 1.44 0 0 0 1.89 0 1.54 1.54 0 0 0 .4-1.18zm4.65 5.33h-1.3v-7.72h1.3zm-.64-9.6a.84.84 0 0 1-.64-.26 1 1 0 0 1-.24-.68.93.93 0 0 1 .24-.66.84.84 0 0 1 .64-.26.82.82 0 0 1 .63.26.93.93 0 0 1 .24.66 1 1 0 0 1-.24.68.82.82 0 0 1-.66.27zm7.6 4.48v.86q0 .36-.06.64h-3.95a3.44 3.44 0 0 0 .59 2 1.83 1.83 0 0 0 1.51.64 2.16 2.16 0 0 0 .61-.08 2.28 2.28 0 0 0 .81-.42l.2-.18.48.92-.24.23a2.17 2.17 0 0 1-.43.31 3.12 3.12 0 0 1-.68.27 3.55 3.55 0 0 1-1 .11 3.42 3.42 0 0 1-1.31-.24 2.48 2.48 0 0 1-1-.75 3.62 3.62 0 0 1-.64-1.29 6.82 6.82 0 0 1-.23-1.88 6 6 0 0 1 .23-1.78 3.55 3.55 0 0 1 .64-1.23 2.54 2.54 0 0 1 .93-.72 2.81 2.81 0 0 1 1.14-.23 2.22 2.22 0 0 1 1.74.7 3.06 3.06 0 0 1 .63 2.13zm-2.45-1.74a1.31 1.31 0 0 0-1.11.58 3.16 3.16 0 0 0-.48 1.68h2.82a1.76 1.76 0 0 0 0-.23v-.33a2.09 2.09 0 0 0-.32-1.25 1.08 1.08 0 0 0-.93-.44zM19.08 11.23a7.81 7.81 0 0 0 .06-.94v-.61c2.7 0 5.06-2 5.06-4.22A4 4 0 0 0 23 3l.28-.06A4.53 4.53 0 0 1 24.82 6c0 2.68-2.68 5.17-5.74 5.23m-2.71-9.34a1.84 1.84 0 0 0-.34-.8c0-.27.12-.53.56-.32-.24.24-.05.68-.05.68s.49-.23.39-.55c.72.17.2 1.14-.56 1m-.63 1.38a2.83 2.83 0 0 0-.56-1.12A1.56 1.56 0 0 0 14 1.53a2.85 2.85 0 0 0-.91.22 2.48 2.48 0 0 1-.27-.75c0-.2.33-.4 1-.4C15.19.57 16 1.2 16 2.25a2.52 2.52 0 0 1-.28 1m3.59 18a.83.83 0 0 1 .34.06 19.14 19.14 0 0 0 2 3.25 15.15 15.15 0 0 1 2.16-.21.35.35 0 0 1 .25.06.38.38 0 0 1 .08.28 1.54 1.54 0 0 1-.19.69 1.9 1.9 0 0 0-1.4-.38 2.65 2.65 0 0 0-.63.1h-.13l.43.43c.66.66 1.23 1.22 1.23 1.6a1 1 0 0 1-.42.66 3.62 3.62 0 0 0-1.42-2.14h-.06v.92c0 1.32-.13 1.52-.59 1.52a.83.83 0 0 1-.24 0 2.2 2.2 0 0 0 .28-1.57v-.61a4.85 4.85 0 0 1 .06-.71v-.1H21a7.39 7.39 0 0 0-.91-.08 1.94 1.94 0 0 0-1.41.36 1.12 1.12 0 0 1-.43-.65c0-.27.17-.3.4-.3a3.08 3.08 0 0 1 .37 0 9.42 9.42 0 0 0 1.57.1h.05v-.05a10.52 10.52 0 0 0-1.79-2.72c.09-.32.17-.52.48-.52M11 24.51v.05a9.44 9.44 0 0 0 1.57-.1 3.08 3.08 0 0 1 .37 0c.22 0 .4 0 .4.3a1.12 1.12 0 0 1-.43.65A1.94 1.94 0 0 0 11.5 25a7.36 7.36 0 0 0-.91.08h-.07v.1a4.64 4.64 0 0 1 .06.71v.61a2.2 2.2 0 0 0 .35 1.5.85.85 0 0 1-.24 0c-.46 0-.59-.2-.59-1.52V25.6h-.06a3.61 3.61 0 0 0-1.42 2.14 1 1 0 0 1-.43-.66c0-.38.57-.94 1.23-1.6l.38-.38h-.12a2.65 2.65 0 0 0-.63-.1 1.91 1.91 0 0 0-1.48.45 1.54 1.54 0 0 1-.19-.69.38.38 0 0 1 .08-.28.35.35 0 0 1 .25-.06 15.13 15.13 0 0 1 2.16.21 19.12 19.12 0 0 0 2-3.25.81.81 0 0 1 .33-.06c.3 0 .39.21.48.52A10.5 10.5 0 0 0 11 24.51M6.78 6A4.53 4.53 0 0 1 8.3 2.89l.29.11a4 4 0 0 0-1.17 2.47c0 2.26 2.41 4.22 5.14 4.22v.61a8.44 8.44 0 0 0 .05.94C9.5 11.21 6.78 8.7 6.78 6m20.72 4.76c1.39 2.19 2.47 2.15 4.11 2.15a11.71 11.71 0 0 1-2.68-3l-2.53-4a6 6 0 0 0-1.86-3.29 3.25 3.25 0 0 0 .76-.38c-1.65 0-3.29-.84-4.19-.84a.85.85 0 0 0-1 .8c0 .51.56 1 1.53 1a5.17 5.17 0 0 0 .81-.08 3.85 3.85 0 0 1 .95 2.34c0 1.77-2.12 3.15-4.26 3.15h-.36a4.8 4.8 0 0 1-.84-2c0-1.41.92-2.56.92-4a2.62 2.62 0 0 0-.54-1.67 2.47 2.47 0 0 0 .62-.75 1.51 1.51 0 0 1-.6.07c-1 0-1.86-.27-2.68-.27-.47 0-.59.14-.59.28a.31.31 0 0 0 0 .13 2.74 2.74 0 0 0-.53-.15 4.13 4.13 0 0 0-.78-.07c-1 0-1.34.42-1.34.77A3 3 0 0 0 13 2.23a3 3 0 0 1 1-.33c.53 0 1 .5 1.24 1.09a4.68 4.68 0 0 1-.78.06 5.94 5.94 0 0 1-1.76-.35s.27.49.81.69a10.64 10.64 0 0 0 2 .4.85.85 0 0 1-.38.43.22.22 0 0 1-.13 0 8.88 8.88 0 0 1-2-.52c0 .37 1 1.19 1.83 1.51a9.66 9.66 0 0 0-2 3.3h-.36c-2.14 0-4.26-1.38-4.26-3.15a3.85 3.85 0 0 1 .95-2.34 5.15 5.15 0 0 0 .81.08c1 0 1.5-.52 1.53-1a.85.85 0 0 0-1-.8c-.9 0-2.54.84-4.19.84a3.31 3.31 0 0 0 .76.38 6 6 0 0 0-1.86 3.29l-2.53 4a11.7 11.7 0 0 1-2.68 3c1.64 0 2.72 0 4.11-2.15l1.3-2.08a5.61 5.61 0 0 0 .35.79L3.18 13.6a11.67 11.67 0 0 1-2.68 3c1.64 0 2.72 0 4.11-2.15l2.22-3.56c.17.18.34.35.53.52l-3.13 5a11.59 11.59 0 0 1-2.68 3c1.64 0 2.72 0 4.11-2.15l3.06-4.89.62.37-3.73 6a11.65 11.65 0 0 1-2.68 3c1.64 0 2.72 0 4.11-2.15l3.84-6.15.69.24-4.35 7.07a11.71 11.71 0 0 1-2.68 3c1.64 0 2.72 0 4.11-2.15l4.63-7.4h.14a3.84 3.84 0 0 1 .21 1.15c0 2.33-1.53 4.38-3.36 6a1.46 1.46 0 0 0 .51.07 4.77 4.77 0 0 0 .79-.05 18.89 18.89 0 0 1-1.8 2.86 13.38 13.38 0 0 0-2-.19c-.6 0-.67.35-.67.66a1.57 1.57 0 0 0 .55 1.22c.11-.28.33-.65 1.44-.65h.11c-.32.36-1.33 1.18-1.33 1.83a1.21 1.21 0 0 0 1.11 1.09 1.38 1.38 0 0 1 0-.37 2.84 2.84 0 0 1 .87-1.59 1.89 1.89 0 0 0 0 .27c0 1.26.11 1.84.91 1.84a1.28 1.28 0 0 0 .76-.28 1.72 1.72 0 0 1-.55-1.56v-.61a3.43 3.43 0 0 0 0-.53 3.68 3.68 0 0 1 .62 0s1.14-.09 1.41.5c.31-.28.76-.68.76-1.12s-.14-.62-.72-.62c-.22 0-.92.14-1.5.14A14.7 14.7 0 0 1 13 22.15a1.69 1.69 0 0 0 .55.85 6 6 0 0 1 1.07-2.86 14.05 14.05 0 0 1 .2 2.49c0 3.13-.75 5.44-2.35 5.89a1.37 1.37 0 0 0 1.1.69c.58 0 .9-.66 1.23-1.29.17.46.64 1.59 1.1 1.59s.94-1.13 1.11-1.59c.32.62.64 1.29 1.23 1.29a1.37 1.37 0 0 0 1.1-.69c-1.6-.44-2.35-2.75-2.35-5.89a14.05 14.05 0 0 1 .2-2.49 6 6 0 0 1 .97 2.86 1.68 1.68 0 0 0 .55-.85 14.82 14.82 0 0 1 1.46 2.11c-.58 0-1.28-.14-1.5-.14-.58 0-.72.33-.72.62s.45.84.76 1.12c.27-.59 1.41-.5 1.41-.5a3.7 3.7 0 0 1 .62 0 3.27 3.27 0 0 0 0 .53v.61a1.72 1.72 0 0 1-.55 1.56 1.28 1.28 0 0 0 .76.28c.8 0 .91-.58.91-1.84a2.1 2.1 0 0 0 0-.27 2.84 2.84 0 0 1 .87 1.59 1.28 1.28 0 0 1 0 .37 1.21 1.21 0 0 0 1.11-1.09c0-.66-1-1.48-1.34-1.83h.11c1.11 0 1.33.37 1.44.65a1.57 1.57 0 0 0 .55-1.22c0-.31-.07-.66-.67-.66a13.39 13.39 0 0 0-2 .19A18.89 18.89 0 0 1 20 21.39a4.78 4.78 0 0 0 .79.05 1.46 1.46 0 0 0 .51-.07c-1.83-1.59-3.36-3.64-3.36-6a3.84 3.84 0 0 1 .21-1.15h.14L23 21.64c1.38 2.19 2.47 2.15 4.11 2.15a11.71 11.71 0 0 1-2.68-3L20 13.8l.69-.24 3.84 6.15c1.39 2.19 2.47 2.15 4.11 2.15a11.65 11.65 0 0 1-2.68-3l-3.73-6 .62-.37L26 17.36c1.39 2.19 2.47 2.15 4.11 2.15a11.61 11.61 0 0 1-2.68-3l-3.13-5c.18-.17.36-.34.52-.52l2.18 3.5c1.38 2.19 2.47 2.15 4.11 2.15a11.67 11.67 0 0 1-2.68-3l-2.58-4.17a5.93 5.93 0 0 0 .35-.79zM44.56 28.36h-4.73V1.29h4.74z"/><path d="M44.56 55.43h-4.73V28.36h4.74z" fill="red"/><path d="M44.56 82.5h-4.73V55.43h4.74z" fill="#fc0"/></svg>
