<svg height='100px' width='100px'  fill="#000000" xmlns:dc="http://purl.org/dc/elements/1.1/" xmlns:cc="http://creativecommons.org/ns#" xmlns:rdf="http://www.w3.org/1999/02/22-rdf-syntax-ns#" xmlns:svg="http://www.w3.org/2000/svg" xmlns="http://www.w3.org/2000/svg" xmlns:sodipodi="http://sodipodi.sourceforge.net/DTD/sodipodi-0.dtd" xmlns:inkscape="http://www.inkscape.org/namespaces/inkscape" version="1.1" x="0px" y="0px" viewBox="0 0 100 100"><g transform="translate(0,-952.36218)"><path d="m 20,1017.3622 c -8.27541,0 -15.0000002,-6.7246 -15.0000002,-15 0,-8.27543 6.7245902,-15.00002 15.0000002,-15.00002 l 22,0 c 7.88973,0 14.3873,6.08859 14.96875,13.84372 a 2.0049395,2.0049395 0 1 1 -4,0.2813 C 52.54046,995.77474 47.84479,991.36218 42,991.36218 l -22,0 c -6.12859,0 -11.0000001,4.87141 -11.0000001,11.00002 0,6.1286 4.8714101,11 11.0000001,11 l 21,0 a 2.0002,2.0002 0 1 1 0,4 l -21,0 z m 38,0 c -7.88973,0 -14.3873,-6.0886 -14.96875,-13.8438 a 2.0049378,2.0049378 0 1 1 4,-0.2812 c 0.42829,5.7124 5.12396,10.125 10.96875,10.125 l 22,0 c 6.12859,0 11,-4.8714 11,-11 0,-6.12861 -4.87141,-11.00002 -11,-11.00002 l -21,0 a 2.0002,2.0002 0 1 1 0,-4 l 21,0 c 8.27541,0 15,6.72459 15,15.00002 0,8.2754 -6.72459,15 -15,15 l -22,0 z" style="text-indent:0;text-transform:none;direction:ltr;block-progression:tb;baseline-shift:baseline;color:#000000;enable-background:accumulate;" fill="#000000" fill-opacity="1" stroke="none" marker="none" visibility="visible" display="inline" overflow="visible"></path></g></svg>