<svg height='100px' width='100px'  fill="#000000" xmlns:x="http://ns.adobe.com/Extensibility/1.0/" xmlns:i="http://ns.adobe.com/AdobeIllustrator/10.0/" xmlns:graph="http://ns.adobe.com/Graphs/1.0/" xmlns="http://www.w3.org/2000/svg" xmlns:xlink="http://www.w3.org/1999/xlink" version="1.1" x="0px" y="0px" viewBox="0 0 100 100" style="enable-background:new 0 0 100 100;" xml:space="preserve"><g><g i:extraneous="self"><g><path d="M24.4,54.4c1.5,0,3.9,0,3.9,0c0.6,0,1.1-0.5,1.1-1.1s-0.5-1.1-1.1-1.1h0.1c0.5,0,1-0.4,1.1-0.9c0.1-0.7-0.4-1.2-1.1-1.2     h0.1c0.5,0,1-0.4,1.1-0.9c0.1-0.7-0.4-1.2-1.1-1.2h0.2c0.6,0,1.1-0.5,1.1-1.1c0-0.6-0.5-1.1-1.1-1.1h-3.4c-0.2,0-0.3-0.2-0.3-0.4     c0.2-1.5,0.5-2,0.7-3.5c0.1-1.5-1.9-1.7-2.3-0.4c-0.6,2.5-2.7,4.2-3.4,4.8C20,46.5,20,46.7,20,46.8v6.1c0,0.2,0.1,0.4,0.3,0.5     C21,53.7,21.9,54.4,24.4,54.4z"></path><path d="M15.7,53.3h2.6c0.3,0,0.5-0.2,0.5-0.5v-5.7c0-0.3-0.2-0.5-0.5-0.5h-2.6c-0.3,0-0.5,0.2-0.5,0.5v5.7     C15.2,53,15.4,53.3,15.7,53.3z"></path><circle cx="58.4" cy="12.9" r="3.8"></circle><circle cx="58.4" cy="83.1" r="3.8"></circle><path d="M80,37.6c-6.3,0-11.4,4.7-12.2,10.8H37.4v-9h19c2,0,3.6-1.6,3.6-3.6v-8.7c6.1-0.8,10.8-5.9,10.8-12.2     c0-6.8-5.5-12.4-12.4-12.4C51.6,2.5,46,8,46,14.9c0,6.3,4.7,11.4,10.8,12.2v8.7c0,0.2-0.2,0.4-0.4,0.4h-19v-9.3c0-1.6-1.3-3-3-3     H10.7c-1.6,0-3,1.3-3,3v46.2c0,1.6,1.3,3,3,3h23.7c1.6,0,3-1.3,3-3v-9.3h19c0.2,0,0.4,0.2,0.4,0.4v8.7C50.7,73.7,46,78.9,46,85.1     c0,6.8,5.5,12.4,12.4,12.4c6.8,0,12.4-5.5,12.4-12.4c0-6.3-4.7-11.4-10.8-12.2v-8.7c0-2-1.6-3.6-3.6-3.6h-19v-9h30.4     c0.8,6.1,5.9,10.8,12.2,10.8c6.8,0,12.4-5.5,12.4-12.4C92.3,43.2,86.8,37.6,80,37.6z M49.2,14.9c0-5.1,4.1-9.2,9.2-9.2     s9.2,4.1,9.2,9.2c0,2.9-1.4,5.5-3.5,7.1c-0.8-2.4-3-4.2-5.7-4.2c-2.7,0-4.9,1.8-5.7,4.2C50.6,20.3,49.2,17.8,49.2,14.9z      M19.1,26.9h6.8c0.5,0,1,0.4,1,1c0,0.5-0.4,1-1,1h-6.8c-0.5,0-1-0.4-1-1C18.1,27.4,18.5,26.9,19.1,26.9z M22.5,72.9     c-1.4,0-2.5-1.1-2.5-2.5c0-1.4,1.1-2.5,2.5-2.5c1.4,0,2.5,1.1,2.5,2.5C25,71.7,23.9,72.9,22.5,72.9z M33.5,64.7h-22V31.9h22V64.7     z M67.6,85.1c0,2.9-1.4,5.5-3.5,7.1c-0.7-2.4-3-4.2-5.7-4.2c-2.7,0-4.9,1.8-5.7,4.2c-2.1-1.7-3.5-4.2-3.5-7.1     c0-5.1,4.1-9.2,9.2-9.2S67.6,80.1,67.6,85.1z M85.6,57.1c-0.7-2.4-3-4.2-5.7-4.2c-2.7,0-4.9,1.8-5.7,4.2     c-2.1-1.7-3.5-4.2-3.5-7.1c0-5.1,4.1-9.2,9.2-9.2c5.1,0,9.2,4.1,9.2,9.2C89.1,52.9,87.7,55.5,85.6,57.1z"></path><circle cx="80" cy="48" r="3.8"></circle></g></g></g></svg>