<svg height='100px' width='100px'  fill="#000000" xmlns:dc="http://purl.org/dc/elements/1.1/" xmlns:cc="http://creativecommons.org/ns#" xmlns:rdf="http://www.w3.org/1999/02/22-rdf-syntax-ns#" xmlns:svg="http://www.w3.org/2000/svg" xmlns="http://www.w3.org/2000/svg" xmlns:sodipodi="http://sodipodi.sourceforge.net/DTD/sodipodi-0.dtd" xmlns:inkscape="http://www.inkscape.org/namespaces/inkscape" version="1.1" x="0px" y="0px" viewBox="0 0 100 100"><g transform="translate(0,-952.36218)"><path style="text-indent:0;text-transform:none;direction:ltr;block-progression:tb;baseline-shift:baseline;color:#000000;enable-background:accumulate;" d="m 69.746513,971.91389 c -0.912366,0.10196 -1.719248,0.83774 -1.907964,1.7398 -0.188717,0.90206 0.255047,1.90166 1.049421,2.36365 10.012783,6.3343 16.655775,17.48978 16.655775,30.20686 0,3.3712 -0.487594,6.6286 -1.339335,9.6897 -0.690874,-0.1548 -1.427633,-0.2414 -2.163543,-0.2414 -5.510232,0 -9.959102,4.5433 -9.959102,10.0345 0,5.4912 4.44887,10.0345 9.959102,10.0345 5.482098,0 9.959138,-4.5433 9.959138,-10.0345 0,-3.1505 -1.489429,-5.9824 -3.777626,-7.8276 1.10459,-3.6763 1.717086,-7.5963 1.717086,-11.6552 0,-14.26085 -7.468476,-26.84987 -18.716243,-33.96548 -0.366095,-0.23412 -0.802418,-0.35583 -1.236295,-0.34483 -0.08001,-0.004 -0.160371,-0.004 -0.240414,0 z m 12.294354,48.17241 c 3.377551,-0.017 5.507965,2.925 5.563382,5.6207 0,3.1105 -2.478968,5.6207 -5.563382,5.6207 -3.134126,0 -5.597681,-2.5102 -5.597681,-5.6207 0,-3.1104 2.463555,-5.6207 5.597681,-5.6207 z" fill="#000000" fill-opacity="1" fill-rule="evenodd" stroke="none" marker="none" visibility="visible" display="inline" overflow="visible"></path><path style="text-indent:0;text-transform:none;direction:ltr;block-progression:tb;baseline-shift:baseline;color:#000000;enable-background:accumulate;" d="m 17.993432,1015.6725 c -5.482098,0 -9.9934367,4.5299 -9.9934367,10.0345 0,5.5046 4.5113387,10.0345 9.9934367,10.0345 1.435571,0 2.792834,-0.3507 4.018004,-0.8966 7.20861,7.1022 17.111338,11.5173 27.988546,11.5173 6.633177,0 12.895334,-1.6329 18.407197,-4.4828 0.977208,-0.5511 1.390925,-1.9221 0.882673,-2.9252 -0.508252,-1.003 -1.855488,-1.4744 -2.874473,-1.0058 -4.923744,2.5457 -10.510299,4 -16.415397,4 -9.443799,0 -18.043866,-3.7154 -24.416999,-9.7586 1.487976,-1.7511 2.403921,-4.015 2.403921,-6.4828 0,-5.5046 -4.511374,-10.0345 -9.993472,-10.0345 z m 0,4.4138 c 3.084413,0 5.597716,2.5236 5.597716,5.6207 -0.206256,3.0988 -2.322212,5.5818 -5.597716,5.6207 -3.084378,0 -5.597681,-2.5236 -5.597681,-5.6207 0,-3.0971 2.513303,-5.6207 5.597681,-5.6207 z" fill="#000000" fill-opacity="1" fill-rule="evenodd" stroke="none" marker="none" visibility="visible" display="inline" overflow="visible"></path><path style="text-indent:0;text-transform:none;direction:ltr;block-progression:tb;baseline-shift:baseline;color:#000000;enable-background:accumulate;" d="m 49.999982,958.36217 c -5.161004,0 -9.425232,4.00294 -9.890433,9.06896 -17.25385,4.41607 -30.049085,20.12051 -30.049085,38.79307 -0.01637,1.166 1.03663,2.2384 2.197913,2.2384 1.161248,0 2.214284,-1.0724 2.197843,-2.2384 0,-16.47627 11.145082,-30.28437 26.237125,-34.37928 1.408358,3.79963 5.046519,6.51724 9.306637,6.51724 5.497087,0 9.993472,-4.4804 9.993472,-10 0,-5.49122 -4.496385,-10 -9.993472,-10 z m 0,4.41379 c 3.147343,0 5.597717,2.47575 5.597717,5.58621 0,3.16027 -2.450374,5.58621 -5.597717,5.58621 -3.32022,-0.12422 -5.485216,-2.49405 -5.563346,-5.58621 0,-3.11046 2.46561,-5.58621 5.563346,-5.58621 z" fill="#000000" fill-opacity="1" fill-rule="evenodd" stroke="none" marker="none" visibility="visible" display="inline" overflow="visible"></path></g></svg>