<svg height='100px' width='100px'  fill="#000000" xmlns="http://www.w3.org/2000/svg" xmlns:xlink="http://www.w3.org/1999/xlink" xml:space="preserve" version="1.1" style="shape-rendering:geometricPrecision;text-rendering:geometricPrecision;image-rendering:optimizeQuality;" viewBox="0 0 1000 1000" x="0px" y="0px" fill-rule="evenodd" clip-rule="evenodd"><defs><style type="text/css">
   
    .fil0 {fill:#000000;fill-rule:nonzero}
   
  </style></defs><g><path class="fil0" d="M481 772c11,2 18,12 16,23 -1,11 -12,18 -23,17 -61,-10 -116,-43 -158,-91 -40,-47 -67,-108 -74,-176l-44 0c-11,0 -20,-9 -20,-20 0,-3 1,-7 2,-10l65 -127c5,-10 17,-14 27,-9 4,2 7,6 8,9l65 128c5,10 1,22 -8,27 -3,2 -6,2 -9,2l0 0 -46 0c7,58 31,110 65,150 35,41 82,69 134,77z"></path><path class="fil0" d="M312 330c-7,8 -19,10 -28,3 -8,-7 -10,-20 -3,-28 40,-49 96,-80 158,-92 60,-11 127,-4 189,23l22 -38c6,-10 18,-13 28,-7 3,2 5,4 7,7l78 120c6,9 3,21 -6,27 -4,2 -8,3 -12,3l-144 -8c-11,0 -19,-9 -18,-20 0,-4 1,-7 2,-9l23 -40c-54,-23 -110,-28 -162,-19 -53,10 -101,37 -134,78z"></path><path class="fil0" d="M769 410c-4,-10 1,-22 11,-26 11,-4 22,2 26,12 22,58 21,122 0,182 -20,58 -59,112 -114,153l22 38c5,9 2,22 -7,27 -3,2 -7,3 -10,3l-143 7c-11,1 -20,-7 -21,-18 0,-5 1,-9 4,-13l78 -120c6,-9 18,-12 27,-6 3,2 5,5 7,7l23 40c46,-35 79,-82 97,-131 18,-51 19,-106 0,-155z"></path></g></svg>