<svg height='100px' width='100px'  fill="#000000" xmlns="http://www.w3.org/2000/svg" xmlns:xlink="http://www.w3.org/1999/xlink" version="1.1" x="0px" y="0px" viewBox="0 0 100 100" enable-background="new 0 0 100 100" xml:space="preserve"><g><g><g><path d="M72.2,69.582c-0.927-0.982-2.236-1.636-3.655-1.636c-2.073,0-3.764,1.2-4.527,3c0,0.109-0.055,0.164-0.109,0.273     c-0.164,0.491-0.273,1.036-0.273,1.636c0,1.2,0.382,2.236,1.145,3.109l0.491,0.545c0.109,0.164,0.273,0.273,0.382,0.436     c0,0.055,0.055,0.109,0.109,0.164l8.945,9.491l0.491,0.218l0.491-0.218l9.491-10.091l0.491-0.545     c0.709-0.873,1.145-1.909,1.145-3.109c0-2.727-2.236-4.909-4.909-4.909c-1.473,0-2.727,0.655-3.6,1.582     c-0.818,0.927-1.964,1.418-3.109,1.418c-0.273,0-0.545-0.055-0.818-0.109c-0.655-0.109-1.309-0.436-1.855-0.927     C72.418,69.8,72.309,69.691,72.2,69.582z M68.109,24.855l0.6,0.6l6,6.382l0.491,0.218l0.491-0.218l9.491-10.091l0.273-0.273     l0.109-0.109l0.109-0.109c0.055-0.055,0.055-0.109,0.109-0.164l0.055-0.055c0.6-0.873,0.982-1.855,0.982-2.945     c0-2.673-2.236-4.909-4.909-4.909c-1.473,0-2.727,0.655-3.6,1.636c-0.109,0.109-0.273,0.273-0.382,0.327     c-0.055,0.055-0.109,0.109-0.164,0.164c-0.164,0.109-0.273,0.218-0.436,0.273c-0.218,0.164-0.436,0.273-0.655,0.327     c-0.218,0.109-0.382,0.164-0.6,0.164c-0.273,0.055-0.545,0.109-0.818,0.109s-0.545,0-0.818-0.109     c-0.327-0.055-0.655-0.164-0.982-0.327c-0.055,0-0.109,0-0.164-0.109c-0.218-0.055-0.436-0.218-0.655-0.382     c-0.055-0.055-0.055-0.055-0.109-0.109c-0.109-0.109-0.218-0.218-0.327-0.327c-0.927-0.982-2.236-1.636-3.655-1.636     c-2.727,0-4.909,2.236-4.909,4.909c0,1.091,0.327,2.073,0.982,2.945c0,0,0,0.055,0.055,0.055l0.109,0.164l0.436,0.491     l0.327,0.327c0.055,0.109,0.109,0.164,0.218,0.273l2.236,2.4C68.055,24.745,68.055,24.8,68.109,24.855z M18.091,32.382     c2.4,0,4.691,0.655,6.655,1.855c1.964-1.2,4.255-1.855,6.709-1.855c3.764,0,7.2,1.636,9.6,4.2l17.782-9.709l-0.218-0.218     l-0.164-0.218c-1.855-2.236-3-5.182-3-8.345C55.455,10.836,61.345,5,68.545,5c2.4,0,4.691,0.655,6.655,1.855     C77.164,5.655,79.455,5,81.909,5C89.109,5,95,10.836,95,18.091c0,3.164-1.145,6.109-3.055,8.345L81.636,37.455     c-1.691,1.8-4.091,2.836-6.436,2.782c-2.345,0.055-4.745-0.927-6.436-2.782l-4.091-4.364L44.491,44.055     c0.055,0.436,0.055,0.927,0.055,1.418c0,3.164-1.145,6.109-3.055,8.345l-0.109,0.164l-0.273,0.273l17.836,9.655     c2.455-2.564,5.836-4.145,9.6-4.145c2.4,0,4.691,0.655,6.655,1.855c1.964-1.2,4.255-1.855,6.709-1.855     C89.109,59.764,95,65.6,95,72.855c0,3.164-1.145,6.109-3.055,8.345l-0.109,0.164l-0.655,0.709l-0.055,0.055l-9.491,10.091     C79.945,94.018,77.545,95,75.2,95c-2.345,0-4.745-0.982-6.436-2.782l-9.491-10.145l-0.655-0.709L58.455,81.2     c-1.855-2.236-3-5.182-3-8.345c0-0.491,0.055-0.982,0.055-1.473L35.327,60.418l-4.145,4.418c-1.691,1.8-4.091,2.782-6.436,2.782     C22.4,67.673,20,66.636,18.309,64.836L8.818,54.691l-0.655-0.709L8,53.818c-1.855-2.236-3-5.182-3-8.345     C5,38.218,10.891,32.382,18.091,32.382z M23.382,43.291c-0.218-0.055-0.436-0.164-0.655-0.273     c-0.218-0.164-0.436-0.327-0.655-0.491L21.745,42.2c-0.927-0.982-2.236-1.636-3.655-1.636c-2.727,0-4.909,2.236-4.909,4.909     c0,1.091,0.327,2.073,0.982,2.945c0,0,0,0.055,0.055,0.055l0.109,0.164l0.436,0.491l0.436,0.436c0,0.055,0.055,0.109,0.109,0.164     l8.945,9.491l0.491,0.218l0.491-0.218l6.218-6.6c0.055-0.055,0.164-0.164,0.218-0.273l3.055-3.218l0.491-0.491     c0.055-0.055,0.055-0.109,0.109-0.164l0.055-0.055c0.6-0.873,0.982-1.855,0.982-2.945c0-2.673-2.236-4.909-4.909-4.909     c-1.473,0-2.727,0.655-3.6,1.636c-0.055,0.055-0.109,0.109-0.218,0.164c-0.055,0.055-0.109,0.164-0.164,0.164     c-0.164,0.164-0.382,0.327-0.6,0.436c-0.218,0.164-0.436,0.273-0.655,0.327c-0.218,0.109-0.382,0.164-0.6,0.164     c-0.273,0.055-0.545,0.109-0.818,0.109c-0.273,0-0.545-0.055-0.873-0.109C23.709,43.455,23.545,43.4,23.382,43.291z"></path></g></g></g></svg>