<svg height='100px' width='100px'  fill="#000000" xmlns="http://www.w3.org/2000/svg" xmlns:xlink="http://www.w3.org/1999/xlink" version="1.1" x="0px" y="0px" viewBox="0 0 80 80" enable-background="new 0 0 80 80" xml:space="preserve"><path d="M75,39c1.104,0,2-0.896,2-2V9c0-3.309-2.691-6-6-6H9C5.691,3,3,5.691,3,9v28c0,1.104,0.896,2,2,2s2-0.896,2-2V9  c0-1.103,0.897-2,2-2h62c1.103,0,2,0.897,2,2v28C73,38.104,73.896,39,75,39z"></path><path d="M22,19c0,3.859,3.14,7,7,7s7-3.141,7-7s-3.14-7-7-7S22,15.141,22,19z M32,19c0,1.654-1.346,3-3,3s-3-1.346-3-3s1.346-3,3-3  S32,17.346,32,19z"></path><path d="M75.968,45.976L56.002,19.934c-0.956-1.246-2.4-1.958-3.968-1.958c-0.012,0-0.024,0-0.036,0  c-1.581,0.011-3.03,0.744-3.974,2.012L32.396,40.962l-9.167-7.01c-1.946-1.488-4.659-1.355-6.449,0.316L4.588,45.648  C3.579,46.591,3,47.923,3,49.3l-0.007,3.902l0.005,9.14c0.002,3.307,2.694,5.997,6,5.997l45.027,0.002  c0.354,0,0.702,0.095,1.008,0.273l12.95,7.562c0.946,0.552,1.985,0.828,3.024,0.828c1.026,0,2.053-0.27,2.991-0.809  c1.887-1.085,3.012-3.031,3.01-5.207L77,49.018C77,47.924,76.633,46.844,75.968,45.976z M72.004,72.728  c-0.302,0.175-1.102,0.522-2.005-0.007L57.05,65.16c-0.917-0.536-1.963-0.819-3.025-0.819L8.998,64.339c-1.102,0-2-0.896-2-1.999  l-0.005-9.135L7,49.304c0-0.276,0.116-0.543,0.318-0.731l12.192-11.38c0.192-0.179,0.437-0.27,0.683-0.27  c0.213,0,0.427,0.068,0.608,0.207l9.206,7.04h0l6.076,4.646c0.878,0.672,2.133,0.504,2.804-0.374  c0.671-0.878,0.503-2.133-0.374-2.804l-2.938-2.245l15.658-21.016c0.258-0.347,0.608-0.4,0.794-0.401  c0.19-0.029,0.538,0.047,0.801,0.392l19.966,26.042C72.927,48.583,73,48.799,73,49.019l0.007,21.973  C73.008,72.037,72.306,72.554,72.004,72.728z"></path></svg>