<svg height='100px' width='100px'  fill="#000000" xmlns="http://www.w3.org/2000/svg" xmlns:xlink="http://www.w3.org/1999/xlink" version="1.1" x="0px" y="0px" viewBox="0 0 100 100" enable-background="new 0 0 100 100" xml:space="preserve"><g><path fill="#000000" d="M93.848,49.235C93.538,48.487,92.809,48,92,48H72V28c0-0.53-0.211-1.039-0.586-1.414l-20-20   c-0.572-0.572-1.433-0.743-2.179-0.434C48.487,6.462,48,7.191,48,8v20H28c-0.53,0-1.039,0.211-1.414,0.586l-20,20   c-0.572,0.572-0.743,1.432-0.434,2.179C6.462,51.513,7.191,52,8,52h20v20c0,0.53,0.211,1.039,0.586,1.414l20,20   C48.968,93.797,49.48,94,50,94c0.257,0,0.518-0.05,0.765-0.152C51.513,93.538,52,92.809,52,92V72h20   c0.53,0,1.039-0.211,1.414-0.586l20-20C93.986,50.842,94.157,49.982,93.848,49.235z M52,12.829l16,16V48h-5.528l-6.981-3.491   L52,37.528V12.829z M50,57.527l-2.211-4.422c-0.194-0.387-0.508-0.701-0.895-0.895L42.473,50l4.422-2.211   c0.387-0.194,0.701-0.508,0.895-0.895L50,42.473l2.211,4.422c0.193,0.387,0.508,0.701,0.895,0.895L57.527,50l-4.422,2.211   c-0.387,0.193-0.701,0.508-0.895,0.895L50,57.527z M28.829,32H48v5.528l-3.491,6.981L37.528,48H12.829L28.829,32z M48,87.172   l-16-16V52h5.528l6.981,3.49L48,62.472V87.172z M71.172,68H52v-5.528l3.49-6.981L62.472,52h24.7L71.172,68z"></path></g></svg>