<svg height='100px' width='100px'  fill="#000000" xmlns="http://www.w3.org/2000/svg" data-name="Layer 1" viewBox="0 0 100 100" x="0px" y="0px"><title>Nintendo Switch</title><path d="M23.62,67H76.38a1.39,1.39,0,0,0,1.39-1.39V34.41A1.39,1.39,0,0,0,76.38,33H23.62a1.39,1.39,0,0,0-1.39,1.39V65.59A1.39,1.39,0,0,0,23.62,67ZM25,35.8H57.68L44.25,49.88a1.73,1.73,0,1,0,2.51,2.39L62.15,36.13a1.55,1.55,0,0,0,.24-.33h3.52l-7.27,7.63a1.73,1.73,0,0,0,1.25,2.93,1.71,1.71,0,0,0,1.25-.54l9.24-9.69a1.27,1.27,0,0,0,.24-.33H75V64.2H25Z"></path><path d="M7.7,50.88a1.7,1.7,0,1,0,1.7,1.69A1.69,1.69,0,0,0,7.7,50.88Z"></path><path d="M11.09,50.88a1.7,1.7,0,1,0-1.69-1.7A1.7,1.7,0,0,0,11.09,50.88Z"></path><path d="M14.48,50.88a1.7,1.7,0,0,0,0,3.39h0a1.7,1.7,0,1,0,0-3.39Z"></path><path d="M11.09,54.27A1.7,1.7,0,1,0,12.79,56,1.69,1.69,0,0,0,11.09,54.27Z"></path><path d="M7.3,40.57a3.8,3.8,0,1,0,3.79-3.8A3.79,3.79,0,0,0,7.3,40.57Zm5.28,0a1.49,1.49,0,1,1-1.49-1.49A1.49,1.49,0,0,1,12.58,40.57Z"></path><path d="M98.21,60.39V39.64c0-.21.09-5.27-3.3-8.74a11.07,11.07,0,0,0-8.28-3.13h-5.2a1.21,1.21,0,0,0-.38.06H19a1.21,1.21,0,0,0-.38-.06h-5.2A11.07,11.07,0,0,0,5.09,30.9c-3.39,3.47-3.31,8.53-3.3,8.71V60.36c0,.21-.09,5.27,3.3,8.74a11.07,11.07,0,0,0,8.28,3.13h5.2a1.21,1.21,0,0,0,.38-.06h62.1a1.21,1.21,0,0,0,.38.06h5.2a11.07,11.07,0,0,0,8.28-3.13C98.3,65.63,98.22,60.57,98.21,60.39Zm-81.09,9H13.37A8.34,8.34,0,0,1,7.18,67.1c-2.54-2.59-2.5-6.64-2.5-6.71V39.57a10.25,10.25,0,0,1,2.48-6.65,8.3,8.3,0,0,1,6.21-2.26h3.75Zm62.67,0H20.21V30.61H79.79Zm13-2.31a8.3,8.3,0,0,1-6.21,2.26H82.88V30.66h3.75a8.34,8.34,0,0,1,6.19,2.24c2.54,2.59,2.5,6.64,2.5,6.71V60.43A10.25,10.25,0,0,1,92.84,67.08Z"></path><path d="M87.59,41.86a1.7,1.7,0,1,0-1.69,1.69A1.7,1.7,0,0,0,87.59,41.86Z"></path><path d="M89.29,43.55A1.7,1.7,0,1,0,91,45.25,1.7,1.7,0,0,0,89.29,43.55Z"></path><path d="M92.68,40.16a1.7,1.7,0,1,0,1.69,1.7A1.7,1.7,0,0,0,92.68,40.16Z"></path><path d="M89.29,40.16A1.69,1.69,0,0,0,91,38.47h0a1.7,1.7,0,1,0-3.39,0h0A1.7,1.7,0,0,0,89.29,40.16Z"></path><path d="M89.29,50.07a3.8,3.8,0,1,0,3.79,3.79A3.79,3.79,0,0,0,89.29,50.07Zm0,5.28a1.49,1.49,0,1,1,1.48-1.49A1.49,1.49,0,0,1,89.29,55.35Z"></path></svg>